<?xml version="1.0" standalone="no"?>
<!DOCTYPE svg PUBLIC "-//W3C//DTD SVG 20010904//EN"
 "http://www.w3.org/TR/2001/REC-SVG-20010904/DTD/svg10.dtd">
<svg version="1.0" xmlns="http://www.w3.org/2000/svg"
 width="515.000000pt" height="485.000000pt" viewBox="0 0 515.000000 485.000000"
 preserveAspectRatio="xMidYMid meet">
<metadata>
Created by potrace 1.16, written by Peter Selinger 2001-2019
</metadata>
<g transform="translate(0.000000,485.000000) scale(0.100000,-0.100000)"
fill="#f1c88e" stroke="none">
<path d="M2046 4214 c-73 -23 -159 -112 -176 -182 -34 -145 62 -288 233 -346
17 -5 16 -8 -4 -48 -12 -23 -49 -70 -83 -104 -92 -92 -136 -106 -358 -113
l-177 -6 -31 -30 c-154 -148 9 -759 217 -811 45 -12 90 7 178 74 127 96 153
111 165 92 19 -31 31 -121 39 -310 10 -212 29 -303 76 -357 20 -24 31 -28 72
-27 91 1 205 82 361 255 58 66 110 119 114 119 4 0 8 -14 8 -31 0 -23 12 -42
45 -77 54 -56 63 -82 44 -136 -16 -47 -56 -74 -163 -108 -55 -18 -73 -30 -88
-54 -16 -27 -25 -31 -95 -43 -43 -7 -130 -28 -193 -47 -551 -162 -579 -173
-625 -242 -43 -66 -48 -118 -25 -260 63 -387 66 -702 7 -820 -45 -91 -172
-187 -363 -277 -98 -45 -109 -55 -99 -84 17 -54 217 -68 419 -31 112 20 151
19 240 -6 78 -22 113 -18 147 15 26 27 29 36 29 98 0 37 -8 97 -17 133 -28
112 -22 285 17 475 40 191 48 396 18 472 -8 24 -12 43 -8 43 5 0 46 -9 92 -19
95 -23 266 -41 377 -41 42 0 107 -3 144 -7 63 -6 69 -8 84 -37 32 -63 126
-178 187 -228 l63 -52 13 -101 c25 -203 119 -513 185 -614 32 -48 85 -86 142
-101 68 -17 147 2 316 76 302 133 541 213 590 199 35 -11 76 -55 83 -89 7 -42
-9 -81 -56 -133 -43 -46 -50 -73 -24 -94 21 -17 225 -18 277 0 72 24 113 110
105 221 -4 57 -13 81 -54 156 -55 100 -83 167 -84 204 0 39 -34 85 -75 104
-62 30 -112 18 -197 -47 -40 -30 -83 -60 -94 -66 -48 -24 -128 -34 -294 -36
-129 -2 -188 -7 -225 -19 -27 -8 -53 -16 -56 -16 -3 0 6 35 21 77 47 133 64
256 57 412 -7 149 -22 227 -67 341 -17 45 -32 105 -36 150 -3 41 -15 94 -25
117 -23 51 -17 71 45 151 56 74 75 111 92 186 l14 61 -4 -115 c-2 -75 -10
-132 -21 -163 -24 -67 -12 -69 24 -5 36 61 67 157 86 260 12 73 19 75 28 8 4
-32 -1 -87 -18 -180 l-6 -35 20 35 c11 19 32 71 47 115 38 114 38 262 0 388
-14 49 -36 107 -47 129 -29 57 -17 58 25 1 48 -64 95 -160 116 -236 14 -48 20
-58 26 -43 20 49 -34 209 -112 334 l-27 44 56 -32 c50 -28 147 -65 147 -56 0
2 -29 22 -64 45 -59 38 -185 161 -207 203 -7 13 4 11 57 -14 52 -24 83 -32
143 -35 l76 -3 -57 15 c-105 27 -207 93 -260 168 l-22 32 37 -32 c44 -39 80
-58 125 -68 37 -8 45 10 8 19 -50 12 -195 193 -232 289 -13 34 169 87 301 87
96 0 126 15 156 77 21 42 24 62 24 158 -1 181 -58 339 -160 441 -66 66 -109
78 -169 45 -37 -19 -47 -20 -98 -11 -105 20 -262 -23 -287 -77 -6 -13 -11 -39
-11 -57 0 -53 -1 -53 -312 -19 l-157 17 6 43 c6 46 1 50 -37 28 -55 -32 -113
-10 -260 95 -53 38 -128 84 -166 102 -59 28 -82 33 -159 35 -61 2 -106 -2
-139 -13z m243 -39 c7 -7 -15 -9 -66 -7 -42 2 -95 -2 -119 -8 -82 -23 -153
-109 -154 -185 0 -52 43 -127 106 -183 56 -50 57 -52 24 -40 -56 19 -144 114
-158 170 -27 109 34 209 155 254 43 16 196 15 212 -1z m-7 -115 c56 -21 208
-110 208 -121 0 -4 -24 -13 -52 -20 -72 -17 -113 -35 -176 -76 l-53 -35 -64
31 c-107 53 -150 131 -102 186 47 55 147 70 239 35z m1474 -36 c105 -50 219
-340 183 -466 l-13 -43 -7 85 c-6 79 -40 190 -59 190 -3 0 -3 -25 1 -56 8 -57
-2 -150 -19 -180 -6 -12 -11 2 -14 48 -3 41 -15 82 -32 116 -14 28 -28 52 -30
52 -2 0 -3 -30 -2 -67 1 -65 -19 -163 -33 -163 -4 0 -7 17 -8 38 -2 39 -38
148 -53 157 -4 3 -6 -13 -3 -34 7 -49 -6 -176 -16 -165 -4 5 -20 43 -36 84
l-30 75 -8 -60 c-13 -96 -19 -131 -22 -120 -33 115 -47 155 -55 155 -6 0 -11
-24 -11 -52 -2 -64 -14 -120 -21 -98 -3 8 -11 33 -18 55 -7 22 -19 49 -26 60
-12 17 -14 11 -14 -53 0 -41 -4 -72 -10 -72 -5 0 -10 12 -10 26 0 28 -26 91
-43 101 -7 4 -8 -9 -4 -38 5 -37 4 -41 -6 -25 -70 109 -150 177 -243 206 -78
24 -181 26 -239 4 -22 -8 -62 -22 -88 -30 -27 -8 -65 -30 -84 -48 -35 -32 -40
-47 -33 -111 1 -11 -2 -45 -6 -77 -4 -35 -2 -69 5 -89 14 -41 -4 -155 -23
-140 -8 6 -12 -18 -13 -87 -1 -54 -6 -117 -11 -142 l-9 -45 -7 40 c-4 22 -17
74 -29 115 l-22 75 -7 -97 c-7 -95 -33 -214 -49 -224 -4 -2 -6 17 -2 44 6 58
-10 164 -34 219 l-17 38 -7 -85 c-7 -98 -24 -185 -43 -219 -12 -21 -14 -14
-19 70 -3 52 -14 121 -24 154 l-19 60 -6 -100 c-4 -55 -15 -122 -24 -150 l-18
-50 -8 50 c-16 96 -40 195 -49 201 -5 3 -10 -32 -10 -83 -1 -48 -5 -101 -9
-118 -8 -34 -5 -37 -42 60 -28 72 -90 187 -97 179 -6 -6 -7 -11 -10 -38 -2
-23 -53 -27 -77 -5 l-21 20 -5 -154 c-3 -85 -10 -163 -16 -173 -10 -17 -11
-17 -12 7 0 15 -10 58 -22 95 l-22 69 -12 -90 c-7 -49 -13 -98 -13 -107 -1
-10 -5 -18 -11 -18 -6 0 -10 28 -10 64 0 129 -74 345 -153 449 -21 26 -37 48
-37 50 0 1 42 3 93 4 211 5 342 90 448 292 60 114 144 181 269 212 78 19 266
15 455 -10 88 -12 215 -25 283 -28 l123 -6 23 -33 c12 -18 34 -43 49 -54 22
-18 27 -19 27 -6 0 17 12 21 24 9 13 -13 65 -11 77 3 6 8 17 14 25 14 24 0 35
37 28 95 -4 35 -3 55 3 55 6 0 30 21 54 46 37 39 95 84 107 84 2 0 19 -7 38
-16z m-181 -24 c-3 -5 -13 -10 -20 -10 -8 0 -22 -12 -31 -26 -15 -21 -16 -35
-7 -90 5 -36 6 -67 1 -70 -5 -3 -19 19 -33 48 -27 57 -35 41 -10 -19 30 -71
11 -88 -23 -20 -11 23 -25 53 -31 67 -17 43 -12 -3 6 -52 28 -78 -4 -72 -43 7
l-15 30 7 -42 c3 -24 2 -43 -3 -43 -12 0 -50 80 -58 122 -8 42 21 83 68 97 45
13 200 14 192 1z m-447 -282 c24 -13 52 -34 60 -46 16 -24 16 -24 -22 2 -39
26 -95 46 -131 46 -18 0 -18 -1 3 -16 35 -24 25 -34 -15 -14 -48 22 -128 37
-99 17 11 -6 33 -25 50 -40 l31 -28 -56 30 c-31 17 -69 31 -85 31 l-29 0 45
-41 c25 -22 38 -38 30 -35 -85 28 -126 37 -151 34 -68 -10 -14 31 88 68 89 32
211 28 281 -8z m-303 -137 c47 -21 119 -97 111 -117 -7 -17 -4 -17 30 -2 22
10 28 10 39 -5 11 -15 10 -26 -5 -65 -10 -25 -23 -48 -29 -50 -19 -6 -12 -22
10 -22 18 0 20 -4 14 -27 -18 -78 -100 -147 -188 -159 -40 -6 -47 -4 -53 12
-3 11 -10 27 -15 36 -14 27 -11 38 10 38 33 0 33 17 1 24 -32 6 -40 30 -15 40
31 12 14 24 -22 15 -21 -4 -39 -6 -41 -5 -1 2 2 24 8 49 7 32 7 60 -1 94 -16
70 1 130 44 148 42 19 54 18 102 -4z m360 -460 c23 -212 25 -219 173 -546 93
-207 107 -255 107 -385 0 -63 -5 -123 -10 -133 -8 -13 -11 3 -12 65 -2 119
-37 226 -153 468 -145 302 -143 293 -146 550 -3 200 -2 212 12 170 8 -25 21
-110 29 -189z m109 6 c41 -211 61 -272 147 -454 64 -135 100 -225 98 -252 0
-9 -7 0 -16 19 -8 19 -50 100 -93 180 -122 223 -145 300 -175 564 -26 237 -15
220 39 -57z m-1814 -39 c17 -119 73 -265 139 -363 27 -39 26 -31 -5 51 -40
108 -64 221 -69 334 -5 115 -4 114 30 -42 21 -94 100 -296 112 -284 2 2 -5 31
-16 64 -25 79 -43 195 -39 257 l3 50 23 -95 c13 -52 34 -115 48 -140 l24 -45
-6 95 c-8 116 7 113 31 -8 31 -152 8 -320 -45 -337 -66 -21 -174 120 -229 300
-25 78 -39 255 -25 301 8 27 9 26 11 -16 2 -25 8 -80 13 -122z m1945 -84 c15
-43 49 -122 75 -174 46 -94 91 -201 105 -250 10 -40 -165 298 -192 370 -29 76
-53 195 -52 253 1 36 3 31 19 -39 10 -44 30 -116 45 -160z m-345 -24 c26 -172
82 -320 183 -482 36 -57 72 -119 81 -138 l17 -35 -23 26 c-80 92 -170 201
-203 244 -46 61 -45 61 -45 48 0 -5 40 -75 90 -154 49 -78 88 -144 86 -146 -1
-2 -28 11 -59 28 -31 17 -57 28 -57 24 0 -3 36 -49 80 -101 44 -52 80 -97 80
-100 0 -6 -2 -5 -94 54 -37 24 -70 42 -72 40 -1 -2 26 -35 61 -73 35 -39 64
-74 65 -78 0 -4 -27 11 -60 33 -97 66 -100 59 -11 -37 94 -102 114 -130 87
-120 -15 6 -73 43 -143 94 -42 29 -24 4 68 -97 50 -55 84 -100 77 -100 -7 0
-41 16 -75 34 -35 19 -63 30 -63 26 0 -4 34 -47 75 -95 41 -48 75 -89 75 -92
0 -2 -57 42 -127 99 -190 153 -319 285 -257 261 9 -3 -3 18 -25 48 -44 58 -39
71 19 50 17 -5 30 -6 30 -2 0 8 -58 67 -95 96 -19 15 -17 16 25 12 25 -3 54
-8 65 -13 l20 -7 -20 23 c-11 13 -47 41 -80 62 -56 37 -58 39 -25 33 19 -4 59
-15 88 -24 28 -10 52 -15 52 -12 0 3 -32 28 -70 55 -38 28 -68 52 -65 54 2 2
25 -3 51 -12 26 -9 50 -16 52 -16 2 0 -12 20 -32 45 -41 50 -39 55 10 24 42
-26 43 -14 3 40 -36 51 -32 62 11 31 17 -12 34 -20 36 -17 17 17 -128 177
-188 208 -54 28 -67 23 -25 -8 38 -29 90 -93 82 -101 -2 -2 -24 7 -49 22 -24
14 -57 31 -73 37 -26 10 -26 8 13 -33 37 -38 74 -95 74 -113 0 -3 -19 7 -42
22 -55 36 -118 65 -118 54 0 -5 7 -15 16 -22 19 -16 85 -111 80 -116 -2 -2
-36 12 -77 32 -40 19 -80 35 -88 35 -8 0 11 -27 42 -59 78 -81 76 -99 -5 -61
-96 45 -109 40 -54 -21 63 -70 63 -83 -2 -50 -20 10 -53 22 -72 26 l-34 7 47
-52 c26 -29 45 -55 43 -58 -3 -2 -28 5 -55 17 -79 34 -90 28 -41 -25 23 -25
40 -48 37 -50 -2 -3 -28 5 -57 16 -29 11 -57 19 -61 18 -5 -2 5 -20 22 -41 17
-21 29 -40 27 -43 -3 -2 -25 5 -49 16 -74 33 -86 27 -45 -22 20 -23 34 -44 31
-46 -2 -3 -27 5 -56 17 -28 12 -53 20 -56 17 -3 -3 4 -20 16 -39 31 -51 27
-60 -16 -41 -21 9 -44 18 -51 21 -9 4 -7 -8 8 -37 24 -47 22 -55 -14 -46 -46
11 -85 180 -86 368 0 158 -16 241 -65 348 -41 88 -67 180 -51 180 4 0 12 -14
18 -31 17 -48 19 -27 3 27 -8 27 -15 59 -15 72 0 46 18 20 40 -58 13 -44 25
-78 27 -76 3 2 -5 38 -16 78 -23 80 -27 123 -11 113 5 -3 17 -31 26 -61 25
-88 32 -65 8 30 -3 15 -2 26 4 26 5 0 24 -39 41 -87 17 -49 42 -106 54 -128
19 -34 28 -40 60 -43 44 -4 46 -12 12 -48 -14 -15 -25 -38 -25 -50 0 -26 -19
-31 -38 -12 -6 6 -15 9 -18 5 -4 -4 10 -23 31 -42 40 -39 40 -55 0 -37 -34 15
-32 2 5 -33 17 -16 30 -32 30 -36 0 -4 -13 -4 -30 1 -43 12 -38 -5 12 -37 l42
-28 -39 -5 -39 -5 39 -33 c37 -30 37 -32 11 -22 -40 15 -47 3 -13 -24 35 -28
34 -36 -5 -36 l-33 -1 35 -30 c19 -16 34 -36 32 -44 -6 -29 16 -14 79 53 105
110 186 209 289 347 134 180 162 202 267 220 85 14 112 61 79 139 -14 32 -13
35 13 60 15 14 29 26 32 26 2 0 3 -49 1 -110 -4 -110 13 -227 41 -277 10 -18
12 6 12 130 0 84 4 188 9 232 l10 80 7 -90 c5 -49 13 -124 19 -165z m-700
-230 c47 -16 95 -30 108 -30 12 0 22 -2 22 -5 0 -10 -180 -245 -188 -245 -4 0
-27 61 -52 136 l-44 137 23 18 c30 24 30 24 131 -11z m450 -624 c0 -7 -7 -19
-15 -26 -28 -23 35 -116 136 -201 27 -22 49 -37 49 -32 0 5 -21 34 -46 64 -54
63 -88 114 -99 149 -6 19 4 12 40 -29 27 -29 112 -108 189 -176 134 -117 272
-252 251 -244 -6 2 -56 30 -112 62 -55 31 -104 57 -107 57 -25 0 55 -87 169
-182 90 -75 134 -118 122 -118 -4 0 -53 29 -109 63 -57 35 -113 69 -126 76
-21 11 -23 11 -14 -6 6 -10 23 -29 39 -42 83 -71 183 -164 183 -171 0 -6 -143
76 -317 182 -18 11 -33 15 -33 9 0 -16 87 -101 217 -209 67 -56 125 -107 128
-113 9 -14 -50 12 -183 81 -64 33 -117 58 -119 56 -2 -2 60 -58 137 -126 77
-67 140 -124 140 -127 0 -7 -277 146 -365 202 l-30 19 30 -33 c17 -18 84 -74
150 -124 123 -93 249 -207 268 -242 8 -16 4 -15 -24 7 -88 72 -358 238 -384
238 -11 -1 0 -11 171 -155 129 -108 207 -184 226 -218 6 -13 -9 -3 -38 23 -62
58 -168 136 -314 232 -63 42 -146 106 -184 144 -124 125 -221 296 -267 472
-24 91 -37 269 -21 298 6 11 46 34 90 52 43 18 96 48 118 67 43 38 54 42 54
21z m-318 -284 c4 -51 16 -131 28 -178 11 -48 19 -89 16 -91 -2 -2 -31 19 -65
48 -89 74 -80 40 26 -93 30 -38 50 -68 45 -68 -12 0 -82 50 -174 127 -43 35
-78 60 -78 55 0 -9 92 -146 118 -174 8 -10 11 -18 5 -18 -19 0 -99 63 -180
143 -46 45 -83 78 -83 74 0 -13 51 -110 74 -142 60 -82 23 -63 -86 43 -43 42
-78 70 -78 63 0 -6 14 -39 31 -73 26 -51 28 -59 11 -47 -85 62 -175 120 -179
116 -3 -3 7 -21 21 -40 36 -47 33 -63 -6 -33 -40 30 -158 89 -165 83 -3 -3 21
-36 52 -72 31 -37 54 -69 52 -72 -6 -6 -60 22 -114 58 -23 16 -45 29 -50 29
-4 0 37 -45 92 -100 55 -55 95 -100 90 -100 -11 0 -88 42 -151 81 l-39 23 22
-29 c31 -43 112 -120 153 -144 63 -38 1 -24 -88 19 -45 21 -82 36 -81 32 1 -7
131 -125 174 -158 19 -14 17 -15 -23 -9 -24 3 -61 15 -83 25 -21 11 -39 16
-39 11 0 -11 42 -56 100 -104 l45 -38 -35 7 c-19 3 -54 15 -78 25 -61 27 -50
5 29 -55 35 -27 66 -53 68 -59 4 -10 -60 -5 -109 9 l-25 7 20 -23 c11 -12 41
-35 67 -50 27 -14 45 -30 41 -33 -11 -12 -52 -8 -90 8 -20 8 -38 13 -41 10 -3
-2 16 -26 42 -51 25 -26 46 -48 46 -50 0 -2 -18 -4 -40 -4 -22 0 -40 -4 -40
-10 0 -5 18 -28 40 -51 22 -23 40 -44 40 -47 0 -3 -21 -2 -46 2 -46 6 -46 6
-32 -17 8 -12 32 -33 53 -47 l38 -25 -52 -3 c-28 -2 -51 -7 -51 -12 0 -5 21
-27 48 -49 45 -39 46 -41 20 -41 -15 0 -39 5 -54 10 -15 6 -29 8 -32 5 -8 -8
47 -63 87 -88 46 -28 23 -33 -35 -8 -26 12 -48 21 -50 21 -14 0 3 -32 43 -84
26 -33 41 -56 33 -51 -8 5 -31 18 -50 30 -19 12 -46 26 -60 30 l-25 7 25 -28
c70 -79 70 -78 -5 -40 -83 42 -97 45 -65 11 31 -33 23 -39 -30 -20 -23 8 -52
15 -64 14 -21 0 -21 0 2 -16 36 -26 25 -32 -30 -17 -78 20 -86 18 -48 -16 42
-35 33 -37 -45 -10 -32 11 -60 18 -62 16 -3 -2 8 -16 24 -30 32 -30 25 -32
-43 -11 -68 20 -77 20 -64 -5 12 -22 4 -25 -37 -14 -41 11 -25 31 55 69 185
87 300 183 348 290 26 57 28 69 32 250 5 205 -5 352 -39 566 -13 80 -19 150
-15 171 17 90 82 137 261 188 60 18 171 51 245 75 112 36 213 62 345 88 36 8
40 1 47 -91z m573 -896 l89 -61 -34 -6 -35 -6 35 -15 c19 -9 63 -22 98 -29 34
-7 62 -16 62 -21 0 -12 -71 -28 -125 -28 -47 -1 -49 -2 -30 -16 11 -8 46 -22
78 -31 31 -9 57 -20 57 -25 0 -4 -19 -9 -42 -9 -24 -1 -56 -5 -73 -9 l-30 -7
45 -21 c25 -12 54 -22 65 -22 19 -1 19 -1 2 -11 -22 -13 -116 5 -169 32 -43
22 -50 39 -13 31 37 -7 30 10 -13 33 -23 13 -38 28 -40 43 -3 20 0 22 25 16
28 -7 28 -6 -9 29 -48 44 -53 87 -10 87 l27 1 -28 15 c-28 15 -47 49 -47 85 0
23 -6 26 115 -55z m1250 -117 c12 -10 26 -43 32 -73 6 -30 39 -109 72 -176 52
-104 61 -130 61 -176 0 -72 -20 -119 -61 -140 -39 -20 -153 -31 -163 -16 -8
13 37 46 101 74 45 20 46 22 25 31 -12 6 -22 13 -22 17 0 3 21 17 48 29 51 26
51 26 -23 36 l-50 7 26 21 c14 12 35 27 45 34 16 10 10 12 -40 12 l-60 1 34
35 c18 19 31 37 28 40 -2 3 -27 -2 -53 -10 -27 -8 -50 -13 -52 -11 -2 1 10 22
27 44 17 23 29 42 27 42 -2 0 -27 -7 -56 -16 -29 -8 -55 -14 -57 -12 -2 3 10
20 26 39 16 19 29 37 30 42 0 9 -78 -30 -102 -51 -26 -22 -24 3 3 47 11 18 18
36 15 39 -7 6 -66 -39 -125 -95 -24 -24 -46 -43 -48 -43 -2 0 8 23 22 50 15
30 21 50 14 50 -7 0 -45 -34 -85 -75 -40 -41 -76 -75 -79 -75 -4 0 7 25 23 55
17 30 27 55 23 55 -3 0 -43 -34 -89 -76 -45 -42 -82 -71 -82 -64 0 6 12 33 26
61 14 28 24 53 22 55 -2 2 -46 -39 -98 -91 -52 -52 -98 -95 -102 -95 -9 0 43
90 78 137 13 17 24 34 24 38 0 14 -96 -62 -180 -142 -118 -112 -119 -85 -2 55
24 28 40 52 37 52 -4 0 -33 -22 -64 -48 -76 -65 -112 -89 -145 -98 -23 -5 -11
10 61 80 l88 87 -82 -40 c-46 -23 -86 -41 -90 -41 -14 0 63 72 107 100 77 49
136 60 311 60 222 0 297 20 400 106 78 65 128 75 174 33z"/>
<path d="M2771 2066 c-7 -8 -23 -17 -36 -20 -31 -8 -32 -28 -6 -100 22 -64 68
-134 124 -193 51 -53 69 -56 29 -5 -47 59 -100 162 -116 226 -19 73 -13 84 13
24 18 -44 76 -118 90 -118 4 0 -7 29 -25 65 -18 37 -36 82 -40 100 -7 38 -15
43 -33 21z"/>
<path d="M2621 1994 l-54 -26 6 -71 c5 -69 31 -162 46 -171 4 -3 1 34 -6 81
-20 123 -13 171 10 73 9 -41 29 -100 43 -130 28 -62 85 -153 90 -147 2 2 -9
33 -25 68 -38 85 -67 181 -75 249 l-6 55 20 -53 c21 -58 59 -126 67 -118 2 2
-2 24 -10 48 -9 24 -18 61 -22 83 -11 69 -15 85 -23 84 -4 0 -31 -12 -61 -25z"/>
<path d="M1380 2777 c-300 -124 -529 -560 -614 -1172 -28 -197 -36 -345 -36
-680 -1 -261 -4 -338 -15 -370 -17 -47 -18 -58 -6 -51 5 4 17 27 27 54 14 40
18 101 25 397 4 201 14 412 23 495 40 364 116 651 231 882 106 212 211 329
411 455 29 18 15 15 -46 -10z"/>
<path d="M1385 2731 c-59 -34 -150 -125 -200 -198 -124 -185 -239 -507 -294
-823 -47 -268 -61 -438 -70 -830 -7 -291 -10 -331 -29 -385 -23 -66 -20 -82 8
-47 53 64 79 214 80 447 1 245 37 612 86 870 91 476 254 814 469 972 44 33 9
28 -50 -6z"/>
<path d="M1408 2677 c-184 -150 -356 -553 -432 -1012 -42 -254 -50 -363 -51
-750 -1 -203 -5 -390 -9 -415 -4 -25 -19 -65 -32 -89 -25 -45 -21 -70 10 -58
50 20 76 129 76 327 1 603 68 1123 196 1505 61 184 173 383 268 475 75 73 57
85 -26 17z"/>
<path d="M1429 2623 c-93 -96 -147 -188 -213 -366 -134 -358 -199 -867 -180
-1402 11 -282 9 -392 -7 -458 -6 -26 -9 -50 -7 -52 2 -2 23 1 47 7 49 12 57
27 55 96 -15 549 -15 637 -5 832 18 335 45 548 96 765 60 255 166 486 264 579
32 31 40 56 18 56 -7 0 -38 -26 -68 -57z"/>
<path d="M1508 2633 c-36 -41 -92 -140 -133 -237 -186 -435 -272 -1123 -220
-1758 21 -254 20 -249 67 -228 l23 11 0 442 c0 457 9 628 46 912 42 317 114
575 213 760 36 69 42 87 32 100 -11 15 -13 15 -28 -2z"/>
<path d="M1546 2578 c-94 -144 -200 -600 -251 -1083 -22 -202 -31 -709 -16
-894 6 -80 14 -147 16 -150 9 -8 87 33 100 54 11 16 12 51 3 180 -13 205 -4
716 17 905 38 353 121 741 193 903 l25 59 -29 23 c-36 30 -40 30 -58 3z"/>
</g>
</svg>
