<?xml version="1.0" standalone="no"?>
<!DOCTYPE svg PUBLIC "-//W3C//DTD SVG 20010904//EN"
 "http://www.w3.org/TR/2001/REC-SVG-20010904/DTD/svg10.dtd">
<svg version="1.0" xmlns="http://www.w3.org/2000/svg"
 width="529.000000pt" height="472.000000pt" viewBox="0 0 529.000000 472.000000"
 preserveAspectRatio="xMidYMid meet">
<metadata>
Created by potrace 1.16, written by Peter Selinger 2001-2019
</metadata>
<g transform="translate(0.000000,472.000000) scale(0.100000,-0.100000)"
fill="#f1c88e" stroke="none">
<path d="M3793 4580 c-40 -11 -116 -40 -170 -66 -77 -37 -111 -60 -169 -118
-39 -39 -74 -78 -77 -86 -3 -12 -12 -8 -38 17 -75 70 -198 108 -273 83 -77
-25 -142 -109 -153 -198 -5 -42 0 -60 30 -128 45 -100 67 -176 67 -229 0 -36
-6 -47 -49 -89 -28 -27 -55 -62 -62 -77 -8 -21 -20 -30 -44 -35 -75 -14 -118
14 -154 100 -25 56 -36 53 -71 -20 -47 -97 -18 -225 69 -307 64 -60 123 -81
205 -75 58 5 67 3 86 -17 39 -42 117 -69 197 -68 l72 1 -27 -34 c-60 -76 -185
-147 -304 -174 -71 -16 -245 -21 -338 -9 -41 5 -176 34 -300 64 -296 71 -320
75 -479 75 -268 0 -477 -81 -657 -255 -41 -40 -75 -65 -89 -65 -21 0 -47 -13
-187 -90 -56 -30 -71 -34 -140 -35 -63 0 -81 4 -106 22 -16 12 -32 19 -36 16
-10 -10 -7 -105 4 -145 12 -43 51 -93 92 -118 15 -9 41 -36 58 -59 40 -54 104
-94 187 -117 l66 -18 -7 -92 c-12 -177 -72 -314 -201 -465 -101 -118 -138
-197 -183 -389 -29 -125 -57 -190 -112 -266 -28 -36 -55 -84 -61 -106 -13 -48
5 -522 22 -583 25 -92 73 -132 204 -171 63 -19 226 -25 279 -11 22 6 27 13 24
30 -4 20 0 22 52 23 60 2 100 16 100 37 0 7 -12 29 -26 48 -41 55 -81 140 -98
210 -9 35 -37 106 -63 157 -37 75 -47 106 -51 160 -5 78 4 101 94 238 91 138
167 211 290 279 59 33 112 61 116 63 4 2 8 -11 8 -29 0 -59 23 -107 92 -195
114 -144 154 -234 194 -441 2 -11 22 -43 43 -71 77 -97 111 -177 135 -324 12
-67 92 -109 270 -143 96 -19 116 -19 116 -1 0 11 18 12 88 8 126 -7 130 0 65
126 -28 53 -62 129 -77 169 -36 102 -83 192 -209 403 -61 102 -121 210 -134
240 -28 69 -30 158 -4 215 19 42 30 55 152 170 119 111 206 223 245 313 1 2
32 -14 69 -34 37 -20 99 -49 138 -64 57 -22 76 -35 91 -62 10 -18 33 -55 51
-83 28 -43 34 -64 44 -151 6 -56 13 -108 16 -116 4 -10 -13 -6 -55 15 -82 39
-115 38 -172 -1 -75 -52 -135 -169 -126 -247 3 -27 7 -29 73 -41 83 -14 127
-31 217 -85 46 -28 80 -41 108 -42 36 -2 40 -5 40 -28 0 -14 -9 -60 -20 -102
l-20 -77 26 -72 c49 -138 55 -168 53 -288 -1 -63 -1 -123 0 -133 3 -41 93 -98
216 -137 133 -41 295 -25 295 30 0 17 7 20 46 20 55 0 57 -25 -16 224 -28 98
-67 210 -85 247 -48 94 -75 198 -82 310 l-6 95 69 36 c38 19 114 52 169 73
112 43 169 78 213 131 63 77 73 161 50 461 -17 226 -6 297 66 452 64 139 137
335 164 446 38 150 47 228 47 403 l0 172 68 0 c163 0 336 107 428 265 54 93
74 176 74 315 0 198 -36 319 -141 466 -88 124 -229 221 -379 259 -81 20 -213
18 -302 -5z m304 -419 c117 -54 191 -287 142 -448 -12 -37 -87 -110 -123 -119
-44 -11 -93 4 -120 37 -34 41 -42 74 -27 127 6 24 9 48 6 53 -8 12 -42 11 -67
-2 -11 -6 -22 -8 -25 -6 -3 3 15 15 39 27 91 46 159 142 162 229 l1 46 -60 7
c-33 4 -78 13 -100 21 l-40 14 30 16 c41 22 130 21 182 -2z m-195 -101 c34
-11 71 -20 81 -20 22 0 22 -19 0 -50 -28 -42 -75 -78 -140 -110 -35 -17 -63
-37 -63 -44 0 -7 9 -39 20 -72 18 -51 19 -65 9 -114 -22 -106 5 -218 70 -292
26 -30 34 -52 46 -120 16 -91 19 -200 6 -263 -7 -32 -9 -34 -10 -12 -1 27 -21
40 -21 13 0 -8 -4 -18 -10 -21 -7 -4 -7 3 0 20 14 38 13 85 -3 85 -27 0 -114
-160 -100 -183 3 -4 16 -1 30 8 24 16 25 16 18 -7 -18 -55 -25 -66 -59 -86
-34 -20 -36 -20 -26 -2 13 25 13 60 -1 60 -35 0 -90 -48 -135 -118 -33 -51
-41 -72 -27 -72 15 0 73 25 73 31 0 4 7 9 15 13 9 3 1 -17 -20 -49 -19 -31
-35 -58 -35 -60 0 -11 24 -4 52 17 27 19 29 19 19 2 -52 -86 -132 -162 -191
-179 -20 -6 -14 4 31 51 60 62 84 100 71 108 -5 3 -21 -4 -38 -15 -16 -11 -51
-32 -79 -46 l-50 -25 36 38 c76 83 88 99 80 107 -5 5 -114 -45 -252 -116 -134
-69 -265 -133 -291 -142 -46 -17 -55 -25 -43 -37 3 -3 54 5 113 18 59 13 112
23 117 23 15 0 -58 -44 -147 -90 -108 -55 -106 -68 8 -49 140 24 136 25 69
-16 -33 -20 -84 -48 -113 -62 -78 -35 -56 -49 50 -29 46 8 84 14 86 12 4 -4
-148 -92 -180 -104 -16 -6 -28 -16 -28 -22 0 -12 137 -8 175 6 39 14 -28 -34
-93 -67 -91 -45 -80 -59 37 -45 l54 6 -34 -25 c-19 -14 -60 -39 -93 -56 -76
-38 -64 -51 44 -46 l81 3 -28 -22 c-15 -13 -56 -35 -90 -50 -35 -15 -63 -31
-63 -35 0 -17 118 -7 185 17 45 15 -53 -59 -118 -89 -37 -18 -64 -35 -61 -39
12 -12 107 -7 146 7 30 11 35 11 31 0 -7 -18 -91 -80 -126 -93 -15 -6 -27 -15
-27 -21 0 -13 84 -13 129 0 32 9 33 9 16 -10 -9 -10 -41 -31 -71 -47 -30 -15
-52 -32 -50 -38 2 -6 33 -9 72 -8 l69 2 -40 -34 c-22 -19 -52 -37 -67 -40 -16
-4 -28 -13 -28 -20 0 -13 27 -21 95 -28 l30 -2 -49 -33 c-28 -17 -58 -32 -68
-32 -10 0 -18 -4 -18 -10 0 -14 40 -33 85 -40 l40 -6 -58 -33 c-69 -40 -64
-55 17 -55 51 -1 53 -2 39 -18 -8 -9 -35 -26 -60 -38 -24 -11 -43 -26 -40 -33
4 -14 65 -28 92 -20 35 10 -23 -45 -62 -59 -43 -16 -38 -29 21 -49 l47 -16
-50 -22 c-28 -12 -51 -26 -51 -31 0 -5 17 -12 38 -16 20 -3 50 -9 65 -13 l28
-6 -53 -36 c-76 -51 -71 -63 27 -60 l80 2 -55 -26 c-61 -29 -100 -61 -100 -83
0 -10 7 -12 23 -9 12 4 42 9 67 12 l45 7 -35 -20 c-40 -22 -59 -63 -59 -134
-1 -39 3 -50 22 -62 25 -16 134 -42 143 -34 3 4 -2 27 -10 52 -9 26 -16 54
-15 64 0 9 10 -12 23 -48 12 -36 28 -75 35 -87 11 -21 10 -23 -12 -23 -51 0
-136 24 -193 54 l-59 31 -6 140 c-5 118 -10 153 -34 220 -15 44 -31 88 -36 97
-6 11 -2 42 11 90 36 129 22 328 -31 447 -25 57 -35 101 -55 243 -14 102 -14
113 0 124 18 13 21 34 6 34 -6 0 -23 12 -38 27 l-26 26 39 11 c57 16 56 39 -2
55 l-48 13 57 27 c32 14 56 31 54 36 -1 6 -31 11 -66 13 -86 3 -103 15 -48 31
56 17 98 39 98 51 0 6 -37 10 -87 10 -54 0 -83 4 -78 9 6 5 50 27 98 48 49 22
87 43 85 48 -2 6 -42 9 -93 7 l-90 -2 45 24 c25 14 66 32 93 41 28 10 47 23
47 32 0 16 -18 15 -155 -3 -38 -5 -35 -3 40 39 44 24 90 47 103 51 32 10 30
40 -3 32 -51 -13 -179 -36 -182 -32 -2 1 37 22 87 45 49 23 90 46 90 51 0 13
-5 12 -128 -5 -83 -12 -116 -22 -166 -50 -49 -27 -109 -46 -255 -80 -105 -25
-194 -45 -198 -45 -11 1 109 57 192 90 38 16 71 34 74 41 6 19 -107 2 -230
-35 -60 -18 -106 -30 -104 -27 2 3 42 26 89 51 85 45 114 77 59 64 -46 -10
-178 -43 -199 -49 -25 -9 51 41 98 63 41 19 52 46 16 37 -100 -22 -204 -42
-207 -40 -6 7 63 45 112 63 26 9 47 21 47 26 0 12 -134 0 -195 -18 -27 -9 -50
-14 -52 -12 -3 2 118 57 170 76 17 6 25 14 21 21 -6 11 -84 7 -154 -7 -25 -5
-25 -5 -5 11 11 10 35 23 53 31 52 23 40 38 -25 31 l-58 -6 38 20 c73 38 30
67 -51 34 -109 -46 -185 -115 -109 -100 24 4 11 -7 -53 -44 -47 -28 -93 -53
-102 -57 -10 -3 -18 -10 -18 -15 0 -13 40 -11 95 6 27 8 51 12 53 10 5 -5
-107 -57 -160 -74 -21 -7 -38 -17 -38 -22 0 -18 96 -10 180 15 36 11 -186
-121 -226 -134 -33 -11 -42 -24 -26 -34 4 -2 52 4 107 14 55 10 102 16 104 14
6 -5 -220 -114 -236 -114 -8 0 -13 -5 -11 -11 4 -12 144 -14 218 -3 78 11 -78
-47 -247 -92 -29 -8 -10 -23 35 -29 26 -3 63 -9 82 -14 33 -6 30 -8 -45 -23
-44 -10 -99 -20 -122 -23 -24 -4 -43 -10 -43 -15 0 -10 66 -36 116 -46 l39 -7
-30 -9 c-16 -5 -64 -10 -105 -13 -41 -2 -76 -8 -78 -13 -3 -11 88 -52 115 -52
17 -1 17 -1 1 -11 -10 -5 -55 -11 -100 -13 -46 -2 -83 -8 -82 -13 0 -4 28 -22
63 -39 l62 -31 -62 -7 c-34 -3 -77 -6 -95 -6 -19 0 -34 -4 -34 -9 0 -13 40
-37 89 -53 l43 -15 -52 -6 c-28 -3 -65 -4 -81 -2 -16 3 -42 7 -59 10 -46 7
-38 -20 15 -54 l44 -28 -86 -7 c-48 -3 -89 -9 -92 -12 -6 -6 29 -38 65 -61 17
-11 16 -12 -12 -12 -17 -1 -57 -10 -89 -21 -101 -35 -109 -60 -19 -60 30 0 54
-3 54 -7 0 -5 -35 -21 -78 -38 -88 -34 -103 -59 -37 -61 99 -2 103 -4 45 -20
-59 -16 -141 -61 -148 -81 -3 -10 14 -13 60 -13 l63 0 -43 -20 c-56 -25 -132
-80 -132 -95 0 -8 16 -11 53 -7 l52 4 -40 -30 c-49 -36 -100 -90 -93 -97 3 -3
28 0 57 6 58 12 89 7 50 -9 -34 -14 -99 -70 -99 -87 0 -9 17 -11 69 -7 45 3
71 1 75 -7 4 -6 0 -11 -10 -11 -31 0 -115 -54 -131 -83 -15 -29 -15 -30 9 -23
31 9 132 24 136 21 2 -2 -16 -14 -40 -26 -62 -31 -99 -59 -93 -70 4 -5 16 -7
28 -5 12 3 45 7 72 10 l50 6 -55 -18 c-94 -31 -100 -37 -100 -90 0 -26 6 -58
13 -72 20 -39 74 -70 123 -70 48 0 53 8 29 50 -8 14 -14 32 -14 40 0 8 13 -10
28 -40 l29 -55 -30 -6 c-46 -10 -158 7 -187 29 -14 10 -32 36 -39 58 -14 41
-37 464 -28 520 2 18 24 59 49 92 57 78 102 187 127 305 33 159 70 239 155
332 56 61 101 128 149 220 20 39 35 61 34 50 -3 -17 2 -20 30 -18 90 4 109 32
35 51 -37 10 -48 10 -56 0 -6 -9 -7 -8 -3 5 3 10 6 23 6 28 0 4 12 6 28 3 33
-6 128 17 125 31 -2 12 -102 37 -120 30 -8 -3 -13 5 -13 22 0 24 1 25 13 9 11
-15 18 -16 62 -5 28 6 64 19 80 28 l30 16 -29 3 c-16 2 -55 2 -88 0 l-58 -3 1
115 c1 67 4 99 8 77 3 -21 8 -38 11 -39 22 -6 190 66 190 82 0 12 -200 18
-201 5 -1 -23 -18 33 -17 60 l0 30 7 -30 c6 -27 10 -30 41 -29 49 2 150 42
150 60 0 12 -17 14 -95 12 -59 -2 -95 1 -95 7 0 6 16 11 35 12 42 2 145 47
145 64 0 8 -17 10 -57 6 -32 -3 -67 -2 -78 3 -17 7 -10 13 46 38 36 17 78 34
93 38 14 3 26 13 26 21 0 13 -10 14 -57 9 -117 -14 -122 -16 -132 -50 -5 -17
-10 -24 -10 -15 -2 28 29 117 49 141 11 12 19 18 20 12 0 -7 11 -9 28 -7 27 5
27 5 -5 -16 -18 -11 -33 -25 -33 -31 0 -25 114 0 165 37 28 21 33 43 8 43 -14
0 -13 3 5 16 12 8 22 19 22 25 0 17 -75 8 -122 -15 -27 -13 -48 -21 -48 -19 0
13 95 92 167 139 154 102 267 129 504 121 160 -5 216 -15 429 -73 228 -61 272
-68 450 -68 188 -1 244 10 375 73 94 44 184 122 226 195 30 54 40 57 13 5 -8
-17 -13 -33 -10 -36 11 -12 34 7 64 53 35 52 40 52 17 -3 -8 -20 -13 -38 -10
-41 10 -10 55 42 81 92 l26 51 -7 -42 c-9 -58 6 -55 50 9 l35 53 0 -35 1 -35
24 28 c13 15 31 51 40 79 16 54 21 148 8 148 -5 0 -18 -17 -30 -38 l-22 -37
-1 43 c0 51 -12 54 -28 8 -7 -18 -22 -42 -33 -52 -21 -19 -21 -19 -19 6 3 38
1 50 -10 50 -5 0 -10 -6 -10 -12 -1 -7 -12 -26 -25 -43 l-25 -30 6 33 c9 43
-3 40 -48 -10 -21 -24 -35 -35 -32 -25 9 25 -11 21 -43 -9 -23 -21 -29 -23
-31 -10 -2 9 -4 16 -5 16 -1 0 -29 -11 -62 -25 -64 -26 -151 -33 -186 -15 -29
16 -23 27 16 28 20 1 75 20 122 42 96 45 103 46 103 25 0 -23 19 -18 32 9 30
66 -22 72 -142 16 -92 -43 -130 -49 -154 -24 -23 22 -20 42 12 69 28 25 52 32
52 15 0 -17 19 -11 30 9 5 11 7 27 3 36 -6 18 -24 17 -120 -1 -26 -5 -33 -3
-33 9 0 8 -6 17 -12 19 -18 6 99 121 150 147 45 23 48 41 6 41 -22 0 -24 3
-18 23 11 37 32 81 48 101 16 20 16 20 32 0 9 -11 17 -15 20 -8 3 6 12 20 20
30 14 18 15 18 9 -3 -8 -28 19 -32 34 -5 9 15 10 15 11 -5 0 -34 14 -28 44 17
31 47 43 53 21 10 -14 -28 -20 -60 -10 -60 2 0 29 18 60 39 92 65 182 75 248
29 16 -11 29 -19 30 -17 2 2 9 16 16 31 15 29 82 68 118 68 11 0 50 -9 85 -20z
m-2882 -1335 c0 -28 -39 -54 -120 -79 -45 -14 -88 -26 -96 -26 -34 0 -4 -26
42 -36 l49 -11 -35 -5 -35 -4 35 -17 c29 -14 31 -16 12 -17 -46 0 -138 55
-161 99 -8 14 -3 16 35 13 55 -5 140 21 207 64 59 38 67 40 67 19z m2648 -682
c-5 -43 -7 -109 -4 -148 12 -157 19 -383 12 -416 -3 -19 -20 -50 -37 -69 -17
-20 -24 -24 -15 -10 21 32 20 37 -6 46 l-21 6 20 17 c26 21 55 66 47 74 -4 3
-20 3 -38 0 l-31 -6 32 33 c32 33 50 67 40 76 -3 3 -19 -2 -36 -10 -48 -25
-51 -19 -10 23 22 21 39 48 39 59 l0 21 -46 -19 c-59 -26 -64 -25 -32 5 31 29
78 89 78 100 0 9 -15 4 -89 -25 l-53 -21 50 49 c48 47 86 104 76 115 -3 2 -31
-13 -63 -34 -80 -53 -90 -49 -28 10 87 82 111 144 34 87 -59 -43 -56 -37 16
38 40 41 72 75 73 76 0 0 -4 -35 -8 -77z m-1418 -112 c0 -14 -76 -123 -117
-167 -21 -22 -35 -36 -30 -30 21 29 2 30 -143 10 -30 -4 -27 -2 21 19 31 14
80 32 110 42 51 16 89 45 89 67 0 9 -75 5 -165 -7 l-30 -5 35 17 c46 22 179
62 208 62 12 1 22 -3 22 -8z m-705 -551 c13 -14 52 -68 87 -120 63 -94 97
-164 118 -248 8 -32 15 -42 26 -38 13 5 15 -4 12 -52 -2 -52 1 -62 29 -97 38
-47 116 -211 110 -228 -3 -7 -11 3 -17 22 -20 52 -56 116 -99 174 -26 36 -43
72 -51 113 -30 142 -90 274 -183 395 -72 95 -87 120 -87 146 1 13 5 9 17 -12
8 -16 26 -41 38 -55z m315 -90 c0 -38 35 -147 62 -192 13 -21 69 -113 124
-205 100 -164 154 -264 154 -281 0 -5 -13 -7 -28 -4 -25 3 -36 19 -95 137 -86
173 -150 273 -183 285 -19 7 -34 29 -57 80 -18 42 -37 70 -46 70 -12 0 -12 3
-3 12 7 7 12 21 12 31 0 17 -5 19 -32 13 l-32 -6 38 39 c22 22 43 38 48 35 4
-3 11 2 14 10 9 24 24 9 24 -24z"/>
<path d="M3773 4009 c-39 -11 -63 -43 -63 -85 0 -27 4 -32 31 -38 49 -10 76
-7 88 8 10 12 7 15 -16 18 -26 3 -22 6 40 41 37 21 67 43 67 48 0 5 -20 9 -44
9 -24 0 -50 2 -58 4 -7 2 -27 0 -45 -5z"/>
<path d="M3495 3956 c-17 -7 -36 -24 -42 -38 -6 -14 -26 -42 -44 -62 -39 -46
-30 -58 22 -29 33 18 45 20 67 12 38 -15 88 -3 111 26 12 16 29 25 46 25 38 0
27 20 -26 47 -59 30 -98 36 -134 19z"/>
<path d="M3626 3824 c-16 -9 -55 -19 -87 -21 -69 -7 -78 -25 -21 -44 24 -9 31
-14 20 -17 -31 -6 -19 -21 25 -30 25 -6 32 -10 19 -11 -32 -1 -23 -25 12 -29
27 -3 56 12 56 29 0 5 -10 9 -22 10 -15 0 -18 2 -8 6 23 9 60 45 60 60 0 17
-10 16 -34 -2 -33 -25 -43 -17 -13 10 15 14 27 32 27 40 0 18 2 18 -34 -1z"/>
<path d="M3400 2681 c-214 -97 -381 -194 -362 -213 12 -12 273 84 332 122 47
30 147 126 139 134 -2 2 -51 -17 -109 -43z"/>
<path d="M2700 2549 c-30 -11 -63 -23 -73 -26 -26 -8 -15 -27 17 -31 24 -3 18
-8 -43 -37 -66 -32 -79 -43 -66 -57 20 -19 306 70 312 97 3 12 -39 12 -117 2
l-55 -7 60 25 c33 14 61 25 63 25 1 0 2 7 2 15 0 21 -33 19 -100 -6z"/>
</g>
</svg>
