<?xml version="1.0" standalone="no"?>
<!DOCTYPE svg PUBLIC "-//W3C//DTD SVG 20010904//EN"
 "http://www.w3.org/TR/2001/REC-SVG-20010904/DTD/svg10.dtd">
<svg version="1.0" xmlns="http://www.w3.org/2000/svg"
 width="450.000000pt" height="554.000000pt" viewBox="0 0 450.000000 554.000000"
 preserveAspectRatio="xMidYMid meet">
<metadata>
Created by potrace 1.16, written by Peter Selinger 2001-2019
</metadata>
<g transform="translate(0.000000,554.000000) scale(0.100000,-0.100000)"
fill="#f1c88e" stroke="none">
<path d="M1800 5312 c0 -5 12 -19 26 -33 37 -33 108 -145 145 -226 171 -376
238 -1010 153 -1437 -24 -119 -50 -189 -76 -206 -50 -32 -106 -96 -117 -135
-6 -22 -11 -72 -11 -111 0 -50 -6 -85 -21 -118 l-20 -47 -30 22 c-37 26 -121
131 -182 226 -25 40 -55 77 -66 82 -12 7 -22 26 -26 51 -4 26 -22 59 -48 92
-71 86 -72 88 -59 106 29 41 63 115 79 173 12 42 38 94 79 154 107 157 172
307 210 487 31 146 17 453 -21 453 -5 0 -13 -29 -16 -65 -9 -83 -24 -139 -59
-218 -28 -61 -118 -203 -160 -252 l-22 -25 6 110 c12 252 103 433 282 561 35
25 61 50 58 56 -18 28 -211 -15 -298 -66 -136 -80 -207 -179 -510 -716 -90
-159 -136 -299 -136 -415 0 -87 18 -152 65 -229 31 -52 34 -63 25 -89 -36
-104 24 -271 109 -307 22 -9 37 -27 55 -67 57 -124 260 -269 501 -358 55 -20
103 -39 107 -41 4 -3 3 -17 -2 -32 -5 -15 -14 -53 -20 -85 l-12 -58 -36 7
c-36 6 -124 45 -232 104 -30 16 -84 43 -120 60 -36 16 -87 47 -115 69 -27 22
-93 69 -146 104 -96 65 -153 121 -192 189 -32 55 -51 50 -43 -9 12 -82 36
-155 77 -231 21 -41 39 -79 39 -86 0 -7 28 -35 63 -62 34 -26 86 -69 115 -95
29 -25 76 -59 105 -74 29 -16 66 -41 84 -56 53 -46 276 -119 363 -119 11 0 20
-5 20 -11 0 -8 -28 -10 -97 -6 -77 4 -120 13 -203 42 -68 23 -124 36 -160 37
-45 1 -76 11 -175 58 -66 32 -165 77 -220 101 -84 36 -110 54 -163 106 -34 35
-66 61 -71 59 -11 -7 3 -78 28 -146 30 -77 82 -144 130 -166 22 -11 43 -27 47
-37 8 -25 65 -59 197 -118 62 -28 128 -59 148 -69 53 -29 151 -49 267 -57 57
-3 99 -9 95 -13 -4 -3 -62 -21 -128 -39 -159 -45 -254 -88 -291 -135 -16 -20
-36 -36 -44 -36 -24 0 -152 -64 -187 -94 -18 -15 -35 -36 -38 -47 -4 -11 -28
-41 -54 -67 -58 -58 -91 -137 -99 -234 -4 -58 -2 -68 12 -68 9 0 16 4 16 8 0
36 195 192 240 192 34 0 80 24 164 84 51 37 84 55 96 51 29 -9 109 24 231 96
114 67 149 85 149 77 0 -3 -22 -19 -50 -37 -84 -55 -157 -128 -176 -176 -9
-26 -31 -56 -51 -71 -51 -39 -111 -120 -124 -167 -6 -23 -23 -64 -36 -91 -44
-84 -41 -289 4 -303 7 -3 15 11 19 34 11 62 40 109 115 184 39 39 97 108 130
154 40 57 71 89 96 102 23 11 59 45 91 88 63 82 129 155 141 155 17 0 26 -87
22 -210 -6 -153 0 -245 18 -285 15 -33 18 -58 14 -107 -4 -52 -1 -74 17 -115
l22 -52 -64 -64 c-81 -79 -121 -156 -126 -245 -4 -55 0 -71 26 -125 17 -34 33
-77 36 -94 3 -18 13 -44 22 -59 22 -33 88 -78 139 -94 22 -7 51 -23 65 -35 71
-66 201 -101 338 -92 111 8 201 38 258 88 25 22 52 39 60 39 27 0 91 39 122
74 17 20 36 55 42 78 7 24 17 52 23 63 38 70 42 84 42 150 0 60 -5 79 -34 133
-34 62 -95 134 -139 164 l-23 16 22 43 c18 34 24 61 24 119 0 41 7 93 14 114
12 34 19 295 10 371 -2 17 20 112 28 124 6 8 65 -54 123 -129 65 -85 96 -115
126 -124 11 -3 47 -43 79 -89 32 -45 94 -118 137 -162 74 -76 97 -113 112
-187 4 -16 11 -28 16 -28 23 0 35 49 35 145 0 88 -3 107 -27 155 -14 30 -29
68 -33 83 -9 42 -52 106 -110 162 -28 28 -62 71 -74 97 -24 51 -83 108 -169
166 -96 64 -45 45 88 -33 142 -84 198 -108 233 -100 16 4 41 -8 92 -46 77 -57
138 -88 172 -89 34 0 169 -97 211 -151 41 -53 55 -57 60 -13 10 78 -41 205
-110 277 -24 24 -50 58 -60 75 -18 34 -96 83 -171 108 -30 10 -65 33 -91 59
-48 47 -136 86 -302 131 -54 15 -103 30 -107 34 -4 4 34 10 85 13 122 8 228
31 286 62 26 14 50 25 54 25 4 0 58 25 120 55 74 37 126 69 150 95 21 22 42
40 48 40 26 0 99 84 129 149 30 65 53 171 37 171 -4 0 -34 -26 -65 -59 -53
-53 -92 -77 -206 -125 -16 -7 -73 -33 -125 -58 -163 -78 -184 -86 -231 -86
-26 0 -96 -16 -160 -38 -88 -28 -135 -38 -206 -42 -54 -2 -93 0 -93 5 0 5 35
15 77 22 101 17 236 63 286 98 22 15 66 44 98 63 32 19 85 58 116 85 32 28 81
68 109 90 43 34 59 56 101 145 28 58 56 128 62 155 24 112 14 156 -22 96 -44
-75 -103 -135 -185 -188 -48 -31 -112 -77 -142 -102 -30 -24 -93 -62 -140 -83
-92 -43 -91 -42 -199 -104 -69 -40 -167 -72 -180 -58 -8 8 -40 158 -35 166 2
3 28 14 57 24 246 81 490 249 552 380 14 30 30 54 35 54 19 0 92 74 112 114
26 50 35 150 18 200 -11 34 -10 40 19 82 49 75 66 137 65 244 0 148 -40 255
-188 509 -41 69 -102 176 -136 236 -177 312 -317 428 -544 451 -39 4 -66 3
-70 -4 -3 -5 24 -32 61 -58 127 -93 224 -241 258 -393 16 -75 33 -271 22 -271
-12 0 -109 142 -151 221 -51 96 -82 190 -92 278 -3 34 -10 61 -14 61 -15 0
-32 -98 -37 -210 -11 -249 72 -512 234 -743 38 -55 61 -100 74 -149 22 -79 42
-123 71 -154 18 -20 18 -24 5 -50 -8 -16 -27 -40 -42 -54 -33 -31 -65 -91 -65
-124 0 -17 -7 -26 -24 -30 -17 -4 -38 -30 -72 -92 -54 -95 -123 -185 -171
-221 l-31 -24 -21 47 c-15 33 -22 73 -24 134 -4 106 -28 156 -102 212 -44 33
-53 45 -73 109 -47 148 -57 244 -57 544 1 301 11 405 61 635 55 247 148 464
245 573 28 32 49 61 45 64 -8 8 -107 -79 -159 -140 -97 -115 -196 -291 -251
-446 -31 -87 -86 -296 -86 -328 0 -50 -16 -18 -33 64 -26 122 -97 333 -147
433 -63 127 -145 244 -226 326 -72 71 -114 103 -114 86z m-130 -434 c-59 -60
-111 -159 -142 -273 -21 -75 -22 -103 -24 -425 -1 -218 -6 -363 -13 -393 -27
-116 -71 -179 -148 -214 -64 -30 -76 -26 -31 9 63 49 118 109 118 130 0 4 -19
-1 -42 -13 -22 -11 -59 -27 -82 -35 l-41 -14 35 31 c80 72 141 132 137 135 -2
2 -35 -10 -73 -26 -91 -39 -120 -40 -68 -2 60 44 140 119 133 126 -3 3 -45
-10 -93 -30 -49 -19 -90 -33 -92 -31 -3 2 38 39 91 83 81 67 108 94 91 94 -2
0 -36 -14 -77 -30 -40 -17 -77 -29 -82 -27 -6 2 31 38 82 81 50 44 90 80 88
82 -1 2 -23 -3 -47 -10 -124 -36 -130 -29 -28 39 40 27 68 50 62 52 -6 2 -40
-3 -77 -11 -37 -7 -67 -10 -67 -6 0 4 34 29 75 55 41 25 75 51 75 56 0 6 -23
7 -60 3 -33 -4 -60 -4 -60 -1 0 3 29 22 65 42 36 20 65 39 65 42 0 3 -18 3
-40 -1 -24 -4 -40 -2 -40 4 0 5 27 29 61 52 l61 43 -41 3 c-23 2 -41 7 -41 11
0 5 21 21 46 37 l46 29 -31 9 c-40 11 -39 19 3 46 21 12 33 27 30 34 -14 36
89 179 170 238 60 43 63 34 6 -24z m519 -289 c66 -321 72 -802 12 -994 -14
-44 -13 -21 3 96 39 278 24 634 -41 971 -3 18 -3 30 0 27 4 -3 15 -48 26 -100z
m1088 -77 c120 -198 240 -429 270 -520 50 -153 36 -327 -31 -395 -20 -20 -76
-22 -142 -6 -44 11 -60 29 -25 29 10 0 50 10 87 21 l69 22 -75 16 c-41 10 -86
23 -100 31 l-25 14 30 7 c17 3 56 12 88 18 64 14 76 31 22 31 -35 0 -153 35
-168 49 -5 5 11 11 35 15 81 12 148 29 148 38 0 4 -8 8 -17 8 -29 1 -143 44
-145 55 -2 6 29 12 69 16 72 5 99 14 72 23 -82 29 -128 48 -144 60 -18 13 -13
15 50 21 64 7 128 23 97 24 -7 1 -50 15 -95 33 -77 30 -80 33 -52 39 17 4 47
7 68 8 20 0 37 5 37 9 0 5 -29 21 -65 37 -36 15 -65 31 -65 35 0 4 21 11 46
15 55 8 50 14 -34 45 -51 18 -60 25 -47 33 9 5 36 7 61 5 24 -2 44 0 44 4 0
11 -73 63 -110 78 -32 13 -42 35 -12 27 88 -24 94 -14 23 40 -54 41 -63 54
-31 46 29 -8 25 6 -12 44 -18 18 -26 33 -19 33 10 0 9 6 -3 25 -9 13 -16 28
-16 32 1 16 48 -51 117 -165z m-836 6 c-31 -185 -41 -312 -41 -508 0 -288 49
-576 123 -720 18 -36 59 -114 90 -174 96 -184 128 -326 97 -438 -15 -51 -88
-129 -158 -166 -145 -77 -318 -81 -467 -11 -65 31 -149 111 -170 162 -27 65
-23 174 9 272 36 107 189 399 162 309 -5 -17 1 -28 25 -48 17 -15 29 -29 26
-33 -3 -3 -26 -8 -52 -10 -25 -3 -45 -10 -45 -15 0 -5 16 -18 35 -29 19 -12
35 -23 35 -26 0 -3 -22 -3 -50 0 -27 3 -50 3 -50 0 0 -3 19 -24 43 -46 l42
-40 -60 6 -60 7 48 -45 c27 -25 55 -45 63 -45 8 0 14 -4 14 -10 0 -11 -51 -3
-97 16 -50 20 -42 -2 24 -65 62 -58 51 -63 -34 -16 -24 13 -43 20 -43 16 0
-10 35 -57 74 -98 36 -40 31 -41 -34 -8 -28 14 -50 21 -50 17 0 -17 59 -90 95
-117 48 -37 37 -43 -21 -11 -26 14 -49 24 -52 22 -9 -10 60 -85 110 -119 117
-79 280 -89 406 -26 84 43 94 63 20 43 -60 -16 -144 -19 -152 -5 -4 5 8 13 26
16 44 10 153 60 162 74 6 9 0 10 -21 4 -43 -12 -190 -10 -203 3 -9 9 6 15 57
23 37 7 93 24 123 39 l55 26 -95 6 c-52 3 -104 11 -115 17 -18 11 -18 12 10
18 93 20 121 28 149 43 l31 17 -70 2 c-91 4 -137 12 -130 24 4 5 17 9 30 9 32
0 135 39 135 51 0 5 -36 9 -79 9 -44 0 -82 4 -85 9 -4 5 18 17 47 26 28 9 63
25 77 35 l25 20 -60 0 c-101 1 -141 21 -68 35 43 8 93 32 93 44 0 5 -19 11
-41 14 -61 8 -71 25 -21 33 23 4 42 10 42 13 0 4 -17 16 -37 26 l-38 19 28 4
c16 2 27 6 25 10 -52 97 -52 98 -56 317 -6 328 25 709 79 962 31 143 31 144
36 139 2 -2 -5 -60 -16 -128z m-666 -86 c-20 -89 -64 -217 -106 -309 -25 -55
-32 -63 -56 -63 l-28 1 33 27 c34 28 43 48 17 38 -8 -3 -22 -3 -30 1 -12 4 -2
15 35 40 27 18 50 35 50 37 0 2 -20 1 -45 -2 -25 -2 -45 -2 -45 1 0 3 27 20
60 38 33 17 60 35 60 40 0 4 -17 9 -37 11 l-38 3 55 40 c38 28 49 41 37 43 -9
2 -17 6 -17 8 0 14 66 141 68 133 2 -5 -4 -44 -13 -87z m1362 17 c11 -40 17
-135 23 -364 8 -305 17 -383 50 -445 14 -27 12 -34 -6 -19 -20 17 -58 92 -75
149 -10 34 -14 134 -14 392 0 190 1 345 3 343 2 -2 10 -27 19 -56z m-1968
-279 c-82 -191 -114 -359 -90 -484 6 -33 9 -61 7 -64 -14 -13 -39 84 -43 163
-5 98 9 172 54 280 29 71 103 208 109 202 2 -2 -14 -46 -37 -97z m304 -732
c41 -50 44 -65 22 -107 -17 -33 -93 -74 -127 -69 -20 3 -18 6 17 25 22 11 49
31 60 43 l20 23 -25 -6 c-14 -3 -47 -8 -75 -12 l-50 -7 53 31 c28 17 52 34 52
37 0 4 -27 4 -60 0 -65 -8 -79 4 -30 24 16 7 35 18 41 26 10 12 1 14 -52 14
-71 0 -109 8 -109 21 0 5 19 9 43 9 23 1 65 9 92 19 57 20 47 25 128 -71z
m2031 40 c17 -63 1 -140 -41 -195 -18 -25 -31 -33 -56 -33 -18 0 -39 4 -47 10
-17 11 -9 14 52 25 49 8 59 25 15 25 -40 0 -97 18 -97 31 0 5 19 9 43 9 53 0
88 10 81 21 -3 5 -16 9 -30 9 -14 0 -41 7 -62 17 l-37 16 53 9 c30 4 61 12 70
18 14 7 11 10 -18 16 l-35 7 40 18 c53 23 62 23 69 -3z m-1870 -297 c67 -100
171 -218 210 -239 12 -6 17 -15 13 -26 -5 -12 -20 -16 -63 -16 l-57 0 19 21
19 21 -60 -7 c-56 -6 -59 -5 -40 10 11 9 27 20 35 25 28 16 1 23 -44 11 -52
-13 -86 -14 -86 -3 0 4 19 20 43 35 l42 28 -72 -4 c-40 -2 -73 -3 -73 -2 0 1
18 14 40 29 49 32 52 48 8 35 -18 -5 -48 -9 -67 -9 l-35 0 42 31 c23 17 42 34
42 39 0 4 -28 1 -61 -7 -34 -8 -64 -11 -67 -8 -4 3 9 18 27 32 28 22 31 28 17
33 -13 4 -6 13 31 42 27 21 52 36 58 34 5 -1 41 -49 79 -105z m1662 24 c79
-12 80 -14 31 -81 -80 -108 -197 -193 -364 -264 -43 -18 -92 -39 -110 -46 -37
-17 -53 -18 -53 -4 0 6 9 10 19 10 36 0 53 11 40 26 -9 12 -3 14 35 14 46 0
61 15 29 28 -12 4 7 10 52 17 68 11 69 12 43 25 -40 19 -35 26 17 22 72 -6 88
6 37 28 -23 10 -42 21 -42 22 0 2 30 2 68 0 l67 -3 -45 23 -45 23 75 5 75 5
-43 19 c-64 29 -60 36 18 29 38 -3 70 -3 70 0 0 4 -22 18 -50 32 -27 14 -50
27 -50 29 0 2 29 1 65 -2 36 -2 65 -2 65 1 0 4 -18 16 -40 27 -38 19 -56 38
-26 27 7 -3 35 -9 62 -12z m-1899 -135 c52 -50 130 -115 174 -146 43 -31 79
-58 79 -60 0 -14 -184 93 -245 141 -66 53 -135 127 -135 146 0 27 43 -1 127
-81z m597 -585 c31 -21 56 -40 56 -43 0 -10 -84 10 -121 28 -21 11 -39 16 -39
11 0 -21 81 -110 129 -140 28 -18 51 -35 51 -38 0 -10 -93 9 -137 28 -24 10
-50 19 -56 19 -23 0 68 -80 127 -111 33 -18 56 -34 50 -36 -5 -2 -43 5 -84 16
-41 10 -77 17 -79 15 -10 -10 66 -75 122 -105 34 -18 57 -34 51 -36 -5 -2 -42
3 -82 10 -40 8 -72 11 -72 7 0 -16 61 -62 120 -89 62 -29 63 -30 30 -30 -19 0
-59 8 -87 18 -29 10 -53 15 -53 11 0 -13 57 -60 110 -90 l55 -32 -42 6 c-23 3
-50 9 -60 13 -17 6 -16 5 2 -16 29 -34 122 -77 193 -91 105 -21 312 1 312 32
0 4 -33 9 -72 9 -131 2 -160 20 -58 33 58 8 141 36 136 45 -3 4 -24 8 -48 9
-57 3 -158 23 -158 31 0 4 34 12 75 18 41 7 87 19 101 26 25 13 22 15 -64 26
-50 6 -102 15 -114 20 -20 7 -16 10 27 16 70 9 185 44 185 55 0 6 -19 10 -43
10 -42 0 -142 15 -182 27 -12 4 11 11 61 18 81 12 174 41 174 55 0 4 -44 10
-98 13 -148 9 -181 28 -71 41 25 3 73 15 105 28 l59 22 -90 14 c-94 14 -135
32 -74 32 60 0 172 29 235 60 35 17 81 51 108 79 28 31 46 44 46 34 0 -31 -45
-106 -84 -139 -47 -40 -33 -44 51 -14 31 11 58 18 61 16 8 -9 -59 -82 -108
-120 -28 -21 -49 -40 -47 -43 4 -3 80 11 120 23 37 11 14 -16 -60 -72 -43 -32
-80 -60 -82 -61 -25 -17 83 1 133 22 35 15 -1 -32 -64 -83 -65 -51 -60 -64 15
-38 25 8 45 11 45 6 0 -8 -64 -62 -116 -98 -17 -11 -15 -12 16 -8 19 2 44 8
55 12 18 7 19 6 5 -11 -8 -10 -32 -31 -53 -46 l-38 -28 28 -3 c28 -3 27 -3
-17 -30 -180 -106 -440 -97 -595 20 -62 47 -118 151 -140 264 -23 120 -18 379
11 467 3 9 17 -3 38 -31 19 -24 59 -62 90 -83z m-572 -164 c116 -32 276 -56
319 -47 21 4 29 2 29 -9 0 -34 -124 -32 -331 6 -114 22 -122 22 -134 6 -25
-35 -28 -17 -8 56 6 22 5 22 125 -12z m1906 -13 c12 -48 7 -62 -14 -34 -14 19
-16 19 -134 -3 -200 -37 -330 -40 -330 -8 0 8 25 12 78 13 82 2 199 23 297 53
87 28 91 27 103 -21z m-1524 -223 c3 -9 0 -17 -7 -20 -6 -2 -55 -15 -107 -30
-91 -25 -249 -79 -326 -111 -32 -13 -36 -19 -32 -45 5 -33 -7 -40 -17 -9 -4
11 -17 28 -31 36 -13 9 -24 20 -24 24 0 15 234 98 400 141 125 32 136 34 144
14z m1151 -15 c141 -34 365 -110 403 -135 3 -3 -68 -75 -74 -75 -2 0 -2 11 2
23 5 21 -1 27 -48 47 -76 33 -293 105 -361 120 -59 14 -73 22 -62 40 8 13 4
14 140 -20z m-925 -305 c18 -10 49 -23 69 -30 l36 -14 -50 0 c-28 -1 -65 3
-83 8 -17 5 -32 6 -32 1 0 -7 31 -24 130 -68 l25 -11 -30 0 c-16 0 -47 3 -67
8 -47 11 -48 2 -5 -24 29 -18 51 -20 277 -20 226 0 248 2 278 20 42 26 41 35
-5 24 -48 -11 -93 -11 -93 -1 0 5 24 18 54 31 30 12 62 31 72 42 19 21 18 21
-21 14 l-40 -7 50 30 c28 17 63 44 79 61 16 16 33 28 38 25 4 -3 8 -33 8 -68
0 -54 -4 -69 -30 -104 -16 -22 -51 -53 -77 -69 l-48 -28 -235 -1 c-261 -2
-298 3 -363 57 -49 40 -70 82 -71 144 -1 77 9 82 59 36 23 -21 57 -47 75 -56z
m-59 -196 c51 -29 52 -30 19 -25 -46 8 -29 -8 36 -35 l49 -20 -52 4 c-59 4
-67 -3 -25 -23 20 -10 99 -13 310 -15 274 -1 357 5 253 19 -64 8 -77 26 -19
26 24 0 50 5 58 10 11 7 3 10 -30 10 -52 1 -39 13 25 24 22 4 57 18 77 32 21
13 40 24 43 24 3 0 5 -16 5 -35 0 -55 -25 -94 -75 -116 -40 -18 -66 -19 -347
-16 -327 2 -344 5 -382 59 -17 23 -22 108 -8 108 5 0 33 -14 63 -31z m-16
-173 c22 -8 54 -18 70 -22 l30 -7 -35 -8 c-19 -4 -43 -6 -52 -3 -10 3 -18 3
-18 -1 0 -11 69 -35 102 -35 25 0 29 -3 18 -10 -8 -5 -33 -10 -54 -10 -31 0
-37 -3 -28 -12 16 -16 99 -13 190 6 99 21 183 20 277 -4 82 -21 150 -26 159
-11 3 4 -21 14 -55 21 -71 15 -87 30 -24 23 49 -6 95 2 95 17 0 6 -12 10 -26
10 -37 0 -114 21 -114 31 0 5 24 7 53 3 28 -3 72 -1 97 6 76 19 75 19 73 -24
-2 -21 -12 -53 -23 -71 -37 -60 -87 -66 -245 -31 -95 21 -168 20 -288 -5 -152
-31 -209 -16 -242 64 -16 39 -20 87 -8 87 4 0 25 -6 48 -14z m648 -201 l77 0
0 -30 c0 -40 -32 -90 -69 -110 -40 -20 -83 -19 -161 6 -83 26 -181 26 -290 0
-66 -16 -93 -18 -121 -11 -49 14 -99 70 -99 113 l0 32 94 0 c52 0 91 -4 87 -8
-4 -4 -30 -16 -57 -26 -47 -19 -48 -19 -21 -26 15 -4 39 -5 52 -3 42 8 28 -10
-17 -23 -24 -7 -47 -16 -52 -21 -16 -14 106 -9 164 7 76 20 182 19 265 -4 38
-11 71 -18 73 -16 2 1 -25 22 -60 45 l-63 42 70 -7 c77 -8 78 -4 8 32 l-48 24
45 -8 c25 -4 80 -8 123 -8z m-443 -199 c0 -2 -15 -13 -32 -25 l-33 -21 40 0
40 0 -31 -19 c-38 -23 -57 -48 -28 -37 99 38 219 45 319 17 38 -11 71 -18 73
-16 2 1 -9 12 -23 23 l-26 21 28 3 28 3 -38 24 c-21 13 -36 25 -34 28 3 2 25
-1 50 -8 26 -6 64 -9 87 -7 22 2 40 0 40 -5 0 -18 -33 -83 -52 -104 -27 -29
-45 -29 -143 3 -95 31 -139 28 -256 -13 l-78 -28 -26 25 c-28 26 -65 90 -65
112 0 9 13 12 43 10 34 -3 77 4 115 17 1 1 2 -1 2 -3z m551 -69 c77 -65 136
-186 123 -254 -8 -44 -18 -42 -38 11 -16 43 -72 133 -116 187 -16 18 -19 33
-15 52 9 32 12 33 46 4z m-275 -108 c37 -11 78 -27 90 -35 71 -47 109 -316 57
-404 -38 -65 -173 -107 -316 -98 -147 10 -238 68 -253 164 -22 151 44 355 114
354 13 -1 9 -7 -13 -25 -28 -24 -29 -25 -7 -25 12 0 22 -4 22 -9 0 -5 -10 -13
-22 -17 -13 -3 -29 -12 -37 -18 -11 -9 -8 -12 20 -17 l34 -6 -37 -16 c-21 -10
-38 -21 -38 -25 0 -4 20 -13 46 -20 53 -14 50 -32 -7 -32 -21 0 -39 -4 -39 -9
0 -4 20 -19 45 -32 25 -13 45 -27 45 -31 0 -5 -23 -8 -51 -8 -56 0 -57 -9 -2
-36 l38 -19 -40 -5 -40 -6 50 -26 50 -27 -42 -1 c-24 0 -43 -4 -43 -9 0 -16
114 -60 184 -71 113 -18 231 7 137 30 -28 6 -51 16 -51 20 0 4 30 12 68 17 71
10 70 12 -22 38 -32 9 -56 19 -53 21 6 6 65 12 137 15 51 1 51 1 -82 34 -38
10 -68 21 -68 25 0 4 37 11 83 15 45 4 91 11 102 15 17 6 14 8 -15 14 -207 40
-216 49 -66 61 98 8 97 13 -8 40 -80 22 -69 33 34 35 58 1 63 2 47 15 -10 7
-51 19 -90 25 -86 14 -102 19 -94 26 7 8 127 8 168 0 31 -6 32 -6 16 8 -20 16
-117 42 -191 51 -35 5 -45 9 -35 16 24 15 104 10 175 -12z m229 -26 c69 -90
123 -233 109 -287 -6 -25 -54 -77 -54 -59 0 6 7 16 15 23 29 24 18 39 -22 33
l-38 -6 34 37 35 36 -40 0 -39 1 35 29 34 30 -36 0 c-47 0 -55 13 -23 38 33
26 32 32 -5 32 -29 0 -40 13 -20 25 17 10 11 25 -10 25 -23 0 -26 10 -8 28 9
9 7 12 -9 12 -28 0 -38 17 -23 35 19 23 26 19 65 -32z"/>
</g>
</svg>
