<?xml version="1.0" standalone="no"?>
<!DOCTYPE svg PUBLIC "-//W3C//DTD SVG 20010904//EN"
 "http://www.w3.org/TR/2001/REC-SVG-20010904/DTD/svg10.dtd">
<svg version="1.0" xmlns="http://www.w3.org/2000/svg"
 width="522.000000pt" height="478.000000pt" viewBox="0 0 522.000000 478.000000"
 preserveAspectRatio="xMidYMid meet">
<metadata>
Created by potrace 1.16, written by Peter Selinger 2001-2019
</metadata>
<g transform="translate(0.000000,478.000000) scale(0.100000,-0.100000)"
fill="#f1c88e" stroke="none">
<path d="M2626 4169 c-288 -30 -570 -174 -806 -409 -144 -143 -289 -354 -320
-464 -8 -29 -19 -48 -32 -52 -24 -7 -88 -63 -88 -76 0 -6 9 -8 20 -5 11 3 20
2 19 -1 -1 -7 -128 -121 -164 -147 -19 -13 -18 -14 18 -15 l38 0 -62 -75 c-34
-42 -78 -89 -98 -105 l-36 -29 40 6 c26 4 36 2 30 -4 -19 -18 -130 -99 -230
-168 -133 -91 -150 -107 -197 -193 -39 -71 -44 -75 -114 -108 -40 -20 -76 -43
-79 -53 -7 -24 9 -65 37 -93 20 -20 23 -33 23 -103 0 -95 14 -127 85 -200 27
-27 71 -73 97 -101 46 -48 90 -72 165 -88 20 -5 28 -13 28 -27 0 -32 26 -75
89 -144 72 -79 100 -134 114 -225 l11 -70 28 27 c15 15 28 21 28 14 0 -18 19
-3 41 33 15 25 19 27 19 11 0 -15 7 -9 27 20 14 22 28 42 30 44 2 3 9 -3 16
-13 11 -15 15 -7 30 53 23 88 43 106 34 31 l-6 -53 25 24 c14 13 41 55 60 94
l36 70 -6 -53 c-4 -39 -2 -52 7 -49 20 6 86 99 101 142 l14 40 1 -43 c1 -38 3
-41 19 -31 10 6 34 33 53 60 35 50 49 59 49 34 0 -22 18 -18 32 6 14 22 145
105 154 97 2 -3 -39 -39 -93 -80 -96 -74 -253 -228 -253 -248 0 -6 25 4 56 22
49 27 55 29 45 11 -10 -20 -122 -110 -148 -120 -28 -11 -1 -20 34 -12 75 17
68 5 -31 -58 -80 -51 -141 -105 -162 -145 -21 -41 -17 -43 21 -10 39 35 108
77 145 87 19 6 7 -10 -46 -63 -39 -38 -88 -96 -110 -128 -46 -70 -100 -193
-109 -249 l-7 -40 27 38 c15 21 29 37 31 34 3 -2 -7 -44 -22 -93 -19 -65 -27
-118 -30 -194 -3 -83 -1 -97 6 -65 15 62 41 125 51 125 5 0 9 -33 9 -72 0 -73
13 -172 30 -239 l10 -36 73 38 c244 127 501 185 941 209 547 30 926 161 1166
401 125 125 211 339 211 527 0 58 4 92 10 92 16 0 1 108 -26 185 -5 14 1 11
19 -10 l26 -30 0 27 c0 55 -24 136 -71 240 -27 59 -49 111 -49 114 0 15 53
-42 83 -89 17 -27 33 -43 35 -37 6 18 -26 96 -89 216 -67 127 -75 158 -23 90
20 -26 38 -45 41 -43 7 8 -26 124 -52 183 -13 29 -37 74 -54 98 l-31 45 37 -5
c21 -2 33 -2 26 1 -6 3 -68 66 -138 140 -101 107 -120 132 -96 124 17 -6 35
-9 41 -7 18 6 -159 156 -216 184 -30 15 -54 30 -54 35 0 5 11 35 24 67 36 87
51 172 36 216 -6 20 -15 36 -20 36 -4 0 -32 -11 -62 -25 -80 -37 -223 -52
-342 -37 -154 19 -157 25 -42 94 236 143 460 128 666 -43 181 -150 341 -455
417 -793 20 -90 26 -149 30 -306 l5 -194 25 29 c54 67 109 210 132 350 24 142
25 142 53 28 25 -102 34 -301 19 -433 -24 -216 -100 -486 -200 -710 -28 -63
-48 -116 -46 -119 10 -9 121 75 204 154 267 254 411 617 412 1040 0 173 -12
286 -46 436 -139 605 -535 1064 -1075 1243 -58 20 -144 51 -191 70 -118 48
-264 83 -394 96 -121 11 -135 11 -249 -1z m-211 -158 c22 -10 46 -25 54 -35
12 -14 7 -13 -30 4 -67 30 -76 24 -29 -21 23 -22 39 -43 36 -46 -3 -4 -14 1
-23 9 -24 21 -79 48 -96 48 -9 0 -2 -13 18 -34 18 -19 35 -46 37 -60 5 -25 3
-24 -37 13 -24 22 -57 47 -74 55 -43 23 -39 42 14 70 39 21 81 20 130 -3z
m558 -73 c9 -5 17 -13 17 -17 0 -5 33 -34 74 -65 70 -52 156 -139 156 -157 0
-4 -22 13 -49 39 -26 26 -63 56 -82 66 l-34 19 37 -39 c38 -40 68 -99 68 -131
-1 -10 -11 2 -23 27 -24 50 -77 106 -128 134 -34 20 -33 19 14 -33 46 -52 85
-143 74 -174 -2 -6 -9 7 -16 30 -16 59 -89 135 -187 195 -47 28 -90 58 -96 65
-15 19 0 45 33 55 28 8 116 0 142 -14z m207 6 c30 -9 60 -24 66 -33 7 -9 44
-49 83 -89 65 -66 119 -147 108 -158 -3 -3 -14 10 -25 28 -25 40 -92 106 -92
91 0 -7 5 -15 10 -18 16 -10 50 -82 50 -107 0 -15 -7 -7 -25 28 -25 51 -96
130 -80 89 31 -79 36 -105 33 -158 -6 -80 -25 -95 -25 -19 0 40 -7 73 -22 105
-21 44 -42 65 -169 175 -34 29 -62 60 -62 68 0 20 81 19 150 -2z m-954 -20
c39 -16 107 -64 101 -71 -2 -2 -29 8 -61 22 -31 14 -67 25 -79 25 -20 0 -19
-2 9 -19 29 -18 78 -70 71 -77 -1 -2 -25 8 -52 21 -28 13 -61 27 -74 31 -23 6
-22 4 11 -35 41 -48 57 -86 29 -72 -9 5 -24 18 -34 29 -10 10 -35 27 -57 37
-22 10 -40 24 -40 31 0 23 51 74 83 83 45 13 50 13 93 -5z m1181 -16 c102 -38
228 -182 248 -283 5 -26 3 -25 -15 11 -12 23 -32 52 -45 64 l-25 23 16 -46 c8
-25 14 -60 12 -79 l-4 -33 -12 40 c-6 22 -23 58 -36 80 l-25 40 6 -61 c4 -41
0 -78 -11 -117 -18 -62 -44 -94 -30 -36 16 62 10 141 -15 191 -13 25 -59 81
-102 124 -44 43 -79 84 -79 91 0 20 51 16 117 -9z m-637 -27 c8 -10 53 -44
100 -74 76 -49 155 -117 136 -117 -4 0 -24 13 -44 29 -38 30 -161 95 -168 89
-2 -2 26 -25 61 -50 35 -26 71 -62 81 -80 l17 -33 -41 37 c-40 36 -96 69 -150
88 -23 9 -21 5 13 -22 102 -82 152 -156 142 -210 -3 -22 -4 -22 -11 -3 -21 57
-54 110 -83 134 -18 14 -86 53 -150 86 -102 52 -118 64 -121 87 -2 20 3 30 20
39 63 34 171 34 198 0z m946 -124 c100 -91 181 -246 157 -300 -8 -18 -11 -14
-17 28 -4 28 -13 61 -21 75 -14 24 -14 22 -15 -32 0 -31 -4 -60 -10 -63 -6 -4
-10 11 -10 37 0 24 -9 61 -19 83 l-19 40 -1 -55 c-1 -70 -16 -122 -42 -152
-18 -20 -20 -21 -14 -3 32 91 26 154 -24 253 -28 56 -106 163 -123 170 -4 2
-6 8 -2 13 8 14 101 -40 160 -94z m-1169 33 c19 -17 69 -48 111 -69 98 -50
136 -79 59 -46 -81 35 -101 31 -42 -9 92 -62 94 -78 5 -34 -44 22 -83 38 -86
35 -3 -3 8 -13 26 -22 47 -25 109 -84 131 -126 29 -59 23 -69 -11 -16 -42 67
-103 102 -221 128 -111 25 -154 46 -171 85 -11 24 -10 29 20 54 66 55 131 62
179 20z m-472 -9 c22 -10 47 -26 55 -36 14 -17 14 -17 -15 -2 -17 8 -49 18
-70 21 -35 6 -37 5 -21 -6 65 -45 76 -69 22 -48 -15 5 -39 10 -54 10 l-27 -1
30 -22 c39 -28 75 -67 75 -80 0 -6 -8 -3 -18 6 -25 23 -100 54 -149 62 -49 8
-53 20 -21 60 42 54 121 69 193 36z m257 -105 c30 -37 69 -53 200 -81 43 -9
88 -25 100 -36 23 -19 23 -19 -20 -4 -24 8 -73 17 -110 20 l-67 5 60 -22 c33
-13 69 -29 80 -36 18 -12 17 -13 -10 -7 -129 28 -218 32 -130 6 33 -10 72 -23
86 -29 32 -13 86 -58 100 -83 8 -16 4 -15 -26 5 -42 29 -67 37 -197 66 -109
24 -155 49 -180 99 -22 45 -6 89 43 113 18 10 36 18 39 18 3 0 17 -15 32 -34z
m1555 -13 c139 -92 211 -287 152 -411 -20 -40 -68 -82 -95 -82 -7 0 3 15 21
33 41 41 59 104 51 176 -9 77 -25 100 -26 36 0 -32 -7 -62 -20 -82 -21 -34
-37 -46 -22 -15 16 29 22 86 14 117 -8 30 -8 30 -20 -17 -11 -43 -63 -118 -82
-118 -4 0 3 21 16 47 19 36 24 63 24 117 0 62 -5 81 -37 146 -21 41 -39 78
-41 83 -7 14 11 6 65 -30z m-1971 -24 c68 -17 61 -27 -15 -21 -78 5 -107 -12
-37 -22 24 -4 52 -13 62 -21 17 -13 13 -14 -33 -8 -28 3 -64 2 -79 -1 -27 -7
-26 -8 24 -25 45 -16 108 -58 99 -67 -2 -2 -27 5 -55 16 -31 12 -77 20 -112
20 -35 0 -60 4 -60 10 0 35 56 101 100 119 33 13 53 13 106 0z m299 -125 c40
-41 88 -59 210 -80 l40 -7 -30 -9 c-35 -10 -121 -2 -176 17 -65 23 -44 -2 34
-39 71 -35 71 -36 34 -36 -21 0 -63 9 -94 20 -31 11 -59 17 -62 14 -14 -14 49
-46 143 -75 105 -33 172 -64 180 -84 2 -7 -11 -4 -32 7 -21 9 -75 27 -122 38
-139 34 -210 60 -246 92 -62 55 -54 121 23 188 35 31 38 32 48 14 5 -10 28
-37 50 -60z m1989 -188 c47 -95 44 -169 -10 -251 -27 -42 -102 -105 -124 -105
-8 0 5 16 27 35 51 43 93 125 93 179 l0 41 -21 -43 c-22 -43 -71 -85 -54 -46
25 60 36 100 32 123 -3 24 -4 24 -12 6 -9 -23 -75 -95 -87 -95 -4 0 4 16 17
36 36 53 48 109 41 189 l-6 70 40 -44 c22 -23 51 -66 64 -95z m-2184 69 c0
-22 50 -74 89 -94 20 -10 67 -26 104 -36 37 -10 70 -22 73 -27 3 -4 2 -8 -3
-8 -19 1 -150 21 -168 26 -14 5 -17 3 -10 -5 6 -6 47 -24 90 -40 76 -29 78
-30 40 -30 -22 -1 -71 6 -109 14 -38 8 -71 13 -73 11 -10 -10 138 -96 166 -96
5 0 13 -5 17 -11 10 -17 -70 -3 -156 26 -39 13 -70 20 -70 15 0 -17 91 -68
162 -91 62 -20 69 -24 48 -30 -14 -4 -51 -7 -84 -8 -51 -1 -57 -3 -46 -16 21
-26 117 -48 178 -42 72 8 57 -7 -38 -37 -48 -16 -66 -25 -55 -30 24 -9 153 -7
198 3 39 9 50 -2 25 -27 -6 -6 -9 -15 -5 -19 4 -3 24 13 45 37 177 209 263
250 522 250 87 0 168 6 203 14 l59 14 -7 -37 c-10 -54 -70 -178 -116 -238 -52
-70 -142 -135 -221 -163 -75 -25 -215 -36 -278 -22 -24 6 -46 9 -48 7 -2 -2
28 -20 68 -40 40 -20 70 -38 67 -41 -2 -3 -24 0 -48 5 -24 6 -60 11 -79 11
l-35 0 37 -33 c37 -32 88 -101 88 -119 0 -6 -22 10 -50 35 -44 39 -149 100
-159 91 -2 -1 13 -23 33 -47 39 -48 70 -113 79 -167 l6 -35 -17 25 c-23 33
-93 110 -101 110 -3 0 -4 -22 -3 -49 2 -26 2 -59 0 -72 -4 -22 -6 -20 -21 16
-20 45 -59 105 -68 105 -4 0 -3 -17 2 -37 5 -21 8 -56 8 -78 0 -44 -1 -43 -49
35 -13 22 -26 40 -30 40 -3 0 -4 -34 -2 -76 2 -46 -1 -81 -7 -87 -8 -8 -11 -6
-11 7 0 18 -44 113 -60 130 -5 5 -6 -15 -3 -47 7 -64 -4 -150 -18 -142 -5 4
-9 17 -9 31 0 30 -39 124 -51 124 -5 0 -9 -45 -9 -100 0 -60 -4 -100 -10 -100
-5 0 -10 9 -10 21 0 24 -39 119 -50 119 -4 0 -10 -29 -13 -65 -5 -55 -37 -155
-49 -155 -2 0 -4 24 -4 53 1 28 -6 68 -14 87 l-15 35 -6 -56 c-3 -31 -19 -82
-34 -115 l-28 -59 -8 62 c-12 98 -23 107 -44 37 -18 -64 -73 -174 -86 -174 -5
0 -4 12 1 26 6 14 10 53 10 86 l0 61 -30 -59 c-16 -32 -43 -75 -59 -94 l-30
-35 10 38 c6 21 9 52 7 70 l-3 32 -19 -35 c-28 -54 -63 -96 -98 -121 l-31 -23
7 27 c3 15 3 27 -1 27 -5 0 -32 -21 -61 -46 -35 -30 -52 -40 -52 -30 0 24 -10
20 -52 -21 -39 -38 -53 -28 -22 15 41 59 -23 20 -68 -42 l-31 -41 7 35 6 35
-45 -47 c-42 -44 -45 -45 -45 -22 l0 25 -32 -24 c-18 -14 -44 -30 -57 -37 -21
-11 -23 -10 -18 4 5 14 2 15 -21 9 -44 -13 -127 -9 -155 6 -35 19 -34 28 6 36
17 3 120 49 227 101 215 104 248 115 273 89 10 -9 15 -21 12 -26 -4 -5 1 -9
10 -9 22 0 39 49 26 77 -26 58 -109 38 -344 -80 -167 -85 -182 -91 -242 -91
-53 -1 -67 3 -88 22 -56 52 -61 118 -12 141 17 8 64 37 105 65 57 38 84 50
112 50 42 1 58 21 34 44 -13 13 -26 12 -105 -7 -49 -11 -99 -21 -111 -21 -20
0 -80 26 -80 34 0 3 -3 11 -6 19 -3 10 3 17 20 21 42 10 86 56 121 125 39 79
44 83 209 196 164 112 225 161 306 244 36 37 76 74 90 83 l25 15 -35 -5 -35
-5 25 28 c14 15 45 38 70 51 l45 25 -47 -4 c-27 -3 -48 -1 -48 4 0 5 21 24 48
43 48 36 130 63 157 52 8 -3 15 -1 15 4 0 10 -39 30 -85 45 -37 12 32 39 103
40 34 0 62 3 62 7 0 3 -21 14 -47 24 -27 9 -52 20 -56 24 -16 14 59 20 113 10
29 -6 56 -7 59 -4 3 3 -7 17 -24 30 -29 23 -29 24 -7 24 41 0 87 -29 113 -71
48 -79 48 -79 49 -21 0 61 16 104 54 150 27 31 46 34 46 7z m2315 -236 c71
-130 28 -297 -90 -350 -49 -23 -82 -24 -40 -2 48 25 76 55 97 101 23 51 17 64
-15 35 -40 -36 -46 -34 -23 9 22 40 41 98 33 98 -2 0 -23 -18 -46 -41 -41 -39
-71 -48 -39 -12 31 35 60 106 65 159 4 32 11 54 18 54 6 0 24 -23 40 -51z
m104 -258 c17 -53 14 -137 -9 -180 -22 -44 -70 -88 -117 -108 -63 -26 -64 -12
-2 30 35 23 72 57 83 76 l19 33 -39 -25 c-21 -14 -50 -28 -64 -32 -20 -6 -15
1 23 35 58 52 65 82 10 46 -21 -13 -49 -27 -63 -30 l-25 -7 25 18 c52 36 100
95 117 143 19 53 24 53 42 1z m69 -318 c-4 -71 -22 -102 -84 -145 -42 -30
-134 -50 -134 -29 0 6 11 11 25 11 35 0 99 34 124 66 26 34 22 39 -15 19 -16
-8 -40 -15 -53 -15 -21 0 -20 3 17 30 35 25 72 70 58 70 -2 0 -23 -9 -47 -20
-68 -30 -79 -24 -24 14 28 19 63 48 80 65 28 30 30 31 43 14 9 -12 12 -38 10
-80z m-1088 -33 c98 -96 144 -177 155 -270 l7 -55 -46 90 c-50 100 -102 173
-204 285 -58 64 -62 71 -33 55 19 -11 74 -58 121 -105z m-102 -39 c131 -132
192 -261 191 -406 l0 -80 -28 85 c-53 158 -151 338 -250 459 -56 69 -5 35 87
-58z m-170 40 c108 -89 203 -253 247 -426 35 -136 29 -178 -8 -60 -53 167
-159 358 -261 472 -69 77 -60 82 22 14z m-146 -2 c122 -78 235 -244 279 -409
19 -71 39 -312 25 -299 -4 4 -18 48 -32 98 -64 234 -168 447 -286 584 -27 31
-46 57 -42 57 4 0 29 -14 56 -31z m49 -237 c102 -148 165 -332 175 -512 l5
-95 -28 70 -28 70 -6 -73 c-8 -86 -14 -97 -23 -45 -9 48 -45 161 -54 167 -4 2
-7 -53 -7 -122 0 -74 -5 -135 -12 -146 -9 -17 -12 -14 -18 25 -3 24 -11 60
-17 79 l-11 35 -19 -75 c-10 -41 -33 -104 -50 -140 l-33 -65 -3 53 c-2 28 -7
52 -11 52 -23 0 -134 -290 -146 -383 l-6 -42 18 31 c29 50 136 194 144 194 4
0 5 -39 3 -87 l-5 -88 58 110 58 110 3 -107 c1 -60 6 -108 10 -108 4 0 26 57
49 128 l42 127 -4 -120 c-4 -107 -3 -117 9 -94 20 36 96 257 96 280 0 31 17
22 24 -12 3 -17 6 -57 6 -88 1 -75 12 -54 50 95 17 65 32 120 34 122 6 6 26
-122 26 -166 0 -50 14 -55 29 -9 25 81 34 129 40 222 l6 100 23 -66 c12 -36
25 -96 29 -132 3 -37 9 -70 13 -72 11 -7 30 111 30 186 0 35 -4 91 -10 123 -5
33 -7 62 -5 64 9 9 65 -123 80 -188 l15 -65 -5 125 c-3 69 -8 139 -11 155 l-5
30 15 -25 c8 -14 23 -58 32 -97 10 -40 22 -73 27 -73 6 0 8 45 5 111 -5 126 1
123 39 -19 35 -130 39 -344 8 -467 l-20 -80 -5 142 c-3 78 -9 145 -12 148 -3
4 -9 -24 -12 -62 -21 -240 -50 -410 -87 -509 -12 -30 -23 -54 -25 -52 -2 3 3
36 10 74 22 107 26 311 6 299 -5 -3 -10 -21 -10 -38 -1 -18 -13 -70 -29 -117
l-27 -85 -6 88 c-3 49 -11 94 -17 100 -8 8 -11 1 -11 -26 0 -56 -27 -178 -66
-297 -41 -128 -73 -185 -44 -80 15 56 29 249 23 320 l-6 64 -19 -79 c-22 -97
-67 -233 -78 -240 -4 -2 -5 16 -2 40 7 68 -13 55 -32 -19 -23 -93 -75 -233
-92 -246 -10 -9 -8 3 6 46 27 78 60 243 59 291 -1 21 -3 29 -6 18 -10 -43 -56
-171 -64 -180 -5 -5 -9 7 -10 30 0 37 -3 32 -33 -50 -31 -87 -65 -160 -65
-140 0 6 6 39 14 75 8 36 14 106 14 155 l-1 90 -14 -55 c-8 -30 -25 -86 -37
-125 l-22 -70 -5 75 c-6 81 -9 79 -33 -20 -15 -65 -64 -187 -71 -179 -2 2 2
33 10 69 16 74 19 308 4 330 -8 12 -10 11 -10 -7 0 -26 -59 -197 -98 -283
l-29 -65 -7 60 c-4 33 -10 67 -13 75 -6 16 -51 -147 -52 -190 -1 -20 -3 -22
-11 -10 -5 8 -10 44 -10 80 -1 79 -12 67 -47 -50 -19 -66 -22 -71 -24 -40 -4
53 -2 96 5 156 4 37 3 53 -4 49 -19 -12 -60 -103 -74 -166 -8 -33 -18 -64 -22
-68 -16 -14 7 191 31 277 31 115 31 125 -1 87 -51 -60 -112 -203 -142 -330
l-9 -40 -8 29 c-7 27 4 124 21 186 l7 25 -26 -24 c-34 -31 -64 -97 -84 -184
l-17 -72 -8 49 c-14 79 7 181 67 331 8 20 8 20 -14 0 -33 -28 -109 -146 -127
-196 -9 -24 -22 -75 -29 -114 -12 -69 -13 -70 -25 -40 -12 30 -9 162 5 215 6
25 6 25 -10 5 -22 -26 -69 -128 -91 -199 -10 -31 -22 -56 -27 -56 -14 0 -1
183 17 245 8 28 17 61 21 75 8 24 7 24 -26 -7 -50 -47 -99 -134 -126 -221
l-24 -77 6 57 c15 158 145 426 305 628 19 24 20 24 20 3 0 -12 -7 -56 -15 -99
-8 -43 -13 -79 -11 -81 6 -6 143 210 204 322 112 206 199 426 217 549 4 33 10
45 15 36 18 -29 32 -188 28 -297 -3 -62 -2 -110 3 -108 14 9 49 129 60 210 11
85 6 182 -17 284 -8 35 -12 66 -10 68 7 8 56 -82 77 -141 10 -31 24 -80 31
-109 l11 -52 10 35 c12 47 2 169 -22 254 -18 65 -18 68 -1 50 30 -31 89 -157
105 -226 8 -34 18 -99 23 -143 l8 -80 13 75 c15 82 11 212 -9 295 -13 51 -85
209 -116 255 -11 15 -1 9 25 -15 54 -51 114 -143 157 -242 l34 -78 0 41 c0 62
-46 209 -91 294 l-41 75 42 -40 c22 -22 64 -73 91 -113z m1453 73 c8 -21 -11
-114 -29 -142 -27 -41 -111 -71 -155 -55 -23 8 -21 9 15 16 22 4 56 15 75 24
l35 16 -39 5 -39 6 38 25 c56 36 55 49 -2 43 l-48 -5 50 25 c28 13 56 31 64
40 17 21 27 21 35 2z m-4 -236 c0 -76 -68 -140 -146 -138 l-39 0 50 17 50 16
-35 4 c-39 4 -66 22 -34 22 10 1 30 7 44 15 l25 14 -30 1 c-56 1 -61 17 -8 29
27 7 62 21 79 31 39 27 44 25 44 -11z m-1950 -176 c0 -94 -21 -175 -70 -272
-38 -76 -153 -234 -205 -281 -25 -22 -27 -23 -22 -5 3 11 8 38 12 60 l7 40
-44 -40 c-103 -96 -118 -108 -118 -99 0 6 52 71 116 145 63 74 142 174 175
223 57 87 116 217 126 283 9 57 23 25 23 -54z m-152 -49 c-12 -38 -44 -100
-69 -139 -45 -66 -320 -368 -328 -360 -10 11 97 167 223 324 78 97 152 194
165 214 13 21 25 36 28 34 2 -2 -6 -35 -19 -73z m2072 39 c0 -39 -23 -96 -49
-125 -25 -28 -34 -32 -78 -31 -28 0 -59 6 -69 12 -16 8 -9 10 33 11 63 0 76
14 28 30 -42 14 -46 30 -7 31 15 0 36 4 47 9 l20 8 -20 7 c-71 24 -73 28 -12
36 32 3 64 12 70 18 17 17 37 13 37 -6z m-3201 -382 c39 -81 50 -121 34 -121
-5 0 -18 16 -31 36 -13 20 -26 34 -28 31 -3 -3 -1 -31 5 -62 7 -37 7 -63 1
-74 -8 -14 -9 -14 -10 2 0 33 -42 101 -100 162 -59 62 -80 93 -80 119 0 9 16
-1 41 -27 l40 -42 -6 35 c-4 19 -9 43 -11 53 -8 27 9 20 28 -12 9 -16 26 -34
37 -41 21 -10 21 -9 15 29 -9 57 6 90 17 36 4 -22 26 -78 48 -124z m776 -378
c-10 -27 -62 -133 -115 -238 -53 -104 -107 -225 -121 -267 -13 -43 -26 -78
-29 -78 -10 0 9 192 25 255 27 107 88 216 171 305 42 44 79 78 82 76 3 -3 -3
-27 -13 -53z m-332 -65 c-113 -152 -140 -222 -180 -463 l-6 -40 -7 30 c-36
147 31 346 158 473 35 35 66 61 69 58 3 -3 -12 -29 -34 -58z m108 -25 c-45
-92 -63 -154 -91 -327 -12 -71 -31 -159 -42 -195 -17 -55 -22 -62 -31 -46 -5
10 -12 63 -15 116 -7 152 31 286 119 417 28 41 88 112 95 112 2 0 -14 -35 -35
-77z"/>
<path d="M2785 3033 c-67 -8 -137 -35 -172 -66 -42 -37 -83 -118 -83 -164 0
-38 -2 -37 36 -19 24 12 44 13 109 4 70 -9 85 -8 120 7 l40 18 -43 8 c-78 15
-87 39 -14 39 48 0 140 21 112 26 -8 2 -32 5 -52 9 -50 8 -49 25 1 25 55 0
159 34 214 71 26 17 47 34 47 37 0 7 -264 11 -315 5z"/>
<path d="M1653 2964 c-7 -3 -13 -13 -13 -23 0 -25 -45 -112 -76 -144 -33 -36
-24 -45 24 -23 31 14 46 15 84 7 62 -14 134 1 187 40 26 19 53 29 75 29 82 0
67 14 -68 61 -141 50 -192 62 -213 53z"/>
<path d="M1882 2798 c-6 -6 -12 -20 -12 -30 0 -11 -7 -18 -20 -18 -25 0 -27
-37 -5 -102 18 -52 81 -132 70 -88 -45 172 -51 210 -25 158 14 -25 70 -88 80
-88 4 0 -2 28 -12 63 -11 34 -22 73 -26 87 -8 28 -31 37 -50 18z"/>
<path d="M1680 2731 c0 -7 -14 -9 -40 -5 -22 4 -40 4 -40 1 0 -19 52 -166 64
-182 14 -18 15 -13 16 65 l1 85 31 -65 c30 -61 32 -63 35 -35 2 17 0 55 -4 85
-7 50 -11 55 -36 58 -15 2 -27 -2 -27 -7z"/>
<path d="M2487 1498 c-41 -62 -81 -127 -90 -143 -16 -32 -47 -168 -47 -207 l0
-23 20 25 c26 34 113 202 139 268 23 57 62 192 56 192 -2 0 -37 -51 -78 -112z"/>
<path d="M2762 1533 c-55 -78 -116 -235 -127 -328 l-6 -50 25 30 c41 48 83
135 105 215 20 80 34 160 27 160 -3 0 -13 -12 -24 -27z"/>
<path d="M2584 1458 c-64 -116 -104 -236 -104 -312 l0 -41 26 39 c38 56 79
152 97 226 36 153 31 177 -19 88z"/>
</g>
</svg>
