<?xml version="1.0" standalone="no"?>
<!DOCTYPE svg PUBLIC "-//W3C//DTD SVG 20010904//EN"
 "http://www.w3.org/TR/2001/REC-SVG-20010904/DTD/svg10.dtd">
<svg version="1.0" xmlns="http://www.w3.org/2000/svg"
 width="522.000000pt" height="478.000000pt" viewBox="0 0 522.000000 478.000000"
 preserveAspectRatio="xMidYMid meet">
<metadata>
Created by potrace 1.16, written by Peter Selinger 2001-2019
</metadata>
<g transform="translate(0.000000,478.000000) scale(0.100000,-0.100000)"
fill="#f1c88e" stroke="none">
<path d="M1417 4294 c-3 -4 -44 -7 -90 -8 -57 -1 -92 -7 -108 -17 -13 -9 -54
-19 -91 -22 -73 -7 -111 -22 -143 -57 -11 -12 -38 -31 -60 -42 -87 -44 -135
-114 -135 -197 0 -27 5 -62 10 -77 8 -21 7 -31 -6 -46 -29 -31 -133 -77 -244
-107 -132 -36 -169 -51 -200 -86 -23 -25 -25 -33 -25 -133 0 -97 3 -112 28
-159 15 -29 27 -66 27 -83 0 -17 9 -48 19 -69 25 -48 151 -181 172 -181 9 0
22 -7 29 -15 7 -8 21 -15 32 -15 33 0 30 -26 -11 -92 -140 -223 -117 -468 69
-719 35 -46 92 -144 127 -219 74 -153 129 -242 196 -316 65 -72 89 -138 107
-307 13 -111 0 -288 -26 -378 -50 -167 -161 -302 -290 -352 -75 -29 -148 -84
-159 -118 -4 -12 -18 -37 -31 -56 -26 -39 -32 -98 -12 -126 12 -16 40 -17 313
-15 l300 3 60 91 c33 50 76 111 96 135 24 30 44 73 63 134 15 50 52 147 81
216 70 163 94 254 99 370 l4 94 89 11 c48 6 97 14 109 18 17 5 30 -3 62 -38
109 -118 119 -254 31 -433 -55 -114 -192 -237 -293 -264 -99 -27 -155 -79
-156 -144 -1 -16 -7 -41 -15 -55 -17 -29 -19 -93 -5 -121 10 -18 24 -19 319
-19 369 0 388 3 467 84 42 43 56 68 78 132 17 52 40 96 66 128 22 27 42 58 45
70 2 11 6 93 9 181 5 165 21 259 66 373 27 70 25 89 -11 148 -40 62 -89 164
-89 185 0 9 18 28 40 43 21 14 75 55 120 91 78 63 175 125 195 125 6 0 21 -32
35 -72 27 -79 101 -215 162 -296 22 -30 84 -100 137 -156 53 -56 105 -118 114
-139 40 -83 29 -193 -30 -313 -45 -92 -93 -138 -198 -189 -104 -51 -168 -111
-179 -167 -3 -18 -16 -52 -27 -76 -15 -31 -20 -55 -16 -83 9 -71 -2 -69 306
-69 l277 0 52 26 c61 30 106 79 139 152 27 59 38 119 51 292 7 83 17 136 37
190 15 41 36 99 47 129 10 29 19 79 19 111 1 61 -13 93 -87 210 -64 101 -80
224 -44 328 l12 33 44 -41 c55 -50 212 -153 323 -211 213 -111 288 -257 262
-510 -18 -179 -56 -227 -252 -322 -100 -48 -153 -94 -165 -145 -4 -15 -17 -40
-30 -55 -36 -43 -50 -99 -35 -147 l12 -40 332 0 c201 0 347 4 370 11 43 11
101 59 121 98 8 14 26 71 41 126 33 124 82 230 135 297 22 28 40 56 40 63 0 7
-15 44 -32 81 l-33 69 0 195 c0 218 -4 234 -70 284 -49 38 -149 166 -185 236
-45 90 -57 159 -64 360 -3 102 -13 223 -21 270 -8 47 -15 90 -15 96 0 7 33 13
88 17 140 9 288 69 409 167 151 122 203 304 140 491 -54 158 -151 276 -284
342 -119 61 -235 82 -518 95 -193 10 -230 21 -261 78 -21 38 -30 41 -55 18
-15 -13 -24 -14 -50 -5 -52 18 -175 13 -257 -10 -68 -19 -146 -22 -191 -8 -10
2 -17 -6 -20 -25 l-6 -28 -60 40 c-33 23 -63 38 -67 34 -11 -12 12 -125 36
-177 13 -27 36 -62 52 -77 171 -158 200 -173 339 -172 111 0 178 20 285 84
l55 33 145 0 c163 0 238 -14 355 -68 150 -69 219 -153 218 -266 -1 -45 -7 -69
-28 -104 -65 -112 -208 -157 -417 -132 -61 8 -72 13 -140 67 -91 74 -190 124
-298 151 -72 18 -103 21 -224 16 -176 -6 -269 -29 -526 -132 -102 -40 -216
-83 -254 -94 -163 -50 -353 -63 -508 -36 -99 17 -216 58 -181 63 21 3 20 6
-17 41 -50 47 -52 69 -4 36 39 -26 98 -33 110 -13 4 6 2 14 -5 16 -26 9 -73
56 -92 93 -21 43 -16 49 15 19 25 -23 96 -54 96 -42 0 5 -9 17 -21 28 -26 24
-44 59 -54 104 l-7 35 31 -29 c17 -16 33 -27 36 -25 3 3 -3 24 -12 47 -15 41
-15 43 10 100 15 32 29 85 32 118 3 32 11 96 17 141 9 68 8 93 -5 150 -9 37
-19 88 -23 113 -7 50 -25 90 -48 109 -8 7 -25 33 -37 57 -11 25 -36 56 -55 70
-18 14 -46 49 -62 78 -77 136 -230 208 -468 220 -66 4 -123 3 -127 0z m82
-121 c-21 -23 -22 -25 -4 -18 58 22 140 45 163 45 24 -1 22 -4 -20 -25 -73
-39 -69 -45 31 -45 49 0 102 -5 118 -12 l28 -12 -40 -3 c-74 -6 -71 -15 15
-39 104 -31 166 -64 224 -120 37 -35 86 -108 86 -128 0 -3 -23 12 -52 33 -81
62 -99 58 -35 -7 52 -53 127 -163 127 -186 0 -5 -16 9 -35 31 -33 39 -147 123
-166 123 -4 0 23 -31 61 -70 45 -45 80 -94 104 -141 47 -94 46 -116 -3 -48
-33 46 -84 91 -140 124 -7 4 8 -19 34 -51 46 -56 115 -184 115 -213 0 -8 -13
4 -28 25 -33 45 -94 106 -100 100 -2 -2 10 -23 27 -46 51 -70 102 -240 72
-240 -6 0 -11 4 -11 9 0 11 -80 114 -85 109 -2 -2 6 -33 19 -68 28 -79 40
-140 28 -140 -6 0 -12 6 -15 13 -8 21 -128 169 -133 164 -3 -3 13 -47 35 -98
45 -108 74 -199 62 -199 -5 0 -11 7 -15 15 -6 18 -108 156 -112 152 -1 -1 13
-47 32 -102 18 -55 34 -111 33 -125 l0 -25 -25 30 c-14 17 -52 71 -86 120 -73
110 -72 108 -63 65 8 -41 64 -165 106 -232 16 -27 25 -48 20 -48 -5 0 -41 34
-81 76 -74 79 -81 75 -33 -19 13 -27 21 -52 18 -55 -4 -4 -43 31 -88 78 -77
82 -80 84 -73 50 3 -19 21 -64 38 -100 18 -36 34 -69 36 -74 13 -26 -83 64
-108 103 -34 51 -38 38 -14 -51 8 -33 13 -62 11 -65 -5 -5 -74 102 -106 165
-12 24 -24 42 -26 40 -11 -11 20 -162 46 -222 l29 -69 -36 34 c-20 19 -43 48
-52 64 -14 26 -17 28 -20 10 -1 -11 6 -50 17 -85 11 -35 19 -66 17 -67 -6 -6
-84 121 -111 180 -15 31 -29 57 -32 57 -9 0 23 -195 42 -255 11 -34 -73 64
-87 101 -6 19 -16 34 -20 34 -13 0 3 -90 28 -160 13 -35 22 -66 20 -68 -9 -8
-114 102 -141 147 -16 28 -34 51 -38 51 -19 0 22 -150 59 -219 27 -49 28 -51
14 -51 -5 0 -38 28 -72 62 l-61 61 7 -42 c3 -23 18 -65 31 -93 14 -28 23 -53
21 -55 -6 -6 -135 136 -151 168 -9 17 -19 29 -21 26 -7 -7 25 -134 48 -186 10
-24 16 -46 14 -48 -7 -7 -65 76 -96 137 -43 86 -60 172 -59 296 l1 109 18 -87
c28 -135 36 -136 44 -6 7 125 14 170 26 163 4 -3 11 -24 14 -47 4 -24 13 -54
21 -68 l13 -25 5 25 c3 14 11 58 17 98 7 39 15 72 18 72 4 0 18 -45 31 -99 13
-54 27 -104 31 -111 4 -7 13 34 19 91 7 57 13 113 14 124 2 14 12 3 37 -40 39
-67 45 -61 38 37 -2 32 -1 58 3 58 10 0 79 -106 79 -121 0 -8 3 -9 9 -4 9 10
-1 127 -14 158 -4 10 -3 17 4 17 6 0 11 -3 11 -7 1 -5 17 -26 37 -48 l36 -40
-7 45 c-3 25 -9 56 -13 70 -6 22 -5 24 10 12 9 -8 30 -35 47 -60 26 -39 30
-42 30 -21 0 13 -7 51 -14 84 l-14 60 40 -45 40 -45 -8 40 c-4 22 -11 51 -16
64 -5 13 -7 26 -4 28 6 7 29 -31 80 -132 25 -49 45 -81 45 -70 1 36 -27 153
-48 200 -11 25 -16 45 -11 45 4 0 27 -21 49 -46 23 -26 41 -41 41 -33 -1 24
-36 92 -69 133 -38 48 -39 53 -3 27 43 -31 108 -102 141 -155 17 -28 31 -42
31 -33 0 38 -43 127 -95 195 -30 39 -52 72 -48 72 5 0 32 -18 61 -40 28 -22
52 -35 52 -29 0 18 -21 53 -53 87 -17 17 -27 32 -23 32 18 0 113 -60 140 -89
71 -75 42 -4 -33 81 -24 27 -41 52 -37 55 3 3 33 -5 67 -20 73 -32 72 -18 -3
43 -31 25 -55 46 -54 47 10 10 155 -51 208 -88 43 -31 45 -22 3 22 -49 51
-146 115 -197 131 -53 16 -48 28 12 28 28 0 50 4 50 9 0 5 -31 17 -70 27 -87
23 -73 35 50 43 l85 6 -59 19 c-32 10 -80 19 -107 19 -27 0 -49 3 -49 7 0 4
19 17 42 29 32 16 38 22 25 27 -20 7 -105 -12 -124 -28 -33 -27 -1 36 40 79
l31 33 -35 -10 c-18 -6 -35 -10 -37 -10 -1 0 -23 -19 -49 -42 -41 -38 -45 -40
-39 -18 4 14 21 45 37 69 17 24 29 45 27 47 -11 10 -91 -53 -117 -93 -27 -40
-31 -43 -31 -22 0 13 13 50 29 82 16 31 26 57 23 57 -23 0 -57 -41 -92 -108
l-39 -77 -1 48 c0 56 -14 55 -31 -3 -19 -62 -32 -49 -27 25 7 78 -3 76 -42 -8
l-29 -60 -7 51 c-7 58 -17 59 -34 4 -21 -69 -22 -69 -36 -37 -7 17 -13 41 -14
55 -1 24 -2 23 -20 -10 -24 -44 -24 -70 -1 -145 18 -59 18 -60 30 -32 12 30
31 28 31 -4 0 -25 8 -24 37 3 l23 21 0 -27 c0 -24 2 -27 15 -16 21 17 20 -3
-1 -36 -32 -48 -5 -36 56 26 64 63 87 77 154 90 144 28 198 -121 90 -249 -39
-46 -135 -91 -199 -92 -27 0 -59 -4 -69 -8 -16 -6 -12 -10 25 -19 71 -19 76
-28 18 -35 -60 -7 -91 -27 -44 -27 37 -1 101 -28 70 -29 -11 -1 -26 -5 -34
-10 -11 -7 -6 -13 22 -25 41 -16 53 -42 14 -27 -22 8 -69 15 -91 12 -6 -1 3
-14 19 -31 32 -34 28 -37 -16 -14 -42 21 -54 14 -29 -19 30 -38 21 -42 -24
-11 -21 14 -40 23 -43 20 -3 -3 4 -24 16 -47 26 -50 23 -58 -9 -24 -35 37 -44
31 -36 -22 l6 -48 -20 25 c-11 14 -20 28 -20 33 0 4 -5 7 -11 7 -6 0 -9 -6 -6
-14 3 -8 2 -27 -2 -43 l-8 -28 -15 30 -16 30 -18 -37 c-18 -38 -34 -42 -34 -7
0 27 -12 18 -49 -38 l-31 -46 0 31 c0 18 -4 32 -9 32 -5 0 -27 -18 -49 -40
-22 -22 -42 -40 -46 -40 -3 0 -6 14 -6 30 0 41 -16 38 -38 -7 -19 -36 -19 -36
-31 -14 -7 12 -11 42 -10 66 2 25 1 47 -2 50 -6 5 -33 -44 -44 -79 -5 -17 -7
-18 -21 -5 -8 9 -23 37 -33 65 -19 49 -19 49 -26 19 -16 -72 -22 -73 -40 -11
-16 54 -19 58 -31 41 -14 -20 -12 -22 -29 31 -8 24 13 54 38 54 12 0 51 -9 85
-20 45 -14 92 -20 158 -20 66 0 94 -4 94 -12 0 -9 3 -9 11 -1 6 6 9 21 7 34
-3 23 -6 24 -71 21 -82 -3 -175 12 -239 40 -40 17 -50 27 -64 65 -21 55 -14
71 41 90 41 14 75 39 75 56 0 5 -9 7 -20 4 -10 -3 -51 2 -89 11 -56 12 -69 18
-60 28 12 14 97 44 199 69 92 23 199 77 244 123 l38 40 -12 50 c-8 36 -9 60
-1 89 12 44 61 97 68 75 3 -8 16 2 35 27 35 48 48 52 48 15 0 -26 1 -25 41 17
l40 44 -4 -32 c-2 -18 0 -33 3 -33 4 0 17 15 30 33 12 17 33 40 47 51 l25 19
-7 -44 -8 -43 47 48 c26 26 50 46 52 43 3 -3 -4 -23 -16 -46 -11 -23 -18 -41
-14 -41 3 0 26 18 52 40 25 22 47 38 49 36 3 -2 -3 -18 -11 -35 -23 -44 -21
-45 34 -5 46 33 129 67 139 58 3 -2 -6 -16 -20 -31z m2297 -589 c25 -8 48 -13
50 -11 3 2 19 -9 36 -25 26 -24 29 -31 17 -39 -9 -5 34 -9 116 -9 539 -2 731
-75 850 -325 18 -38 36 -86 40 -104 l7 -35 -25 30 -26 29 9 -35 c15 -53 13
-68 -6 -44 -14 18 -15 16 -9 -28 4 -29 2 -48 -4 -48 -5 0 -12 6 -14 13 -3 6
-6 -6 -7 -28 -1 -22 -6 -51 -10 -65 -7 -23 -8 -22 -10 10 l-2 35 -13 -45 c-7
-25 -18 -58 -25 -75 -10 -26 -13 -27 -19 -12 -6 15 -13 9 -39 -32 -33 -50 -61
-78 -50 -50 24 63 21 64 -35 12 -59 -56 -78 -67 -53 -31 25 36 18 42 -15 14
-34 -29 -72 -50 -116 -66 -27 -10 -26 -9 7 20 28 25 30 30 13 25 -61 -17 -123
-22 -123 -9 0 6 -15 18 -32 25 -32 12 -30 13 52 19 150 13 237 48 328 133 75
71 94 114 100 215 3 54 1 87 -7 95 -8 8 -11 5 -11 -12 0 -44 -18 -10 -22 43
-3 36 -13 67 -29 90 -24 35 -24 35 -27 11 -3 -24 -5 -22 -36 22 -36 53 -57 66
-50 31 5 -20 2 -19 -24 10 -33 37 -91 82 -105 82 -6 0 -2 -9 8 -20 23 -25 6
-26 -26 -1 -13 10 -39 26 -57 35 -33 17 -33 17 -22 -5 7 -12 8 -19 3 -17 -37
18 -106 48 -109 48 -3 0 0 -8 5 -19 10 -17 6 -17 -47 5 -61 25 -73 24 -51 -3
12 -15 12 -16 -5 -10 -56 22 -108 30 -115 18 -6 -9 -20 -9 -56 -1 -34 8 -50 8
-55 0 -5 -7 -22 -7 -61 1 -35 8 -114 10 -226 7 -94 -3 -190 -2 -212 2 -89 16
-11 -45 81 -64 45 -9 56 -14 43 -20 -16 -6 -17 -9 -5 -16 26 -16 123 -10 180
11 119 44 170 30 63 -18 -120 -53 -232 -60 -316 -22 -32 14 -35 29 -7 29 35 0
22 15 -22 27 -24 6 -59 22 -78 35 -34 23 -100 101 -100 118 0 5 24 -2 53 -15
51 -24 147 -35 147 -17 0 5 -12 15 -27 22 l-28 13 35 8 c19 4 69 16 110 27 91
25 154 27 216 6z m-12 -654 c115 -29 209 -83 297 -170 42 -41 88 -97 102 -125
64 -128 95 -294 103 -560 7 -201 19 -265 70 -368 45 -91 78 -135 172 -230 l77
-78 -3 -97 c-2 -53 -5 -110 -7 -127 -6 -50 15 -176 40 -239 l24 -59 -31 -36
c-44 -50 -93 -161 -130 -297 -35 -127 -65 -174 -111 -174 -20 0 -27 6 -32 30
-4 16 -20 42 -36 57 -16 16 -29 33 -29 40 0 19 50 53 79 53 20 0 23 2 11 10
-8 5 -26 10 -38 10 -23 0 -40 -15 -120 -103 -18 -21 -35 -37 -38 -37 -2 0 -19
10 -37 22 -18 13 -33 23 -35 24 -1 1 0 9 4 18 4 9 37 32 74 51 40 20 82 51
104 76 34 41 39 43 85 40 27 -1 52 2 56 8 3 6 -2 11 -12 11 -26 0 -116 44
-133 65 -14 17 -13 18 12 12 52 -13 148 -20 148 -11 0 5 -28 22 -62 37 -35 15
-74 36 -88 47 l-25 20 88 0 c48 0 87 3 87 8 0 4 -29 20 -63 35 -34 15 -73 37
-87 48 l-25 20 50 -3 c78 -3 135 1 135 11 0 4 -21 14 -47 21 -64 18 -133 47
-133 57 0 4 21 8 48 9 66 1 142 14 142 23 0 5 -26 11 -58 14 -55 6 -168 45
-158 55 3 2 38 6 80 9 83 5 140 17 116 26 -8 2 -49 12 -91 21 -42 10 -85 23
-94 30 -15 11 -4 14 74 19 51 4 98 10 104 14 5 3 -35 17 -91 29 -56 13 -107
26 -114 30 -18 11 17 21 104 29 43 4 76 11 73 15 -2 4 -56 17 -120 30 -108 22
-148 40 -89 40 40 0 164 31 164 41 0 5 -16 9 -35 9 -19 0 -81 9 -137 20 -57
11 -104 20 -106 20 -2 0 -1 4 2 9 3 4 26 11 52 15 26 3 65 11 88 18 39 10 40
12 16 19 -14 4 -50 7 -80 8 -57 1 -168 26 -183 40 -4 4 18 11 50 15 129 15
176 46 70 46 -68 0 -215 24 -286 47 l-56 18 140 6 c80 3 153 12 170 19 l30 13
-50 8 c-27 4 -95 13 -150 19 -95 11 -206 34 -232 49 -7 3 36 5 95 3 108 -4
192 6 247 29 28 12 24 13 -65 20 -113 8 -212 31 -297 70 -35 15 -63 29 -63 32
0 2 24 0 53 -4 117 -17 317 -4 317 20 0 5 -42 11 -92 14 -53 3 -121 15 -158
27 -64 22 -205 89 -199 94 2 2 45 -5 94 -15 50 -10 118 -19 152 -19 60 0 169
18 160 26 -2 3 -47 11 -99 19 -122 18 -325 92 -306 111 3 2 39 -3 82 -11 117
-23 303 -18 264 6 -7 5 -28 9 -46 9 -105 0 -295 70 -485 179 -149 85 -231 124
-254 119 -13 -2 -5 -11 27 -30 52 -31 110 -82 110 -98 0 -6 -21 0 -47 14 -63
31 -178 72 -228 80 -40 7 -40 6 20 -26 87 -48 166 -102 199 -137 35 -37 29
-39 -22 -8 -59 37 -153 75 -222 91 -112 27 -123 19 -34 -23 44 -21 105 -54
135 -73 61 -40 152 -118 145 -125 -2 -3 -35 13 -73 35 -116 68 -313 142 -378
142 -11 0 23 -24 75 -53 52 -29 113 -64 135 -78 41 -27 138 -106 120 -98 -5 3
-53 26 -105 52 -96 48 -235 89 -345 102 -76 9 -64 -4 40 -40 44 -15 109 -42
145 -60 68 -34 170 -105 170 -117 0 -4 -26 4 -57 18 -108 49 -274 104 -360
119 -87 15 -115 14 -72 -4 127 -52 241 -107 299 -146 65 -43 102 -77 69 -62
-164 72 -289 110 -399 121 -74 7 -79 11 82 -62 82 -38 184 -100 176 -108 -2
-2 -33 5 -68 16 -36 10 -114 28 -175 40 -60 12 -152 37 -202 55 -51 18 -93 31
-93 28 0 -3 16 -23 35 -44 71 -79 104 -187 105 -339 0 -162 28 -271 101 -392
l48 -80 -20 -51 c-44 -110 -60 -207 -66 -382 -6 -169 -6 -170 -34 -203 -33
-37 -61 -89 -79 -147 -22 -71 -59 -124 -100 -145 -53 -27 -76 -26 -84 5 -9 37
-42 65 -76 65 -34 0 -40 19 -14 44 26 27 59 29 110 7 26 -12 49 -20 50 -18 2
2 -8 19 -21 38 -28 38 -20 46 27 30 17 -6 34 -9 37 -6 2 3 -19 28 -48 55 l-53
50 33 0 c19 -1 51 -7 72 -14 20 -8 37 -11 37 -7 0 12 -94 98 -130 120 -50 30
-14 27 87 -7 89 -30 89 -30 24 41 -20 21 -53 47 -73 58 -21 11 -38 22 -38 26
0 11 100 -6 145 -26 25 -11 45 -17 45 -13 0 14 -85 91 -130 117 l-45 27 63 -7
c35 -3 75 -10 88 -15 62 -24 -4 51 -91 102 l-50 29 93 -3 c92 -4 93 -4 70 14
-13 10 -61 39 -108 64 l-85 45 95 -5 c52 -2 103 -8 114 -12 14 -5 17 -3 14 7
-6 19 -105 68 -198 98 -71 24 -73 25 -45 33 31 9 196 4 231 -7 16 -6 16 -4 -4
14 -28 25 -115 58 -206 78 -57 13 -65 17 -50 26 11 6 62 14 114 17 l95 6 -46
22 c-25 12 -99 32 -165 45 -118 24 -119 24 -79 35 64 17 155 32 204 33 l46 1
-41 18 c-28 14 -82 22 -182 29 -79 6 -149 14 -157 18 -23 13 254 57 307 49 39
-5 41 -5 24 9 -24 18 -106 42 -220 64 -50 10 -86 20 -80 23 5 3 62 14 127 24
64 9 117 21 117 25 0 8 -86 32 -210 58 l-84 17 84 21 c47 12 108 25 135 29
l50 7 -34 14 c-19 8 -94 19 -165 24 -267 18 -383 30 -451 45 -38 8 -83 17
-100 20 -29 5 -29 5 10 -21 50 -32 134 -72 200 -96 l50 -18 -60 0 c-75 -1
-165 20 -257 59 -83 36 -76 20 21 -44 74 -49 182 -98 254 -116 52 -14 78 -36
31 -27 -16 3 -51 9 -79 12 -133 17 -306 92 -395 172 -52 47 -115 121 -108 128
2 2 32 -10 66 -27 34 -17 65 -29 68 -25 3 3 -15 33 -40 67 -25 34 -46 66 -46
71 0 5 38 -12 85 -37 48 -26 88 -44 91 -41 3 3 -15 30 -40 61 -47 57 -74 101
-59 94 4 -2 47 -23 95 -47 48 -24 92 -41 98 -39 6 2 -14 34 -44 73 -31 38 -54
70 -52 72 2 2 32 -10 67 -26 110 -50 137 -51 83 0 -26 24 -84 102 -84 113 0 4
21 -4 48 -17 59 -30 121 -51 129 -43 3 3 -10 23 -30 45 -63 70 -75 112 -20 73
35 -24 100 -57 133 -67 23 -7 23 -5 -11 31 -45 49 -97 119 -84 113 6 -2 43
-21 82 -42 100 -51 119 -49 63 8 -24 25 -42 45 -38 45 3 0 38 -13 78 -30 98
-40 109 -39 70 10 -17 22 -28 40 -22 40 5 0 35 -9 67 -20 32 -11 62 -20 67
-20 5 0 -7 20 -28 45 -20 25 -33 45 -29 45 5 0 32 -8 61 -17 30 -9 57 -14 60
-10 3 3 -4 22 -16 41 l-22 36 47 -20 c26 -11 56 -20 66 -20 19 0 18 2 -5 33
-15 19 -26 37 -26 41 0 4 24 -6 54 -23 73 -42 84 -39 42 11 -20 23 -34 43 -32
45 2 2 36 -12 77 -32 114 -53 215 -76 366 -82 211 -9 374 23 608 120 177 73
308 117 404 138 118 24 267 24 365 -1z m-2644 -1045 c98 -49 213 -91 355 -130
130 -35 145 -50 42 -41 -183 16 -357 83 -486 189 -72 58 -94 92 -34 51 21 -14
76 -45 123 -69z m120 -182 c74 -31 184 -72 244 -93 60 -20 105 -39 100 -42
-15 -9 -145 11 -219 33 -82 25 -187 76 -256 125 -84 61 -69 58 131 -23z m1935
-102 c69 -22 183 -29 225 -16 17 6 20 2 20 -28 0 -63 39 -162 96 -248 56 -83
56 -85 51 -144 -3 -36 -20 -95 -41 -147 -47 -114 -55 -154 -66 -317 -10 -166
-27 -218 -92 -284 -26 -26 -51 -47 -57 -47 -5 0 -15 15 -21 34 -6 19 -20 46
-32 61 -11 14 -18 32 -15 39 8 20 43 25 73 10 32 -17 34 -17 34 -1 0 7 -13 26
-30 42 -40 39 -38 49 10 42 22 -3 40 -1 40 4 0 5 -22 21 -50 37 -27 16 -48 31
-45 34 3 3 29 1 57 -3 29 -5 54 -7 56 -5 6 7 -62 55 -101 71 -20 8 -37 18 -37
22 0 7 97 -2 123 -12 9 -4 17 -3 17 3 0 5 -30 26 -67 46 l-68 37 78 -4 c90 -5
89 2 -3 52 l-55 31 45 0 c25 0 60 -4 78 -9 50 -15 38 4 -34 51 -54 35 -62 44
-43 46 20 3 79 -8 125 -24 35 -12 -27 43 -86 76 l-55 31 77 -3 c72 -3 76 -2
62 14 -9 9 -40 29 -70 45 -30 15 -54 31 -54 36 0 4 32 7 72 7 85 0 83 5 -28
60 -81 40 -81 43 -4 41 l45 -1 -105 55 -105 54 88 -6 c49 -3 87 -2 87 3 0 5
-28 20 -62 33 -35 14 -90 37 -123 52 l-60 27 109 -6 c77 -4 107 -2 102 6 -3 6
-20 13 -37 17 -53 12 -152 55 -201 88 -52 35 -65 56 -20 33 15 -7 59 -23 97
-35z m-1850 -507 c22 -3 68 -1 102 4 35 5 65 7 67 5 6 -6 -25 -94 -69 -193
-21 -47 -58 -139 -82 -204 -32 -87 -58 -138 -97 -190 -29 -39 -62 -88 -75
-108 -12 -21 -24 -38 -26 -38 -2 0 -10 -3 -19 -6 -11 -4 -18 5 -26 36 -8 29
-18 44 -36 50 -30 12 -31 26 -3 40 20 11 44 9 85 -7 15 -5 16 -2 11 26 -6 30
-5 32 15 25 22 -7 22 2 2 50 -7 17 -4 18 24 13 48 -10 39 7 -30 53 l-63 42 40
-6 c22 -3 58 -9 80 -12 l40 -5 -67 43 c-37 24 -68 46 -68 49 0 3 35 -1 77 -8
43 -7 82 -12 86 -10 5 1 -21 22 -57 46 -37 24 -66 45 -63 47 2 2 19 -1 38 -6
40 -12 116 -12 144 -1 17 7 14 10 -21 20 -42 11 -124 64 -124 80 0 4 23 2 52
-5 57 -15 90 -17 125 -8 25 7 21 24 -5 24 -22 0 -167 69 -159 76 3 3 41 0 84
-7 58 -9 87 -9 109 -1 29 11 29 11 6 18 -13 4 -58 24 -100 46 -42 21 -68 36
-57 33 10 -3 37 -8 60 -11z"/>
<path d="M1345 3803 c-43 -22 -71 -50 -104 -102 -39 -63 -45 -86 -26 -105 20
-20 75 -21 101 -1 19 14 19 14 -3 15 -37 0 -35 18 4 43 21 14 47 41 58 61 25
46 38 46 33 1 -5 -41 7 -46 24 -10 6 14 15 25 20 25 10 0 10 -3 -2 -34 -13
-36 -4 -32 20 7 40 66 16 117 -56 117 -21 -1 -52 -8 -69 -17z"/>
<path d="M862 3701 l-41 -49 27 -10 c51 -20 67 -22 117 -14 28 5 63 5 78 1 15
-4 27 -3 27 2 0 15 -72 89 -101 105 -45 23 -63 17 -107 -35z"/>
<path d="M3180 2642 c0 -5 10 -13 23 -19 12 -6 59 -38 104 -71 45 -34 104 -72
131 -86 57 -29 193 -59 248 -54 l39 3 -65 24 c-36 13 -132 58 -215 101 -82 43
-174 85 -204 94 -64 19 -61 18 -61 8z"/>
<path d="M1492 2250 c2 -8 24 -25 49 -38 41 -22 50 -23 134 -16 50 4 114 8
143 8 43 1 49 3 36 13 -27 20 -112 34 -243 40 -102 5 -123 4 -119 -7z"/>
<path d="M1450 2144 c64 -40 136 -64 195 -64 44 0 235 26 242 34 12 12 -79 28
-207 37 -80 5 -172 14 -205 19 -85 14 -86 13 -25 -26z"/>
</g>
</svg>
