<?xml version="1.0" standalone="no"?>
<!DOCTYPE svg PUBLIC "-//W3C//DTD SVG 20010904//EN"
 "http://www.w3.org/TR/2001/REC-SVG-20010904/DTD/svg10.dtd">
<svg version="1.0" xmlns="http://www.w3.org/2000/svg"
 width="461.000000pt" height="542.000000pt" viewBox="0 0 461.000000 542.000000"
 preserveAspectRatio="xMidYMid meet">

<g transform="translate(0.000000,542.000000) scale(0.100000,-0.100000)"
fill="#f1c88e" stroke="none">
<path d="M2143 5174 c-51 -19 -112 -76 -138 -129 -23 -49 -31 -137 -16 -191
13 -49 68 -123 105 -144 27 -14 27 -14 20 -94 -3 -45 -8 -84 -10 -88 -3 -3
-27 9 -54 27 -146 98 -342 111 -545 34 -27 -11 -149 -69 -270 -130 -205 -104
-225 -112 -290 -116 -67 -5 -125 7 -125 25 0 4 17 16 38 25 81 36 95 133 28
194 -31 28 -43 33 -87 33 -65 0 -106 -24 -139 -82 -21 -36 -25 -56 -25 -123 0
-70 4 -86 28 -128 52 -89 139 -136 267 -146 75 -5 85 -8 87 -26 2 -15 -9 -26
-47 -43 -88 -41 -126 -136 -95 -235 l17 -55 -40 -68 c-41 -71 -106 -188 -402
-719 -95 -170 -186 -325 -203 -344 -28 -33 -29 -37 -25 -115 11 -188 124 -380
295 -502 165 -119 385 -177 580 -154 375 44 650 297 693 637 11 87 3 116 -44
158 -25 22 -102 165 -297 552 -229 453 -262 525 -251 540 27 38 52 100 52 131
0 68 -58 156 -121 183 -23 9 -29 18 -29 44 0 29 4 33 40 44 22 7 123 45 224
86 273 109 350 122 481 78 65 -21 166 -120 200 -195 l24 -53 -34 -380 c-19
-209 -42 -471 -52 -582 l-17 -201 36 -40 c19 -22 41 -56 48 -76 l12 -37 -60
-55 c-47 -42 -66 -68 -82 -112 -37 -98 -17 -205 55 -290 l26 -31 -42 -33
c-100 -80 -159 -208 -159 -348 0 -140 45 -241 152 -342 l51 -47 -7 -83 c-11
-131 -6 -124 -94 -137 -184 -29 -328 -86 -403 -161 -25 -25 -64 -60 -86 -78
-23 -18 -51 -52 -63 -77 -18 -37 -20 -49 -11 -83 41 -152 283 -282 606 -327
326 -44 660 -17 900 76 106 40 160 72 218 128 78 74 105 147 76 204 -23 45
-203 206 -264 236 -70 35 -209 76 -303 92 -37 5 -68 12 -70 14 -2 2 -6 47 -9
100 l-6 97 62 58 c45 44 71 80 99 137 36 76 37 81 37 193 0 112 -1 117 -36
191 -26 55 -54 93 -97 135 l-61 58 25 29 c53 63 69 107 69 192 0 69 -4 86 -27
127 -16 25 -51 67 -80 92 l-51 45 17 45 c10 26 32 60 49 77 l31 31 -51 582
-51 581 29 61 c37 79 128 166 196 188 130 41 213 27 476 -78 100 -41 201 -80
225 -87 23 -7 47 -18 53 -25 17 -21 1 -52 -32 -59 -40 -9 -86 -49 -111 -98
-28 -57 -22 -140 16 -197 l27 -41 -267 -527 c-217 -430 -272 -531 -295 -545
-41 -23 -52 -59 -45 -147 23 -302 265 -558 601 -636 101 -24 287 -21 389 6 77
19 204 78 276 127 54 36 157 141 196 200 49 75 80 148 98 236 25 121 21 151
-29 207 -12 14 -100 165 -195 335 -95 171 -231 414 -302 540 -134 240 -132
233 -110 317 20 76 -24 172 -94 205 -33 16 -51 44 -40 62 3 4 41 11 83 13 209
13 334 172 278 354 -27 86 -73 124 -152 124 -46 0 -58 -4 -89 -33 -65 -59 -54
-161 22 -193 70 -29 24 -59 -80 -51 -66 4 -86 12 -291 116 -248 125 -288 142
-398 166 -152 34 -300 9 -417 -70 -27 -18 -52 -30 -55 -26 -2 4 -7 43 -11 87
l-6 79 32 20 c40 25 84 88 99 140 32 115 -10 227 -111 295 -43 29 -57 34 -126
36 -52 3 -91 -1 -119 -12z m202 -63 c36 -21 43 -46 19 -72 -16 -18 -16 -19 9
-19 32 0 36 -24 7 -42 -11 -7 -20 -16 -20 -20 0 -5 9 -8 20 -8 23 0 26 -22 5
-40 -8 -6 -14 -15 -13 -18 4 -34 -37 -52 -119 -52 -39 0 -54 4 -51 13 3 6 15
14 29 15 41 6 41 18 -1 31 -48 14 -51 27 -7 39 33 10 28 15 -25 26 -39 9 -35
24 10 31 66 11 69 15 23 35 -51 24 -50 43 5 51 38 5 37 9 -13 24 -19 7 -8 21
22 28 27 6 64 -2 100 -22z m-238 -48 c-3 -10 -13 -36 -21 -58 -19 -50 -20 -87
-2 -153 10 -41 10 -52 1 -52 -13 0 -28 30 -45 89 -12 41 2 111 31 158 22 35
45 45 36 16z m263 -242 c0 -18 -53 -51 -81 -51 -64 0 -80 26 -21 35 20 4 46
10 57 15 27 12 45 12 45 1z m-39 -362 c10 -112 39 -440 64 -729 25 -289 50
-582 57 -651 l11 -126 -32 -40 c-33 -41 -71 -128 -71 -163 0 -31 -41 -70 -82
-77 -72 -11 -123 20 -53 33 43 8 45 20 5 29 -43 9 -38 32 10 40 47 8 63 25 23
25 -35 0 -62 16 -48 28 6 5 27 15 47 22 52 16 57 30 11 30 -50 0 -118 19 -107
30 5 5 42 16 83 24 83 17 94 23 60 29 -133 25 -182 50 -122 62 15 3 54 13 87
22 62 18 57 31 -14 32 -51 1 -112 20 -107 34 2 6 42 21 90 32 48 12 90 24 93
28 3 3 -9 8 -27 11 -107 16 -130 22 -130 31 0 6 36 18 81 28 44 10 78 23 75
28 -4 5 -33 9 -65 9 -63 0 -115 14 -106 29 4 5 37 14 74 21 81 13 108 26 71
34 -13 3 -45 8 -71 11 -42 5 -79 28 -66 41 3 2 30 9 61 14 31 5 66 15 79 22
22 12 20 13 -28 19 -53 7 -94 24 -94 39 0 10 16 15 75 25 63 11 63 17 -4 39
-71 24 -83 40 -31 44 55 4 81 12 75 22 -3 6 -16 10 -29 10 -34 0 -87 21 -80
31 3 5 20 9 37 9 41 0 77 10 77 21 0 4 -17 11 -37 14 -61 11 -74 16 -70 28 2
7 10 13 18 14 60 8 89 15 89 23 0 6 -10 10 -22 10 -34 0 -68 11 -68 21 0 10 8
14 53 23 41 9 33 24 -15 28 -59 4 -65 33 -9 42 51 8 64 26 19 26 -32 0 -67 14
-58 23 3 2 25 11 50 20 l45 15 -42 7 c-24 4 -43 11 -43 14 0 4 15 14 32 23
l33 15 -38 7 c-46 9 -49 32 -4 41 49 11 55 19 18 25 -45 7 -50 24 -9 37 l33
11 -32 7 c-18 4 -33 13 -33 20 0 7 15 16 33 20 30 7 30 8 9 14 -28 7 -28 22 0
37 20 11 19 12 -13 23 -33 12 -33 13 -15 27 11 7 27 14 35 14 10 1 5 7 -11 16
-33 17 -36 30 -8 39 23 7 27 25 6 25 -23 0 -31 22 -13 35 21 15 22 25 2 25 -8
0 -15 7 -15 15 0 9 7 18 15 21 8 4 15 10 15 15 0 5 -7 9 -15 9 -20 0 -19 26 2
34 14 6 14 8 -3 21 -19 13 -19 14 0 28 17 12 17 14 2 20 -9 4 -16 11 -16 16 0
11 61 19 73 10 5 -4 17 -98 28 -210z m-471 120 c58 -13 147 -58 199 -99 35
-29 41 -39 41 -72 0 -44 -6 -46 -61 -17 -57 28 -174 49 -282 49 -115 0 -106
16 19 35 l89 14 -100 -3 c-122 -4 -225 -37 -416 -131 -71 -35 -170 -81 -221
-101 -87 -35 -100 -38 -200 -38 -102 -1 -108 0 -150 29 -64 45 -91 103 -85
186 6 90 43 139 106 139 29 0 71 -39 71 -66 0 -29 -10 -31 -33 -4 -25 30 -61
25 -92 -12 -23 -27 -26 -39 -22 -75 9 -79 76 -122 188 -123 91 0 162 25 379
134 199 101 269 129 370 150 79 17 140 19 200 5z m1048 -25 c47 -14 175 -72
295 -133 117 -60 236 -116 266 -125 155 -46 301 16 301 128 0 57 -22 86 -65
86 -36 0 -54 -14 -30 -24 19 -7 20 -42 1 -49 -24 -9 -56 22 -56 54 0 35 39 79
71 79 34 0 77 -31 95 -68 26 -55 16 -151 -21 -203 -45 -63 -122 -102 -203
-103 l-65 -1 -9 32 c-12 48 -53 56 -86 18 l-24 -28 -55 17 c-35 11 -53 22 -50
30 3 8 -19 20 -66 35 -40 13 -88 30 -107 39 l-35 16 50 5 50 6 -80 22 c-44 12
-106 27 -137 33 -61 12 -77 29 -30 31 67 3 -47 19 -138 20 -133 1 -254 -34
-336 -96 -18 -14 -37 -25 -42 -25 -5 0 -13 19 -16 43 -7 40 -6 43 36 80 52 46
146 92 213 106 70 14 176 4 273 -25z m-2084 -81 c7 -16 -10 -43 -25 -43 -5 0
-9 7 -9 15 0 8 -7 15 -15 15 -20 0 -19 17 2 28 20 12 39 6 47 -15z m1213 -96
c27 -13 49 -31 51 -40 3 -14 -7 -12 -59 13 -35 16 -89 32 -121 36 -85 10 -74
28 12 21 43 -4 87 -15 117 -30z m26 -64 c15 -7 27 -20 27 -28 0 -16 -25 -20
-35 -6 -3 5 -19 12 -35 16 -33 7 -45 19 -35 35 7 12 34 6 78 -17z m427 19 c0
-9 -74 -72 -84 -72 -3 0 -6 9 -6 19 0 11 14 28 33 39 34 22 57 27 57 14z
m-334 -99 c-26 -399 -64 -994 -72 -1149 -6 -101 -4 -128 11 -166 9 -25 15 -54
13 -64 -3 -15 -8 -12 -25 16 -12 19 -31 46 -42 60 -19 25 -19 28 0 230 52 561
100 1070 105 1118 11 88 17 58 10 -45z m-72 -14 c-8 -13 -24 -1 -24 18 0 13 3
13 15 3 8 -7 12 -16 9 -21z m346 12 c0 -6 -4 -13 -10 -16 -5 -3 -10 1 -10 9 0
9 5 16 10 16 6 0 10 -4 10 -9z m1024 -7 c10 -25 7 -112 -4 -119 -13 -8 -18 7
-23 78 -2 40 0 57 9 57 6 0 15 -7 18 -16z m-2380 -30 c3 -9 6 -36 6 -60 0 -32
-4 -44 -15 -44 -11 0 -15 12 -15 44 0 24 -3 51 -6 60 -4 10 -1 16 9 16 8 0 18
-7 21 -16z m73 -197 c84 -83 33 -223 -84 -230 -32 -2 -38 1 -38 18 0 15 9 21
37 26 56 9 95 49 48 49 -12 0 -32 11 -46 26 -21 20 -25 33 -22 65 3 30 0 39
-12 39 -27 -1 -51 -27 -68 -76 -22 -60 -42 -69 -42 -19 0 42 18 81 52 111 32
30 46 34 97 30 34 -3 51 -12 78 -39z m2359 18 c25 -16 63 -86 64 -115 0 -8 -5
-22 -10 -30 -7 -12 -13 -11 -34 9 -20 19 -32 23 -61 18 -32 -5 -37 -3 -46 21
-7 18 -7 34 0 49 9 20 8 23 -10 23 -11 0 -31 -11 -44 -25 -51 -50 -19 -139 55
-154 26 -5 35 -12 35 -26 0 -17 -6 -20 -35 -17 -65 5 -123 66 -123 130 0 110
119 176 209 117z m-2479 -151 c6 -17 -23 -88 -43 -105 -9 -7 -15 -5 -22 7 -7
12 -3 30 16 66 26 50 39 59 49 32z m2478 -14 c10 -11 18 -33 18 -49 0 -19 5
-27 13 -24 17 6 44 -48 44 -89 0 -24 3 -29 10 -18 10 16 9 17 38 -31 12 -20
22 -46 22 -58 0 -11 6 -21 13 -21 15 0 57 -72 57 -98 0 -11 7 -22 15 -26 8 -3
27 -31 42 -63 16 -32 31 -60 36 -61 13 -6 47 -80 47 -102 0 -11 6 -20 13 -20
8 0 26 -25 42 -56 27 -53 27 -57 12 -87 l-16 -32 0 28 c-1 15 -12 45 -26 67
-14 22 -25 44 -25 50 0 6 -4 9 -8 6 -4 -2 -18 19 -31 47 -13 29 -28 57 -35 62
-6 6 -24 37 -41 70 -16 33 -32 62 -35 65 -15 13 -60 101 -60 116 0 10 -3 14
-6 11 -8 -8 -124 186 -124 208 0 8 -5 14 -11 13 -5 -2 -16 14 -24 36 -7 21
-18 43 -24 49 -16 16 -13 27 7 27 11 0 27 -9 37 -20z m-128 -96 c7 -18 -22
-84 -36 -84 -17 0 -23 41 -11 71 14 32 37 38 47 13z m-2417 -14 c0 -30 -39
-102 -53 -97 -21 7 -19 35 8 76 28 45 45 53 45 21z m191 -22 c12 -24 28 -51
37 -60 8 -10 12 -18 8 -18 -9 0 22 -60 44 -85 10 -11 17 -27 17 -35 0 -8 22
-56 49 -105 27 -50 56 -106 64 -125 13 -34 36 -78 209 -412 44 -87 81 -163 81
-170 0 -7 9 -24 20 -38 24 -30 25 -50 5 -50 -24 0 -66 50 -60 71 3 10 0 21 -8
26 -19 11 -59 91 -52 103 3 5 -1 12 -8 17 -19 11 -59 91 -52 103 3 5 -1 12 -9
17 -21 12 -56 75 -56 101 0 12 -3 22 -8 22 -10 0 -48 71 -44 83 1 5 -8 21 -21
36 -13 16 -29 44 -36 62 -7 19 -17 41 -22 49 -5 8 -16 31 -25 50 -9 19 -20 42
-25 50 -5 8 -19 35 -30 60 -12 25 -25 52 -30 60 -33 58 -46 87 -42 98 3 6 0
12 -6 12 -17 0 -53 79 -46 101 10 29 23 23 46 -23z m-73 -27 c20 -25 464 -912
459 -917 -3 -3 -49 4 -103 15 -276 57 -681 50 -939 -15 -16 -4 -25 -2 -25 6 0
6 32 69 71 138 39 70 145 260 236 422 91 162 176 314 189 337 23 40 26 41 62
36 20 -3 43 -13 50 -22z m2472 -68 c29 -54 68 -123 86 -153 17 -30 97 -172
176 -315 80 -143 160 -286 178 -318 18 -32 30 -60 27 -63 -2 -3 -49 4 -103 15
-265 53 -605 54 -864 1 -52 -11 -97 -17 -99 -14 -3 3 99 214 227 469 229 455
234 464 265 468 18 2 37 5 43 5 6 1 35 -42 64 -95z m-223 41 c6 -16 -25 -94
-38 -94 -5 0 -13 9 -19 19 -8 15 -5 28 11 55 23 39 36 45 46 20z m-2442 -79
c-9 -25 -26 -51 -36 -58 -10 -6 -19 -20 -19 -31 0 -10 -10 -34 -22 -54 -20
-32 -22 -33 -35 -16 -20 28 -21 26 37 92 11 12 20 29 20 37 0 9 12 34 26 56
18 29 29 38 36 31 8 -8 6 -24 -7 -57z m2392 -21 c7 -19 -22 -84 -37 -84 -6 0
-14 10 -19 22 -6 17 -3 30 12 50 24 32 35 35 44 12z m-49 -91 c7 -11 5 -27 -6
-50 -19 -39 -29 -41 -44 -9 -8 20 -7 28 6 41 9 9 16 21 16 26 0 15 18 10 28
-8z m-2458 -73 c0 -26 -37 -100 -50 -100 -18 0 -23 49 -7 65 9 8 19 24 22 35
8 26 35 26 35 0z m2415 -20 c3 -10 -2 -34 -11 -51 -16 -31 -17 -32 -30 -14
-18 25 -18 41 3 65 22 25 30 25 38 0z m-48 -125 c-19 -40 -32 -44 -47 -15 -9
16 -7 27 11 51 20 28 23 29 37 15 14 -14 14 -19 -1 -51z m-2434 24 c-2 -32
-42 -101 -54 -93 -15 9 -10 37 13 82 25 45 44 50 41 11z m2393 -64 c8 -20 -3
-60 -21 -79 -8 -8 -15 -19 -15 -25 0 -22 -24 -61 -37 -61 -8 0 -12 -4 -9 -9 8
-12 -22 -81 -35 -81 -5 0 -8 -4 -5 -9 7 -10 -25 -71 -36 -71 -5 0 -8 -7 -8
-15 0 -9 -10 -35 -21 -57 l-21 -42 -19 22 c-17 22 -17 24 4 57 12 19 28 34 35
35 8 0 10 8 7 23 -4 16 1 31 20 51 14 15 23 31 20 36 -2 4 7 24 20 45 14 20
23 40 21 44 -3 4 7 21 22 38 16 16 26 35 24 41 -4 14 26 72 39 72 5 0 12 -7
15 -15z m-2456 -46 c0 -31 -30 -89 -46 -89 -8 0 -14 -9 -14 -20 0 -29 -49
-122 -60 -115 -6 3 -10 -3 -10 -14 0 -29 -31 -91 -46 -91 -6 0 -15 11 -18 25
-6 24 2 40 47 87 10 10 17 24 16 31 -3 14 29 73 54 99 10 10 17 24 16 31 -4
18 34 77 49 77 6 0 12 -9 12 -21z m3340 -141 c11 -18 20 -43 20 -55 0 -13 6
-23 13 -23 14 0 47 -60 47 -85 0 -8 4 -15 9 -15 14 0 51 -64 51 -89 0 -11 6
-21 14 -21 18 0 71 -119 58 -132 -6 -6 -20 9 -41 45 -17 30 -31 60 -31 66 0 6
-7 11 -15 11 -8 0 -15 8 -15 18 0 10 -7 27 -15 38 -8 10 -15 27 -15 37 0 10
-4 16 -8 13 -5 -3 -19 17 -33 44 -13 27 -29 50 -34 50 -10 0 -32 54 -42 103
-7 37 13 35 37 -5z m-3530 -209 c0 -26 -27 -79 -41 -79 -5 0 -13 10 -18 22 -6
17 -2 31 16 55 27 35 43 35 43 2z m2424 -54 c7 -20 -24 -85 -41 -85 -23 0 -26
30 -7 66 20 36 38 44 48 19z m-1614 -30 c217 -37 313 -91 118 -66 -51 7 -181
14 -288 16 l-195 4 115 -14 c122 -16 277 -46 323 -64 43 -17 34 -34 -15 -27
-160 23 -451 35 -462 18 -3 -5 50 -14 117 -20 115 -12 270 -42 284 -56 15 -15
-13 -16 -168 -7 -90 6 -255 13 -366 17 -112 4 -203 11 -203 15 0 5 17 13 38
18 20 5 46 12 57 15 11 3 -44 4 -122 2 -79 -1 -143 1 -143 6 0 11 76 44 139
61 l46 12 -55 5 c-30 3 -54 10 -54 15 2 12 94 41 193 60 103 19 507 13 641
-10z m2435 4 c109 -11 214 -34 230 -50 7 -8 -32 -8 -130 -2 -190 11 -509 10
-570 -2 -41 -8 -11 -11 175 -16 175 -5 248 -11 327 -28 107 -22 153 -38 153
-53 0 -10 5 -10 -125 7 -118 16 -465 21 -465 7 0 -5 55 -12 123 -15 132 -7
288 -30 334 -48 44 -19 7 -22 -114 -10 -148 15 -405 13 -548 -4 -66 -8 -128
-15 -137 -15 -30 0 -20 19 22 40 22 11 40 23 40 26 0 3 -41 2 -91 -2 -111 -8
-112 2 -5 52 l71 33 -47 0 c-54 1 -63 9 -43 38 36 52 468 74 800 42z m-3305
-14 c0 -38 -28 -88 -46 -81 -11 4 -13 0 -9 -17 6 -26 -8 -52 -24 -43 -16 10
-14 41 4 56 8 7 15 23 15 36 0 13 4 24 8 24 5 0 14 11 20 25 15 32 32 32 32 0z
m1716 -26 c4 -7 0 -16 -9 -21 -15 -8 -15 -11 0 -43 21 -43 14 -51 -26 -30
l-32 16 17 -38 c9 -21 19 -46 22 -56 5 -18 3 -18 -27 -3 -36 19 -39 13 -11
-29 27 -41 27 -59 -1 -45 -32 18 -32 6 1 -25 33 -31 39 -55 14 -55 -11 0 -14
-6 -9 -20 9 -29 -10 -25 -35 8 -77 98 -64 230 31 316 42 38 54 43 65 25z m322
-5 c27 -19 28 -40 2 -56 -29 -19 -24 -31 10 -26 44 7 47 -8 8 -44 l-33 -31 43
7 c23 3 42 3 42 -1 0 -4 -12 -20 -27 -36 l-28 -29 28 7 c37 10 34 -6 -8 -44
-49 -42 -83 -59 -142 -67 -55 -7 -167 19 -161 37 2 6 39 13 83 15 98 6 126 19
64 29 -59 9 -109 25 -109 35 0 4 26 11 58 15 l57 7 -50 14 c-27 7 -53 13 -57
14 -5 0 -8 7 -8 15 0 11 12 15 43 16 49 1 91 14 67 21 -82 26 -104 35 -108 47
-4 10 2 12 24 8 42 -8 109 11 135 39 26 28 37 29 67 8z m398 -29 c7 -18 -33
-85 -50 -85 -24 0 -25 12 -3 56 21 44 43 56 53 29z m-2497 -122 c38 -22 39
-33 4 -33 -27 -1 -26 -3 30 -55 58 -53 63 -74 12 -55 -41 16 -27 -9 31 -52 57
-44 65 -58 32 -58 -20 -1 -14 -9 41 -60 50 -46 60 -59 45 -62 -15 -3 -5 -13
38 -43 68 -47 79 -74 21 -50 -149 62 -274 245 -308 448 -7 43 5 48 54 20z
m1431 8 c0 -20 -89 -96 -138 -119 -29 -13 -51 -26 -48 -29 2 -3 30 3 61 12 93
27 84 -1 -19 -61 -34 -20 -63 -38 -66 -41 -6 -7 59 3 83 12 12 5 17 2 17 -9 0
-20 -93 -80 -174 -113 -80 -33 -82 -37 -12 -28 74 9 68 -4 -18 -39 -124 -49
-253 -68 -426 -63 -163 4 -329 34 -360 64 -13 13 -5 14 70 7 116 -10 291 -10
373 0 38 4 67 9 65 11 -2 2 -66 6 -143 10 -77 3 -181 12 -230 20 -138 22 -253
61 -234 80 2 1 42 -4 89 -13 117 -21 473 -21 550 0 54 15 53 15 -95 12 -167
-4 -317 12 -454 49 -47 12 -86 28 -89 36 -4 11 3 13 29 7 97 -19 251 -28 409
-23 253 8 280 22 55 30 -200 7 -330 25 -450 62 -138 43 -145 64 -14 41 227
-39 349 -48 568 -43 277 7 443 41 543 112 35 24 58 31 58 16z m1039 -81 c33
-31 47 -50 37 -50 -9 0 -16 -4 -16 -9 0 -12 99 -101 128 -114 35 -16 26 -30
-15 -22 l-38 7 20 -22 c11 -12 42 -38 69 -58 38 -28 45 -37 32 -42 -14 -5 -9
-12 25 -40 62 -49 29 -49 -47 0 -79 52 -139 118 -182 199 -44 81 -85 201 -69
201 1 0 27 -22 56 -50z m1341 15 c-9 -11 -115 -66 -180 -93 l-25 -11 30 0 c28
0 53 4 143 24 50 12 39 -11 -20 -42 -29 -14 -91 -39 -138 -54 l-85 -27 38 -7
c21 -4 58 -5 82 -2 24 4 47 3 49 -2 10 -16 -25 -35 -137 -72 l-112 -38 90 5
c80 5 88 4 72 -9 -23 -19 -155 -55 -267 -73 -99 -16 -250 -18 -334 -4 -75 12
-166 38 -166 48 0 4 57 5 127 4 114 -3 280 5 271 13 -2 2 -64 8 -138 15 -171
15 -340 56 -340 82 0 6 10 8 23 4 61 -17 226 -25 334 -16 64 5 118 11 120 14
3 2 -22 7 -54 10 -244 25 -423 61 -453 93 -13 14 -11 14 25 9 22 -4 137 -8
255 -11 225 -4 224 -2 -20 31 -137 18 -190 31 -190 46 0 7 14 8 38 5 20 -3
100 -9 177 -13 228 -11 532 20 705 70 78 23 99 23 80 1z m-3057 -10 c9 -4 17
-12 17 -18 0 -7 -46 -8 -142 -4 -150 7 -188 13 -188 30 0 11 282 4 313 -8z
m2443 3 c16 -17 -11 -21 -115 -21 -125 1 -194 10 -185 25 7 11 288 7 300 -4z
m-1232 -134 c78 -4 87 -8 57 -23 -43 -23 -106 -24 -154 -3 -58 26 -63 47 -9
37 20 -4 68 -9 106 -11z m118 -104 l33 -30 -25 -19 -24 -19 39 -11 c22 -5 52
-13 68 -17 34 -8 34 -19 0 -37 -25 -14 -25 -15 -7 -25 10 -5 34 -13 52 -17 38
-8 41 -27 7 -49 -36 -24 -31 -36 15 -36 53 0 53 -21 0 -58 -21 -15 -39 -30
-40 -34 0 -4 18 -6 40 -4 46 5 49 -2 16 -33 -55 -51 -194 -80 -302 -63 -83 14
-144 31 -144 41 0 4 37 11 83 15 45 3 107 12 137 19 l55 13 -55 7 c-86 11
-210 39 -210 47 0 4 28 10 63 14 140 14 167 19 167 26 0 4 -19 10 -41 14 -61
10 -159 38 -159 46 0 4 29 10 64 13 35 3 79 12 97 20 l34 14 -50 6 c-64 9
-147 36 -140 46 2 5 28 11 56 14 56 7 92 27 49 27 -39 0 -101 20 -95 31 4 5
17 9 31 9 35 0 30 16 -8 24 -47 9 -23 24 47 29 33 2 72 4 87 5 19 1 39 -8 60
-28z m-367 -27 c-12 -33 -10 -38 28 -56 46 -23 39 -37 -19 -37 -24 0 -44 -3
-44 -8 0 -4 21 -20 48 -36 46 -28 47 -29 22 -38 -14 -5 -49 -7 -79 -4 -48 6
-53 5 -41 -9 7 -9 33 -28 57 -42 61 -35 55 -46 -22 -41 -36 2 -65 1 -65 -3 0
-10 57 -57 92 -75 32 -16 28 -38 -6 -31 -11 3 -37 8 -56 12 l-35 7 35 -37 c19
-20 47 -43 63 -51 15 -8 27 -19 27 -24 0 -13 -52 -13 -86 0 -15 6 -28 9 -30 7
-2 -2 14 -29 36 -60 49 -71 30 -75 -33 -8 -61 65 -82 134 -75 246 7 104 42
180 115 253 55 53 81 66 68 35z m-925 -186 c148 1 171 -1 150 -12 -97 -50
-331 -58 -442 -16 -90 35 -83 44 23 34 52 -4 173 -7 269 -6z m2600 3 c0 -16
-100 -41 -187 -47 -57 -4 -109 0 -173 12 -130 25 -127 39 6 33 92 -4 167 -2
332 10 12 1 22 -2 22 -8z m-1160 -274 c-24 -23 -115 -55 -190 -67 -75 -11
-169 -2 -225 22 -27 12 -11 14 140 20 104 5 188 13 215 22 25 8 52 15 60 16
13 1 13 -1 0 -13z m-65 -114 c-34 -32 -127 -65 -196 -70 -67 -5 -156 14 -192
40 -14 11 9 13 140 14 117 0 170 4 203 16 60 21 68 21 45 0z m-83 -238 c4 -54
16 -133 27 -174 10 -41 17 -79 14 -84 -15 -23 -100 -48 -167 -49 -113 -1 -160
25 -67 37 58 8 111 25 111 36 0 4 -30 10 -67 13 -38 3 -76 9 -85 12 -25 10
-12 25 21 25 36 0 131 28 131 39 0 4 -26 11 -58 14 -105 11 -124 31 -39 41 28
4 63 13 77 21 l25 13 -25 5 c-14 3 -47 9 -73 14 -27 4 -48 12 -48 17 0 6 32
17 71 27 39 9 73 19 76 22 3 3 -11 8 -32 12 -93 14 -144 27 -139 36 4 5 43 9
88 10 45 1 93 5 107 9 14 4 30 7 35 6 6 -2 13 -47 17 -102z m-337 -152 c-6
-88 -9 -103 -23 -100 -10 2 -16 12 -16 23 4 53 27 222 32 235 11 27 14 -51 7
-158z m-88 -64 c-2 -38 1 -44 38 -69 93 -66 285 -78 399 -26 64 30 73 44 58
93 -15 49 -1 52 135 25 210 -41 353 -115 353 -184 0 -85 -170 -164 -440 -203
-160 -23 -532 -15 -668 14 -114 25 -213 57 -238 78 -19 15 -18 15 1 9 46 -15
203 -54 240 -59 25 -3 9 5 -45 22 -84 28 -176 71 -153 72 6 0 49 -9 95 -20
123 -29 135 -23 29 15 -103 37 -197 90 -213 118 -23 44 81 95 280 137 131 28
131 28 129 -22z m-499 -211 c3 -21 0 -26 -12 -21 -24 9 -31 -38 -11 -79 39
-82 200 -151 420 -181 28 -4 35 -2 25 4 -8 5 -23 10 -33 10 -34 0 -236 72
-249 88 -11 13 -10 15 7 10 124 -34 189 -49 235 -54 55 -5 54 -4 -30 21 -103
32 -195 72 -212 93 -11 14 -10 15 7 7 50 -20 179 -54 270 -71 140 -25 526 -26
670 -1 128 22 237 53 297 83 56 28 118 81 118 99 0 44 63 14 86 -40 18 -44 7
-72 -50 -129 -212 -212 -883 -278 -1325 -130 -117 39 -174 69 -233 122 -74 67
-82 111 -32 172 31 36 48 35 52 -3z"/>
<path d="M1878 4473 c6 -2 18 -2 25 0 6 3 1 5 -13 5 -14 0 -19 -2 -12 -5z"/>
<path d="M1785 1153 c-11 -3 -41 -14 -67 -25 -54 -23 -61 -43 -25 -76 148
-139 864 -146 1083 -11 51 31 46 61 -15 87 -26 12 -68 24 -92 27 l-44 6 38
-21 c98 -54 41 -95 -188 -134 -278 -48 -733 16 -702 98 3 8 23 24 44 35 33 18
35 20 13 19 -14 0 -34 -3 -45 -5z"/>
<path d="M2850 1041 c-14 -14 -36 -34 -50 -44 l-25 -18 25 7 c41 10 111 55
107 67 -7 21 -31 16 -57 -12z"/>
<path d="M2890 997 c-19 -18 -46 -40 -60 -49 -24 -16 -23 -17 21 -2 51 17 83
44 77 68 -2 11 -12 7 -38 -17z"/>
<path d="M2999 934 c-8 -10 -41 -35 -74 -56 -63 -41 -46 -42 43 -3 53 24 73
48 55 66 -6 6 -15 4 -24 -7z"/>
<path d="M2945 827 c-80 -48 -71 -55 16 -11 42 21 77 51 68 57 -2 2 -40 -19
-84 -46z"/>
</g>
</svg>
