<?xml version="1.0" standalone="no"?>
<!DOCTYPE svg PUBLIC "-//W3C//DTD SVG 20010904//EN"
 "http://www.w3.org/TR/2001/REC-SVG-20010904/DTD/svg10.dtd">
<svg version="1.0" xmlns="http://www.w3.org/2000/svg"
 width="532.000000pt" height="469.000000pt" viewBox="0 0 532.000000 469.000000"
 preserveAspectRatio="xMidYMid meet">
<metadata>
Created by potrace 1.16, written by Peter Selinger 2001-2019
</metadata>
<g transform="translate(0.000000,469.000000) scale(0.100000,-0.100000)"
fill="#f1c88e" stroke="none">
<path d="M2108 4046 c-210 -119 -345 -268 -550 -605 -20 -34 -41 -61 -46 -61
-5 0 -9 18 -10 39 -2 49 -17 90 -44 119 -18 18 -32 22 -84 22 -60 0 -63 -1
-112 -48 -75 -70 -123 -186 -157 -384 -8 -46 -15 -107 -15 -136 0 -41 -4 -54
-17 -58 -24 -7 -72 -30 -103 -48 -14 -8 -47 -22 -75 -32 -27 -9 -70 -36 -95
-58 -25 -23 -62 -50 -83 -61 -22 -10 -47 -31 -58 -45 -22 -29 -22 -30 -70 -70
-20 -16 -43 -44 -50 -62 -7 -18 -30 -49 -51 -70 -24 -24 -39 -50 -44 -75 -4
-21 -18 -52 -30 -69 -13 -17 -27 -46 -30 -65 -4 -19 -17 -50 -30 -69 -13 -20
-27 -58 -30 -85 -3 -28 -15 -70 -26 -93 -16 -34 -19 -56 -15 -99 4 -41 2 -65
-10 -86 -11 -21 -14 -48 -11 -91 3 -39 0 -69 -9 -86 -17 -33 -17 -88 2 -139
10 -30 12 -49 5 -67 -15 -40 -12 -66 16 -122 18 -36 24 -61 20 -78 -8 -30 8
-87 34 -124 10 -14 23 -45 30 -68 6 -24 26 -60 44 -80 18 -20 36 -48 39 -62
11 -44 45 -89 96 -125 28 -20 52 -46 55 -61 11 -44 81 -109 155 -143 124 -57
376 -101 580 -101 l86 0 145 -73 c152 -77 310 -133 470 -168 117 -26 472 -39
509 -19 31 16 51 69 51 132 0 52 -23 217 -36 254 -3 11 18 -7 48 -39 30 -31
62 -57 71 -57 61 0 76 116 32 247 -56 166 -150 290 -426 563 -162 159 -203
205 -224 252 -32 71 -55 174 -55 258 -1 122 -36 206 -99 233 -14 6 -37 18 -51
28 -28 18 -96 30 -185 33 l-60 1 -23 80 c-13 44 -26 119 -29 166 l-6 86 36 35
c39 39 113 71 222 95 82 18 125 51 125 95 0 35 -24 83 -45 91 -45 18 11 25
258 30 284 7 376 18 463 56 l46 21 -42 50 c-23 28 -51 55 -61 60 -25 14 -119
109 -119 120 0 5 -15 25 -34 43 -18 19 -37 44 -41 56 -3 11 -21 32 -39 46 -24
18 -35 36 -40 64 -3 20 -15 46 -26 56 -13 12 -20 31 -20 54 0 20 -6 45 -14 56
-13 19 -23 82 -30 185 -2 25 -8 80 -14 123 -12 80 -3 208 18 247 22 42 12 40
-82 -14z m-2 -121 c-4 -16 -25 -34 -66 -56 -72 -38 -173 -128 -236 -210 -25
-32 -78 -113 -119 -179 -83 -134 -141 -214 -210 -285 -40 -40 -45 -49 -31 -57
24 -13 19 -28 -9 -28 -29 0 -105 -29 -105 -40 0 -4 10 -11 23 -14 19 -6 17 -9
-23 -25 -51 -20 -90 -43 -90 -52 0 -4 16 -10 35 -13 42 -8 38 -21 -7 -30 -18
-3 -58 -21 -88 -39 l-55 -32 45 -5 45 -5 -61 -33 c-58 -32 -160 -122 -138
-122 6 0 25 5 42 11 61 21 69 6 16 -29 -52 -33 -170 -149 -162 -158 3 -2 25 5
49 16 76 34 75 22 -7 -54 -69 -64 -163 -176 -138 -164 157 74 171 73 89 -3
-65 -61 -125 -140 -125 -164 0 -7 30 3 66 22 37 18 73 33 81 33 9 0 -11 -28
-45 -65 -50 -53 -132 -176 -132 -198 0 -3 38 15 85 39 47 25 85 43 85 40 0 -4
-20 -31 -44 -60 -45 -55 -108 -162 -121 -204 -5 -18 7 -13 72 34 42 31 86 60
97 66 18 10 18 8 -3 -18 -47 -62 -76 -112 -103 -179 -35 -90 -36 -103 0 -75
46 36 115 80 119 76 3 -2 -9 -31 -26 -64 -31 -61 -75 -204 -69 -223 2 -5 18
10 36 33 32 42 111 112 119 105 2 -2 -8 -29 -21 -60 -29 -63 -59 -202 -54
-244 3 -27 5 -25 34 27 34 59 130 169 119 135 -23 -69 -46 -181 -51 -245 l-6
-75 41 80 c36 73 163 229 145 180 -4 -11 -17 -47 -30 -81 -31 -84 -54 -201
-53 -276 l0 -63 23 62 c36 96 144 259 161 242 3 -3 -2 -26 -10 -50 -33 -91
-59 -359 -36 -359 5 0 12 16 15 35 10 52 80 185 121 230 23 25 34 33 30 20
-33 -101 -47 -178 -47 -254 -1 -88 10 -177 20 -167 3 3 16 48 29 98 60 241
230 473 452 619 65 43 71 49 47 49 -15 0 -68 -13 -118 -30 -49 -16 -92 -30
-95 -30 -15 0 57 65 121 108 76 52 70 61 -22 38 -33 -9 -61 -16 -63 -16 -2 0
-4 61 -4 134 l0 135 110 -107 c61 -59 151 -143 200 -186 154 -135 407 -397
474 -491 70 -99 106 -169 127 -248 12 -46 19 -107 11 -107 -1 0 -45 42 -97 94
-100 98 -198 169 -262 188 -21 6 -38 13 -38 15 0 23 39 68 72 83 37 16 38 19
18 25 -37 12 -87 -4 -114 -36 -23 -27 -26 -40 -26 -102 1 -142 53 -307 141
-441 55 -83 103 -123 126 -104 17 14 17 98 -2 222 -17 114 -17 120 -4 86 33
-82 59 -303 40 -338 -21 -40 -60 -28 -152 48 -44 36 -44 30 -3 -27 13 -17 24
-35 24 -39 0 -16 -249 5 -364 31 -391 88 -728 283 -938 544 -249 308 -379 646
-380 986 -1 226 45 421 148 626 110 221 228 372 500 639 192 188 202 200 284
335 133 219 228 330 388 456 75 59 90 62 78 14z m29 -320 c0 -11 -17 -28 -45
-43 -58 -32 -101 -67 -228 -186 -95 -89 -136 -121 -100 -78 8 9 40 49 72 87
96 116 176 193 230 220 55 28 71 28 71 0z m-722 -107 c11 -8 21 -38 28 -77 12
-74 5 -92 -11 -30 -22 87 -27 87 -32 2 -8 -104 -27 -146 -28 -58 -1 113 -11
118 -36 20 -12 -50 -29 -106 -37 -125 -15 -34 -16 -32 -10 65 3 55 3 98 0 95
-3 -3 -20 -50 -37 -105 -34 -106 -87 -231 -95 -224 -7 8 32 185 61 271 45 137
134 211 197 166z m737 -3 c18 -21 3 -51 -33 -66 -18 -7 -101 -59 -185 -116
-84 -56 -152 -99 -150 -95 9 21 232 221 282 254 67 43 69 44 86 23z m54 -147
c20 -28 20 -47 1 -69 -15 -15 -13 -17 18 -23 19 -3 44 -17 56 -30 l22 -24 -22
-16 c-21 -15 -22 -16 -3 -22 90 -29 107 -46 73 -72 l-22 -19 39 -7 c52 -8 94
-40 77 -57 -20 -20 -16 -26 21 -33 37 -7 85 -40 75 -51 -21 -20 -200 -37 -474
-44 -275 -7 -304 -9 -348 -29 -69 -31 -152 -114 -188 -189 -72 -150 -48 -425
56 -651 20 -41 34 -77 32 -78 -2 -2 -41 10 -88 27 -67 24 -94 29 -131 24 -69
-8 -61 11 13 32 54 15 58 18 37 26 -23 9 -178 3 -214 -9 -12 -3 -6 6 15 25 33
29 146 81 176 81 8 0 15 4 15 9 0 19 -134 33 -215 22 -43 -6 -80 -9 -82 -7 -9
9 92 58 171 84 47 15 86 30 86 34 1 24 -184 37 -263 19 -52 -12 -35 7 37 42
49 24 95 38 201 62 59 13 -4 28 -137 33 -71 3 -125 9 -122 14 9 15 117 66 179
83 54 16 57 19 40 31 -28 20 -83 34 -138 34 -29 0 -46 4 -42 10 10 16 135 50
185 50 27 0 51 4 54 9 10 15 -58 51 -108 57 -60 9 -66 19 -19 35 44 14 121 17
178 6 l40 -7 -39 35 c-22 19 -57 40 -78 47 -20 6 -35 14 -33 19 9 13 99 20
143 11 24 -6 42 -6 42 -1 0 16 -41 50 -81 68 -75 34 -8 43 90 12 59 -18 60
-18 51 0 -6 10 -31 30 -55 45 -45 26 -64 45 -23 23 18 -10 20 -9 15 5 -9 22 1
20 41 -10 l34 -27 -6 24 c-6 19 1 15 34 -20 l41 -45 57 56 c85 83 200 153 335
203 51 19 72 37 35 28 -89 -20 -182 -50 -246 -79 -41 -19 -77 -33 -79 -31 -8
8 194 146 284 194 109 58 135 63 157 31z m-1540 -790 c2 -13 14 -63 26 -113
12 -49 24 -100 27 -112 9 -39 -10 -25 -57 42 -25 35 -48 64 -51 65 -13 0 4
-109 28 -175 35 -101 36 -105 25 -105 -6 0 -38 30 -72 68 -62 66 -62 67 -55
32 9 -45 59 -164 83 -198 51 -73 34 -70 -53 10 l-68 63 6 -35 c10 -52 61 -149
103 -198 20 -24 34 -45 31 -48 -7 -7 -103 54 -150 96 -20 18 -37 29 -37 25 0
-3 14 -34 31 -68 35 -72 102 -161 141 -190 16 -12 28 -24 28 -28 0 -18 -149
49 -187 84 -36 32 -36 15 -1 -39 34 -51 122 -145 172 -182 16 -12 27 -25 24
-27 -7 -7 -175 52 -215 76 -52 29 -39 4 36 -70 42 -43 98 -85 145 -111 42 -23
75 -44 73 -46 -7 -7 -170 27 -221 46 -27 11 -52 17 -54 15 -8 -8 69 -76 132
-117 33 -21 98 -53 145 -71 l86 -32 -71 -3 c-61 -2 -125 7 -234 33 -24 6 -24
6 5 -20 51 -44 155 -98 253 -132 51 -17 96 -34 99 -37 4 -3 -29 -6 -73 -6 -71
0 -160 18 -229 45 -17 7 -17 5 5 -19 50 -55 187 -117 327 -147 l58 -12 -35 -9
c-43 -10 -161 -1 -232 17 -29 8 -54 13 -56 10 -7 -7 103 -75 163 -99 62 -25
195 -56 240 -56 15 0 24 -4 20 -10 -8 -13 -142 -13 -219 0 -33 5 -62 7 -64 5
-16 -16 274 -122 398 -145 101 -19 95 -30 -17 -30 -192 0 -347 41 -428 112
-39 34 -46 46 -42 68 5 22 0 29 -43 53 -67 38 -103 83 -96 118 4 23 0 32 -23
48 -38 27 -63 79 -50 103 8 15 4 23 -19 43 -16 13 -39 44 -52 69 -23 43 -24
45 -6 64 11 13 14 22 7 27 -19 11 -51 83 -51 114 0 16 7 36 15 44 12 13 12 19
-5 53 -26 51 -27 129 -2 145 17 11 17 15 6 48 -7 20 -13 45 -14 57 0 35 21 84
37 84 11 0 13 6 8 23 -29 95 -23 150 16 162 15 5 18 12 12 28 -14 40 -5 89 20
116 15 16 27 43 30 70 3 28 15 53 31 70 14 15 26 39 26 53 0 31 38 90 67 103
12 5 24 19 27 31 7 25 44 74 57 74 5 0 11 -10 13 -22z m1108 -486 c15 -1 33
-8 40 -15 7 -6 26 -17 43 -22 58 -20 76 -66 88 -234 6 -73 -7 -54 -58 85 l-40
109 -5 -57 c-3 -31 -8 -59 -12 -63 -6 -6 -48 95 -48 115 0 6 -4 10 -10 10 -5
0 -10 -13 -10 -30 0 -41 -15 -38 -34 8 -14 34 -16 35 -22 15 -9 -33 -18 -29
-40 18 -26 60 -11 68 108 61z m-436 -167 c59 -30 57 -30 49 -5 -5 15 0 21 19
26 36 9 61 -3 101 -44 33 -35 35 -36 35 -13 0 20 3 22 28 17 69 -17 119 -116
128 -256 l5 -75 -22 40 c-26 50 -109 185 -113 185 -2 0 10 -46 25 -102 35
-123 36 -135 5 -82 -35 62 -155 218 -156 203 0 -4 22 -58 48 -120 61 -143 83
-199 78 -199 -2 0 -18 22 -35 48 -38 60 -150 171 -218 217 -29 19 -55 35 -57
35 -3 0 27 -42 67 -93 71 -91 197 -278 197 -293 0 -4 -30 23 -67 59 -128 126
-255 206 -407 257 l-78 27 33 38 c40 45 83 65 141 65 l43 1 -28 23 c-23 18
-26 25 -15 34 47 38 126 41 194 7z"/>
<path d="M1870 1264 c-163 -108 -273 -273 -315 -474 -19 -92 -20 -184 -1 -199
16 -14 19 -11 36 44 15 47 88 195 96 195 3 0 2 -70 -2 -156 -5 -128 -4 -158 7
-165 22 -14 29 -11 29 14 1 30 38 118 85 203 38 67 40 68 45 39 5 -27 10 -31
50 -36 25 -3 52 -9 61 -13 12 -5 20 4 34 36 l18 43 8 -175 c4 -96 12 -186 18
-200 l10 -25 0 25 c1 32 50 223 59 232 5 5 27 -21 50 -57 37 -55 137 -155 156
-155 3 0 -11 35 -32 78 -22 42 -52 115 -68 162 -25 74 -29 99 -29 200 0 101 3
120 23 153 12 21 22 40 22 43 0 10 -39 -17 -88 -61 -29 -26 -52 -43 -52 -38 0
21 29 111 44 141 10 19 15 36 12 39 -6 7 -72 -42 -156 -117 -52 -45 -61 -50
-55 -30 12 40 71 152 100 190 54 72 -11 43 -157 -72 -49 -37 -88 -65 -88 -62
0 19 67 127 105 171 67 76 60 83 -25 27z"/>
<path d="M1885 692 c-66 -14 -90 -111 -38 -152 30 -24 41 -13 22 21 -10 19 -9
25 7 36 15 11 20 10 36 -4 10 -9 18 -27 18 -40 0 -30 14 -29 39 3 50 63 -5
152 -84 136z"/>
<path d="M2060 3145 c-110 -23 -247 -83 -286 -126 -16 -17 -12 -17 37 4 30 13
92 34 139 46 145 38 249 71 255 81 9 14 -66 11 -145 -5z"/>
<path d="M2685 3960 c-11 -4 -29 -18 -40 -30 -18 -20 -20 -35 -19 -129 1 -58
9 -136 17 -173 8 -38 12 -68 8 -68 -3 0 -25 23 -49 50 -129 150 -171 -64 -57
-290 59 -117 153 -231 373 -450 264 -263 274 -282 292 -531 11 -150 27 -185
110 -233 73 -43 83 -46 196 -54 l88 -7 24 -75 c13 -41 26 -113 29 -160 5 -82
5 -86 -22 -118 -37 -44 -89 -69 -202 -98 -51 -13 -102 -28 -113 -34 -49 -26
-54 -94 -9 -145 22 -25 27 -36 17 -39 -7 -3 -137 -7 -288 -9 -241 -4 -285 -7
-354 -26 -44 -12 -90 -28 -103 -36 l-23 -16 36 -44 c20 -24 52 -52 70 -61 19
-10 34 -22 34 -27 0 -5 19 -29 43 -53 56 -58 99 -112 117 -147 8 -16 27 -36
42 -45 19 -11 28 -24 28 -43 0 -14 11 -43 25 -63 14 -20 25 -48 25 -62 0 -14
7 -39 17 -57 9 -18 18 -57 20 -87 5 -90 10 -140 21 -223 13 -90 3 -197 -22
-245 -9 -18 -14 -32 -11 -32 3 0 29 12 58 26 219 111 375 275 577 608 60 98
57 98 74 -6 4 -21 17 -50 30 -65 19 -22 33 -27 82 -31 57 -4 62 -2 110 36 56
44 98 120 133 237 26 89 51 234 51 295 l0 48 83 40 c45 21 103 49 130 61 26
11 67 39 91 61 24 22 49 40 56 40 7 0 37 24 65 53 29 28 64 60 78 69 13 9 33
36 45 60 11 24 32 54 47 68 32 30 55 71 55 101 0 11 11 34 25 51 14 16 27 42
30 56 3 15 17 48 30 73 13 25 27 65 31 90 3 24 15 63 26 87 16 33 19 57 16
100 -3 37 0 69 9 91 8 20 14 58 12 90 -1 31 4 75 11 99 11 36 11 53 1 95 -7
29 -12 63 -12 77 1 14 2 46 3 72 1 31 -5 55 -17 75 -13 18 -20 48 -21 85 -1
40 -8 68 -26 100 -14 23 -31 60 -38 82 -7 21 -27 55 -44 75 -18 20 -38 55 -44
78 -9 29 -29 56 -68 92 -31 28 -60 51 -65 51 -5 0 -9 8 -9 18 0 33 -58 100
-112 132 -67 38 -180 75 -295 94 -97 17 -388 40 -401 32 -5 -3 -74 28 -153 68
-218 110 -425 172 -644 195 -112 12 -300 12 -330 1z m103 -85 c51 -44 120
-153 178 -282 52 -115 56 -110 13 14 -36 100 -90 213 -126 261 -31 42 -20 47
90 38 321 -27 606 -127 886 -313 273 -181 508 -511 614 -863 47 -153 60 -248
60 -410 -2 -331 -122 -639 -373 -955 -63 -79 -194 -214 -361 -371 -55 -52
-107 -114 -145 -172 -33 -50 -90 -140 -129 -199 -73 -114 -216 -267 -328 -352
-60 -46 -73 -48 -63 -8 4 17 28 38 77 67 39 23 103 74 143 114 68 69 108 124
249 344 81 128 177 240 262 306 23 17 33 31 26 35 -6 4 5 14 28 24 21 9 46 26
56 37 18 20 17 20 -21 20 -21 0 -50 3 -64 7 -19 5 -12 9 39 19 38 8 74 22 88
35 30 29 29 37 -2 31 -14 -2 -42 -1 -62 3 l-38 8 65 16 c36 10 80 25 97 34 33
17 107 86 101 93 -2 2 -22 -3 -43 -11 -46 -16 -125 -20 -125 -5 0 6 8 10 19
10 50 0 240 125 220 144 -3 3 -23 -1 -44 -9 -49 -17 -185 -20 -145 -3 103 44
158 77 208 125 31 30 48 52 37 48 -48 -15 -160 -35 -198 -35 l-42 1 56 23 c77
32 168 96 218 152 48 55 52 70 14 50 -40 -20 -161 -56 -190 -56 -20 0 -10 10
49 49 40 27 91 69 114 93 46 49 99 118 90 118 -3 0 -32 -14 -65 -30 -63 -32
-172 -73 -178 -66 -2 2 20 21 49 43 96 73 157 147 187 226 11 27 10 27 -42
-12 -57 -43 -112 -72 -170 -91 -52 -16 -55 -8 -10 22 71 47 143 130 184 212
21 43 37 81 35 83 -2 3 -13 0 -24 -6 -12 -6 -39 -11 -62 -11 l-42 0 25 43 c26
44 57 137 57 170 0 13 -13 -1 -38 -39 -37 -57 -112 -134 -131 -134 -17 0 -41
12 -41 21 0 4 21 41 47 80 52 81 77 142 88 209 l7 45 -45 -75 c-25 -41 -64
-96 -87 -122 -43 -50 -98 -94 -106 -86 -2 3 14 33 38 68 54 81 108 236 108
310 l0 55 -33 -60 c-49 -90 -89 -145 -153 -208 -59 -58 -90 -75 -60 -34 86
120 136 256 142 382 l4 90 -19 -52 c-36 -96 -84 -174 -154 -249 -87 -93 -126
-118 -75 -48 52 71 87 146 109 232 19 75 26 212 11 212 -4 0 -13 -21 -20 -47
-21 -78 -97 -224 -147 -280 -26 -29 -50 -53 -55 -53 -5 0 5 26 20 58 37 73 59
157 67 253 5 71 -3 196 -13 186 -2 -2 -11 -30 -19 -62 -66 -253 -242 -457
-497 -575 -54 -25 -98 -48 -98 -52 0 -5 21 -9 48 -10 73 -3 84 -2 125 4 35 6
37 5 25 -9 -7 -9 -35 -26 -62 -39 l-50 -23 28 -11 c15 -5 48 -10 72 -10 50 0
51 -10 1 -40 l-31 -19 47 -21 c40 -18 47 -25 47 -50 0 -15 3 -37 6 -47 4 -10
-24 12 -62 48 -38 36 -132 121 -209 190 -405 359 -607 618 -622 800 l-6 64 79
-79 c79 -78 229 -186 291 -208 18 -7 33 -18 33 -25 0 -20 -47 -27 -82 -12 -47
19 -180 122 -229 177 -40 45 -42 46 -35 17 14 -61 66 -155 108 -198 24 -24 69
-55 99 -70 52 -25 53 -26 22 -27 -39 0 -42 -12 -10 -32 39 -26 66 -30 97 -14
41 20 38 1 -5 -40 -21 -19 -31 -35 -25 -39 15 -9 89 4 123 21 41 22 36 -6 -10
-58 l-38 -41 53 6 c30 3 74 17 98 31 43 24 44 24 33 3 -6 -12 -30 -42 -53 -66
l-41 -44 45 7 c24 4 71 18 103 31 l59 24 -28 -31 c-16 -16 -49 -42 -74 -56
-63 -37 -30 -41 73 -8 134 41 224 109 303 227 41 62 79 142 99 209 5 15 -10 2
-37 -35 -25 -33 -65 -79 -89 -101 -46 -44 -130 -106 -135 -101 -2 2 8 25 21
52 29 60 58 180 53 225 l-3 33 -39 -57 c-35 -51 -164 -182 -171 -174 -2 2 5
35 16 73 12 45 18 93 17 135 l-3 64 -37 -74 c-20 -41 -59 -100 -87 -130 l-50
-55 6 70 c4 49 0 90 -11 135 -21 81 -36 99 -36 42 0 -58 -19 -139 -36 -153
-12 -10 -14 0 -14 67 0 104 -30 227 -84 339 -68 143 -161 245 -187 204 -13
-21 -11 -101 6 -213 16 -103 14 -136 -4 -70 -21 82 -30 133 -37 210 -11 136
23 168 104 99z m1513 -300 c86 -18 147 -43 203 -82 48 -34 70 -78 46 -93 -9
-6 2 -16 36 -33 79 -40 130 -103 109 -136 -3 -6 10 -24 29 -41 37 -33 59 -80
46 -100 -6 -9 6 -30 35 -62 51 -57 65 -96 39 -115 -17 -12 -16 -14 4 -35 41
-45 55 -117 26 -149 -14 -15 -13 -20 5 -50 32 -52 27 -149 -6 -149 -10 0 -13
-5 -8 -17 31 -76 29 -142 -5 -166 -18 -13 -18 -16 -4 -63 17 -59 11 -99 -21
-120 -20 -13 -22 -20 -15 -44 11 -38 -5 -97 -31 -113 -12 -8 -19 -23 -19 -45
0 -36 -20 -81 -44 -101 -9 -8 -16 -25 -16 -40 0 -31 -45 -101 -64 -101 -8 0
-24 -20 -36 -44 -21 -44 -46 -73 -55 -64 -3 3 -10 31 -16 64 -5 32 -20 89 -32
126 -33 105 -14 102 62 -10 16 -24 32 -38 36 -33 9 16 -14 129 -41 195 -13 33
-24 66 -24 75 0 9 30 -14 71 -54 64 -64 70 -67 63 -40 -13 58 -44 132 -79 190
-20 32 -33 60 -31 62 2 2 36 -23 75 -57 45 -39 71 -55 71 -45 0 29 -60 148
-102 202 -22 29 -39 55 -36 58 5 5 108 -62 148 -99 18 -15 34 -25 37 -23 12
13 -75 153 -134 217 -36 39 -60 70 -54 70 18 0 138 -56 171 -80 74 -53 -6 65
-112 165 -44 41 -75 75 -69 75 21 0 167 -52 200 -71 18 -11 36 -17 39 -14 12
12 -155 161 -216 193 -35 19 -61 36 -58 39 8 9 136 -18 206 -43 35 -13 66 -22
67 -20 2 2 -22 26 -52 55 -61 55 -145 105 -240 142 -33 13 -64 27 -70 32 -17
16 180 -2 247 -23 34 -10 64 -18 66 -16 1 2 -14 18 -35 35 -51 43 -201 115
-288 139 l-70 20 38 7 c52 10 150 -2 230 -29 37 -12 67 -19 67 -14 0 16 -97
78 -170 109 -41 17 -109 39 -152 47 -43 9 -78 21 -78 26 0 13 218 0 273 -17
26 -8 47 -12 47 -8 0 3 -30 25 -67 48 -79 48 -195 90 -279 99 -120 14 -90 25
54 21 79 -2 140 -1 135 4 -30 30 -265 111 -408 140 -56 12 -58 13 -30 20 40
10 203 1 286 -16z m-361 -984 c89 -59 164 -93 252 -113 26 -6 48 -16 48 -21 0
-20 -41 -65 -74 -81 -19 -9 -57 -16 -85 -16 -28 0 -51 -3 -51 -7 0 -4 12 -17
28 -29 l27 -22 -45 -21 c-59 -27 -94 -26 -157 4 -49 22 -53 23 -53 6 0 -47
-83 -30 -130 27 l-30 37 0 -28 c0 -25 -3 -27 -22 -21 -68 20 -112 119 -132
294 l-6 55 47 -95 c44 -88 93 -164 93 -145 0 4 -14 51 -30 103 -37 115 -36
146 4 77 37 -64 136 -198 142 -192 3 3 -15 49 -39 103 -43 96 -87 208 -87 221
0 3 17 -20 38 -53 56 -86 133 -165 212 -220 38 -26 72 -46 74 -43 2 2 -34 51
-81 109 -85 106 -203 274 -203 290 0 5 39 -29 86 -76 47 -46 125 -110 174
-143z m-619 -271 l44 -115 6 58 c4 32 8 60 11 62 2 2 15 -25 28 -60 26 -70 40
-82 40 -35 0 41 14 38 32 -7 15 -38 15 -38 25 -13 10 24 10 24 32 -19 19 -37
21 -46 9 -57 -24 -25 -126 -18 -157 10 -10 9 -25 16 -35 16 -31 0 -63 44 -74
101 -13 66 -21 192 -11 181 4 -4 26 -59 50 -122z m383 -171 c23 -6 73 -14 111
-18 l70 -8 -38 -17 c-22 -9 -63 -22 -93 -28 -30 -6 -54 -14 -54 -19 0 -14 64
-47 124 -64 69 -20 62 -28 -36 -46 -38 -7 -68 -16 -68 -20 0 -14 67 -49 119
-61 28 -6 48 -15 44 -19 -7 -6 -124 -29 -150 -29 -6 0 -13 24 -16 53 -8 68
-41 192 -67 252 -18 41 -18 46 -4 41 9 -4 35 -11 58 -17z m64 -368 c35 -28
116 -61 147 -61 8 0 15 -4 15 -10 0 -5 -44 -11 -97 -12 l-98 -3 42 -42 c23
-23 58 -47 78 -54 58 -21 40 -31 -50 -28 -47 2 -85 0 -85 -4 0 -22 47 -70 93
-97 l52 -30 -35 0 c-20 0 -62 7 -94 15 -33 9 -61 13 -64 11 -8 -9 41 -68 81
-97 31 -22 35 -29 20 -29 -19 0 -88 19 -125 35 -34 14 -19 -23 34 -81 58 -62
48 -67 -41 -18 -24 13 -46 24 -48 24 -9 0 10 -66 28 -99 11 -18 18 -36 15 -38
-6 -7 -58 45 -74 72 -10 19 -13 18 -47 -23 -52 -61 -147 -125 -266 -181 -57
-26 -115 -53 -129 -60 -22 -10 -21 -11 15 -5 62 9 215 61 264 89 74 43 58 20
-35 -48 -97 -72 -203 -136 -283 -169 l-53 -23 -20 25 c-19 23 -20 44 -3 83 6
14 2 17 -19 17 -15 0 -38 11 -52 25 l-25 26 21 17 22 18 -39 12 c-22 6 -48 21
-57 31 -17 19 -17 20 5 31 17 10 19 14 8 21 -8 5 -24 9 -36 9 -12 0 -35 11
-50 24 -22 20 -26 27 -15 37 19 20 15 26 -26 32 -41 7 -81 31 -70 42 25 25
142 37 438 44 342 9 359 12 444 70 59 41 93 83 130 161 26 56 31 79 34 168 3
56 6 102 9 102 2 0 21 -13 41 -29z m273 -754 c-6 -29 -25 -97 -43 -151 -27
-85 -38 -106 -79 -148 -26 -26 -54 -48 -62 -48 -28 0 -66 19 -75 37 -14 28
-25 113 -14 113 5 0 13 -20 16 -45 11 -69 23 -62 28 18 3 40 10 82 16 92 9 17
11 10 12 -40 1 -110 11 -116 36 -18 12 48 29 106 38 128 14 39 15 38 10 -65
l-4 -105 29 88 c16 48 44 124 62 169 28 67 35 77 37 54 2 -15 -1 -50 -7 -79z
m-711 -148 c-174 -167 -269 -223 -278 -162 -2 14 5 27 20 36 13 7 59 35 103
61 44 26 121 76 170 111 50 36 92 65 95 64 3 0 -47 -50 -110 -110z m31 -87
c-111 -132 -153 -172 -211 -202 -96 -49 -108 -8 -14 51 36 23 121 93 187 155
67 62 125 113 129 114 4 0 -37 -53 -91 -118z"/>
<path d="M3334 3642 c8 -16 11 -34 7 -41 -14 -23 -45 -8 -56 27 -11 37 -28 41
-49 10 -59 -84 52 -181 130 -114 37 31 38 84 4 121 -34 36 -55 34 -36 -3z"/>
<path d="M3394 1169 c-23 -10 -102 -35 -175 -54 -219 -58 -263 -81 -134 -71
120 9 272 63 345 125 31 25 18 25 -36 0z"/>
</g>
</svg>
