<?xml version="1.0" standalone="no"?>
<!DOCTYPE svg PUBLIC "-//W3C//DTD SVG 20010904//EN"
 "http://www.w3.org/TR/2001/REC-SVG-20010904/DTD/svg10.dtd">
<svg version="1.0" xmlns="http://www.w3.org/2000/svg"
 width="512.000000pt" height="487.000000pt" viewBox="0 0 512.000000 487.000000"
 preserveAspectRatio="xMidYMid meet">

<g transform="translate(0.000000,487.000000) scale(0.100000,-0.100000)"
fill="#f1c88e" stroke="none">
<path d="M1458 4789 c-21 -12 -24 -49 -6 -67 19 -19 56 -14 70 8 17 27 32 25
57 -6 16 -21 21 -41 21 -88 0 -114 -34 -191 -184 -418 -97 -147 -151 -255
-176 -355 l-14 -53 -262 0 -263 0 -3 26 c-6 49 -29 52 -110 15 -40 -18 -88
-38 -105 -44 -34 -11 -44 -27 -18 -27 8 0 55 -18 104 -40 51 -23 96 -37 105
-34 10 4 20 20 23 35 l6 29 216 -2 c186 -3 215 -5 212 -18 -3 -8 -6 -50 -9
-93 -6 -107 13 -156 72 -188 35 -18 46 -31 56 -63 21 -71 87 -187 175 -306
154 -209 205 -358 160 -465 -18 -45 -41 -54 -61 -26 -17 23 -53 28 -72 9 -17
-17 -15 -53 3 -68 23 -19 111 -7 143 19 59 48 113 83 505 337 l407 263 34 -68
c19 -37 50 -86 70 -110 22 -26 36 -54 36 -70 0 -15 11 -50 25 -77 14 -27 25
-65 25 -84 0 -19 5 -52 11 -74 9 -34 8 -41 -13 -63 -39 -43 -125 -103 -200
-138 -110 -53 -197 -69 -347 -62 -108 4 -147 11 -271 47 -137 39 -151 41 -252
37 -102 -3 -112 -6 -190 -44 -64 -32 -99 -42 -153 -47 -166 -13 -179 -17 -280
-67 -55 -27 -118 -65 -140 -85 -22 -20 -52 -42 -66 -50 -69 -36 -143 -162
-181 -307 -18 -70 -21 -114 -23 -302 -1 -174 -5 -231 -18 -275 -9 -30 -20 -60
-24 -66 -16 -22 -47 -32 -71 -23 -30 12 -37 7 -23 -19 23 -44 132 -60 215 -32
22 7 58 29 80 49 23 21 63 50 89 65 26 15 62 47 80 70 18 24 51 66 74 95 66
82 75 124 72 368 -3 196 -2 211 20 266 12 31 34 71 49 89 32 38 102 89 112 83
5 -3 2 -26 -6 -52 -18 -59 -18 -223 0 -288 7 -27 33 -97 57 -155 44 -105 44
-106 43 -225 0 -140 -14 -187 -94 -326 -28 -48 -53 -100 -56 -116 -8 -39 14
-89 68 -155 63 -77 87 -132 99 -229 6 -46 19 -102 29 -124 15 -35 16 -51 8
-118 -8 -57 -7 -85 1 -103 21 -47 201 -114 306 -114 51 0 140 24 150 40 3 5
-8 35 -24 67 -34 67 -61 167 -61 231 0 63 -23 107 -85 165 -66 63 -151 202
-160 262 -10 60 6 83 109 160 185 140 321 297 347 402 17 66 31 40 36 -69 4
-65 0 -114 -11 -161 -32 -134 -23 -165 89 -332 74 -111 105 -181 105 -236 0
-35 24 -95 48 -122 16 -18 30 -102 36 -212 3 -70 19 -93 84 -123 98 -45 244
-41 345 10 20 10 37 21 37 23 0 3 -19 29 -43 58 -24 30 -58 79 -75 109 -18 31
-43 63 -57 72 -36 24 -68 91 -60 127 11 50 -4 86 -70 159 -94 105 -110 143
-110 266 l0 101 55 60 c101 110 158 240 144 327 -5 34 -4 37 12 32 106 -31
295 -32 409 0 85 23 195 80 266 137 69 56 81 56 111 -4 10 -19 25 -39 34 -46
22 -16 12 -53 -26 -96 -16 -19 -35 -51 -42 -73 -9 -26 -30 -52 -68 -82 -71
-57 -84 -82 -77 -143 16 -135 121 -250 250 -274 31 -6 33 -5 60 59 16 36 50
90 77 120 39 45 50 65 55 103 3 27 10 68 15 93 14 64 14 81 0 217 -12 111 -12
129 5 202 15 68 16 84 5 112 -14 32 -82 89 -107 89 -30 0 -9 18 55 47 86 40
125 45 130 18 5 -26 30 -53 64 -71 31 -16 58 -70 58 -116 0 -23 -17 -47 -75
-108 -67 -70 -75 -83 -75 -117 0 -77 76 -175 168 -219 58 -28 82 -26 82 5 0
42 48 151 79 180 17 16 31 36 31 44 0 8 14 41 30 72 17 31 30 64 30 72 0 8
-20 52 -45 97 -52 95 -75 176 -75 261 0 111 -26 127 -220 135 -129 5 -150 8
-190 30 -24 14 -54 40 -67 59 -20 30 -22 44 -20 130 l2 96 -47 86 c-99 185
-73 295 122 529 40 47 80 101 90 120 16 32 25 37 79 48 34 7 96 31 139 53 42
22 100 48 127 57 28 10 94 48 147 86 84 57 99 73 109 106 18 60 3 98 -51 132
-109 67 -123 72 -191 73 -63 0 -75 -4 -193 -64 -157 -79 -184 -83 -294 -42
-113 42 -150 41 -233 -9 -37 -22 -79 -44 -93 -50 -16 -6 -26 -17 -26 -30 0
-22 -50 -50 -90 -50 -29 0 -27 51 5 88 14 17 37 56 51 87 23 50 26 67 22 136
-6 96 9 105 34 21 19 -65 62 -114 105 -118 15 -2 48 -7 73 -13 54 -11 59 -8
34 20 l-19 21 50 -7 50 -7 -37 32 c-36 30 -49 64 -29 72 15 5 -21 101 -53 142
-39 51 -97 78 -181 83 -335 22 -355 22 -453 -17 -93 -37 -138 -72 -147 -116
-4 -16 -8 -35 -10 -41 -3 -8 -71 31 -177 101 -95 62 -306 200 -468 306 -162
106 -297 197 -298 202 -2 5 -21 17 -43 28 -41 22 -94 25 -121 9z m634 -398
c244 -159 448 -294 455 -300 9 -8 9 -19 1 -42 -9 -25 -8 -37 5 -58 15 -25 15
-29 -3 -57 -26 -38 -25 -47 7 -95 38 -57 26 -72 -66 -81 -45 -5 -91 -17 -122
-33 -45 -22 -55 -24 -97 -14 -57 13 -142 4 -200 -22 l-44 -19 -49 25 c-68 35
-143 41 -279 21 -81 -12 -129 -14 -162 -8 -49 10 -98 35 -98 52 0 6 178 10
489 10 481 0 533 3 490 31 -8 5 -244 9 -525 9 l-511 0 -22 24 c-23 24 -23 25
-6 78 24 72 53 128 153 296 104 177 132 257 132 382 0 50 2 90 5 90 2 0 203
-130 447 -289z m1015 -107 c27 -27 25 -46 -3 -23 -16 13 -16 11 0 -20 10 -18
14 -32 9 -30 -18 7 -83 86 -76 93 14 13 45 5 70 -20z m-141 -61 c-11 -11 -17
4 -9 23 7 18 8 18 11 1 2 -10 1 -21 -2 -24z m-46 5 c0 -19 -18 -43 -25 -36 -4
3 -2 16 5 27 12 24 20 27 20 9z m318 -38 c15 -18 56 -104 66 -140 6 -22 2 -20
-29 14 l-35 39 0 -28 c0 -46 -18 -17 -34 55 -8 36 -18 76 -22 90 l-7 25 24
-20 c13 -11 30 -27 37 -35z m44 33 c22 -25 65 -104 73 -133 l7 -25 -20 20
c-18 17 -92 139 -92 151 0 10 18 2 32 -13z m62 -15 c24 -34 19 -44 -9 -18 -14
13 -25 27 -25 32 0 16 19 8 34 -14z m-530 -15 l-7 -28 27 24 c33 31 34 17 1
-31 -32 -47 -31 -52 5 -33 37 19 38 12 5 -27 -28 -33 -34 -58 -10 -38 21 17
29 7 16 -19 -10 -18 -9 -20 6 -14 13 5 15 3 8 -13 -4 -10 -10 -46 -12 -79 -3
-33 -9 -64 -14 -70 -6 -5 -9 -3 -9 5 -1 8 -8 2 -17 -15 -15 -27 -17 -28 -24
-10 -7 17 -8 18 -8 2 -1 -10 -9 -21 -18 -24 -10 -4 -21 -11 -24 -16 -6 -9 -54
33 -61 53 -2 7 -28 14 -58 16 -29 3 -56 6 -58 9 -2 2 5 17 17 33 25 36 26 55
5 86 -14 22 -14 28 0 61 9 21 16 53 16 72 0 37 19 37 21 0 0 -14 2 -17 6 -7 2
8 7 22 10 30 3 11 8 7 16 -14 l12 -28 14 38 c14 37 15 38 21 14 l6 -25 17 33
c20 37 37 42 37 10 1 -22 1 -22 21 5 11 15 25 27 30 27 5 0 6 -12 3 -27z m172
-208 c17 -27 14 -76 -7 -102 -13 -15 -45 -17 -54 -3 -9 15 27 71 43 65 9 -3
12 1 10 12 -5 25 -25 27 -45 4 -21 -26 -35 -27 -26 -3 9 25 34 52 49 52 8 0
21 -11 30 -25z m1078 -31 c9 -3 16 -12 16 -19 0 -7 20 -18 45 -24 62 -15 89
-44 81 -84 -3 -17 -7 -31 -9 -32 -186 -131 -233 -145 -395 -120 -128 20 -183
16 -279 -25 -100 -42 -204 -57 -289 -41 -74 13 -128 37 -119 51 4 6 -5 14 -18
19 -44 17 -38 28 29 46 35 9 97 34 137 53 l72 36 -37 4 c-21 2 -38 6 -37 10 0
4 27 20 59 36 65 32 71 31 192 -13 34 -12 82 -21 117 -21 53 0 72 7 187 65
109 55 136 65 180 65 29 0 59 -3 68 -6z m-3407 -138 c-4 -10 -19 -16 -42 -16
-44 0 -45 12 -2 32 34 17 54 10 44 -16z m1993 -16 c0 -5 -11 -10 -25 -10 -14
0 -25 5 -25 10 0 6 11 10 25 10 14 0 25 -4 25 -10z m-1264 -61 c71 -76 160
-93 348 -64 68 10 112 11 145 5 65 -12 103 -31 97 -47 -7 -18 1 -17 70 8 94
34 216 31 324 -10 l85 -31 -37 35 c-21 19 -38 37 -38 40 0 15 71 37 122 37 90
0 122 -39 78 -95 l-21 -26 38 -10 c21 -5 54 -13 73 -16 74 -15 127 -61 58 -51
-90 14 -118 16 -118 8 0 -5 32 -22 71 -38 39 -16 69 -34 68 -39 -4 -10 -86 -9
-121 1 -10 3 -18 1 -18 -4 0 -10 98 -56 143 -67 15 -4 30 -11 33 -16 7 -12
-112 -11 -156 1 l-35 9 25 -20 c14 -12 55 -37 93 -55 37 -19 67 -38 67 -43 0
-12 -60 -4 -119 15 -59 19 -59 18 -27 -14 15 -16 49 -39 76 -52 55 -26 62 -37
28 -43 -24 -4 -21 -6 30 -23 15 -5 14 -7 -8 -19 l-25 -14 28 -1 c15 0 27 -3
27 -7 -1 -10 -102 -58 -115 -55 -5 2 -2 -5 7 -14 17 -17 20 -17 61 4 49 24 67
28 49 10 -19 -19 -14 -28 13 -28 33 0 32 -16 -2 -28 l-28 -10 40 -17 c37 -16
38 -18 21 -31 -18 -13 -17 -14 8 -25 41 -19 31 -29 -29 -29 -30 0 -55 -4 -55
-8 0 -20 28 -32 76 -32 29 0 59 -3 68 -6 21 -8 10 -24 -15 -24 -31 0 -12 -18
26 -26 40 -7 45 -19 13 -28 -22 -7 -21 -8 12 -24 47 -22 47 -22 30 -32 -28
-18 -86 -11 -124 15 -46 31 -47 17 -1 -23 39 -35 89 -48 143 -37 48 9 51 9
157 6 l90 -2 -27 -22 c-33 -27 -36 -47 -8 -47 11 0 20 -4 20 -10 0 -9 -62 -30
-92 -30 -10 0 -18 -4 -18 -9 0 -4 30 -13 66 -19 37 -6 68 -13 71 -16 10 -10
-8 -25 -40 -32 -28 -6 -29 -8 -12 -15 11 -4 41 -8 68 -8 52 -1 56 -7 26 -40
-26 -27 -21 -35 15 -22 31 13 32 17 5 117 -30 112 -29 208 2 264 34 61 53 65
44 9 -4 -24 -14 -59 -21 -78 -18 -42 -13 -47 20 -26 31 21 34 10 11 -54 -16
-46 -14 -48 20 -25 29 19 30 18 9 -53 -17 -57 -14 -80 6 -44 15 29 22 27 45
-15 21 -40 81 -85 136 -103 20 -6 87 -15 148 -19 l112 -7 -62 -60 -61 -60 5
47 4 48 -29 -21 c-16 -12 -34 -32 -40 -45 -18 -39 -31 -28 -24 19 l6 42 -22
-25 c-13 -14 -31 -37 -41 -50 l-18 -25 4 47 c5 58 -4 54 -46 -20 -34 -62 -42
-56 -35 24 2 24 0 44 -4 44 -6 0 -36 -57 -59 -115 l-12 -30 -10 43 c-7 29 -7
54 1 77 14 48 3 44 -37 -15 -19 -28 -36 -50 -38 -50 -2 0 -3 25 -1 56 4 67
-14 83 -32 30 -6 -20 -14 -36 -17 -36 -3 0 -23 20 -45 45 -45 51 -66 59 -43
15 23 -45 18 -59 -10 -23 -23 29 -83 73 -99 73 -3 0 7 -19 24 -42 38 -52 38
-65 1 -39 -16 12 -44 24 -63 27 l-33 6 35 -26 c31 -24 58 -56 47 -56 -3 0 -24
7 -47 15 -65 23 -94 19 -43 -6 54 -27 64 -49 20 -49 -32 0 -32 0 13 -21 41
-19 43 -22 27 -34 -16 -12 -16 -13 8 -19 15 -4 25 -13 25 -24 0 -11 15 -26 38
-38 32 -16 59 -19 192 -19 130 0 161 -3 193 -19 37 -18 67 -59 67 -90 0 -27
-60 -85 -101 -97 -51 -16 -58 -7 -23 26 23 21 24 25 9 20 -11 -3 -33 -9 -50
-12 l-30 -5 40 36 c47 42 34 46 -36 10 -28 -14 -53 -24 -55 -21 -2 2 9 23 26
45 17 23 27 42 24 42 -3 0 -26 -14 -51 -30 -25 -17 -48 -28 -51 -25 -3 3 2 21
11 40 9 19 12 35 7 35 -16 0 -89 -70 -95 -91 -4 -10 -11 -19 -17 -19 -7 0 -9
19 -4 55 6 51 5 55 -11 46 -10 -5 -36 -28 -58 -50 -21 -23 -43 -41 -47 -41
-12 0 -9 40 6 82 13 35 12 37 -5 28 -10 -6 -35 -30 -56 -55 -20 -25 -41 -41
-45 -37 -11 11 8 100 28 130 36 55 -57 -7 -97 -65 -17 -24 -33 -42 -36 -39
-11 11 11 88 38 130 l29 46 -33 -16 c-17 -10 -49 -35 -71 -58 l-38 -41 5 44
c4 28 16 57 38 83 29 36 29 39 8 28 -13 -7 -48 -35 -76 -63 -29 -28 -53 -46
-53 -40 0 25 23 70 62 121 33 45 36 52 16 42 -12 -7 -54 -42 -93 -78 -66 -62
-404 -287 -414 -276 -3 2 40 50 94 104 55 55 97 100 93 100 -10 0 -138 -74
-217 -125 -38 -25 -72 -45 -76 -45 -17 0 25 47 115 125 55 49 98 90 96 92 -2
2 -72 -30 -156 -72 -83 -42 -156 -75 -162 -73 -6 2 33 39 86 82 53 43 96 80
96 82 0 6 -35 -9 -162 -69 -65 -31 -118 -52 -118 -47 0 4 29 32 65 61 36 29
65 54 65 55 0 5 -70 -21 -134 -50 -66 -29 -66 -29 -66 -17 0 5 27 30 61 55 34
25 57 46 52 46 -4 0 -66 -28 -137 -62 -70 -34 -156 -70 -190 -80 l-61 -18 80
4 c44 2 88 7 99 11 14 6 18 5 14 -6 -8 -24 -69 -53 -148 -70 l-75 -16 47 -8
c43 -7 160 10 211 30 28 12 20 -12 -13 -35 -43 -31 -135 -61 -202 -67 -32 -3
-58 -9 -58 -13 0 -13 98 -23 157 -15 31 4 75 13 99 20 90 27 25 -30 -69 -61
-27 -9 -83 -22 -125 -28 l-77 -13 45 -13 c31 -8 80 -11 154 -7 68 4 105 2 99
-4 -18 -18 -129 -51 -210 -62 -46 -6 -83 -14 -83 -18 0 -17 107 -31 189 -26
79 6 84 5 59 -8 -45 -25 -139 -45 -212 -45 -42 0 -66 -4 -61 -9 21 -20 114
-43 195 -48 l85 -6 -35 -16 c-24 -10 -71 -15 -153 -15 l-119 -1 49 -22 c27
-13 84 -28 127 -34 43 -7 74 -15 69 -20 -19 -19 -120 -29 -188 -20 -38 6 -71
8 -73 6 -6 -6 67 -40 126 -59 28 -10 52 -22 52 -27 0 -11 -113 -11 -163 0 -49
12 -36 -6 28 -38 25 -12 45 -27 45 -32 0 -18 -101 -9 -180 16 l-25 8 20 -23
c11 -12 39 -33 62 -47 24 -14 40 -30 37 -35 -7 -11 -93 -5 -144 9 -22 6 -23 5
-12 -10 8 -9 34 -26 58 -37 24 -12 44 -26 44 -31 0 -5 -26 -9 -57 -9 -52 -1
-56 -2 -39 -15 10 -7 40 -22 67 -31 27 -10 49 -22 49 -26 0 -4 -24 -8 -52 -8
-48 -1 -51 -2 -34 -15 11 -8 43 -22 73 -30 61 -18 61 -35 0 -35 -39 -1 -41 -2
-22 -15 10 -9 43 -23 72 -32 62 -20 68 -33 16 -33 -21 0 -45 -5 -53 -10 -12
-7 -7 -12 23 -25 20 -8 59 -20 87 -26 79 -17 68 -27 -48 -44 -23 -4 -40 -10
-37 -14 5 -9 98 -35 158 -46 54 -9 37 -22 -40 -31 -57 -6 -64 -8 -49 -19 10
-8 44 -21 77 -31 32 -10 59 -21 59 -25 0 -9 -41 -17 -105 -22 l-40 -3 40 -18
c22 -10 63 -21 90 -25 58 -8 75 -16 75 -37 0 -9 10 -38 21 -65 12 -27 19 -52
16 -56 -8 -7 -52 20 -89 55 -31 28 -37 17 -18 -33 8 -20 7 -27 -6 -32 -35 -13
-185 35 -211 69 -5 7 -8 44 -5 85 3 59 7 73 21 73 12 1 10 6 -9 23 -56 50 -70
77 -70 137 0 88 -32 177 -96 266 -78 109 -79 113 -44 176 122 218 152 327 132
474 -6 46 -23 112 -37 146 -74 175 -79 197 -80 313 0 105 2 114 33 177 83 168
264 242 469 190 44 -11 118 -39 164 -61 95 -47 90 -45 83 -28 -4 10 24 13 138
13 162 -1 245 17 366 78 72 36 192 122 192 137 0 17 24 9 52 -18 l29 -28 -28
60 c-20 44 -28 80 -31 135 -3 52 -10 83 -23 101 -10 15 -24 51 -30 80 -7 34
-20 60 -35 71 -32 26 -56 68 -123 217 -33 73 -71 147 -85 166 -30 39 -32 45
-11 45 9 0 36 -19 62 -42 l46 -43 -34 65 c-19 36 -60 91 -91 124 -56 58 -57
59 -103 54 -27 -3 -67 -19 -96 -37 -28 -17 -53 -31 -55 -31 -11 0 26 43 57 66
45 33 17 30 -58 -6 -64 -30 -79 -28 -43 5 31 28 17 29 -39 1 -58 -30 -65 -31
-58 -11 7 17 -13 10 -92 -30 -57 -29 -64 -24 -24 17 15 15 21 28 14 28 -29 0
-121 -61 -121 -81 0 -4 25 -11 56 -15 44 -5 63 -3 84 10 42 24 78 20 181 -24
105 -44 86 -58 -23 -17 -93 35 -119 40 -112 23 8 -22 -72 -30 -153 -16 -37 6
-112 29 -167 51 -112 44 -140 47 -221 19 -31 -11 -62 -17 -67 -14 -6 4 -7 23
-4 45 6 39 -8 85 -37 122 -14 17 -16 17 -45 0 -43 -25 -50 -10 -22 42 31 56
62 60 106 14z m1528 20 c9 8 16 9 16 4 0 -13 -88 -96 -134 -127 -49 -33 -116
-36 -145 -7 -22 22 -45 96 -37 117 6 16 52 19 61 4 7 -12 -20 -42 -29 -33 -3
4 -6 -3 -6 -14 0 -27 25 -47 49 -40 11 3 22 0 25 -7 3 -7 12 -3 24 12 24 27
29 27 34 5 2 -13 9 -8 27 21 21 34 26 37 31 20 6 -16 10 -14 30 19 16 27 25
35 31 26 6 -10 11 -10 23 0z m-1695 -29 c13 -11 21 -26 18 -34 -9 -23 18 -39
53 -31 23 5 32 3 36 -10 18 -47 -65 -39 -126 11 -28 24 -39 61 -23 77 10 10
16 8 42 -13z m-15 -85 c18 -14 56 -31 85 -38 55 -13 63 -30 15 -35 -54 -5
-144 46 -144 83 0 20 6 19 44 -10z m1696 -40 c0 -4 -70 -45 -76 -45 -15 0 0
39 18 47 19 8 58 7 58 -2z m-1687 -27 c23 -11 61 -22 84 -22 64 -1 45 -21 -20
-21 -56 0 -105 23 -115 53 -5 17 3 15 51 -10z m1976 -37 c20 -13 4 -19 -111
-47 l-103 -24 145 4 145 3 -40 -17 c-45 -21 -178 -50 -225 -50 -16 0 -30 -5
-30 -11 0 -12 188 -7 255 6 l30 6 -23 -20 c-30 -26 -133 -59 -211 -67 -49 -6
-59 -9 -45 -17 16 -9 148 -4 222 9 53 10 37 -11 -40 -50 -147 -74 -253 -72
-291 6 -20 40 -34 161 -23 202 7 29 47 53 109 66 57 11 219 12 236 1z m-1881
-27 c33 5 44 -7 16 -18 -44 -17 -134 3 -134 29 0 10 10 9 43 -2 23 -8 57 -12
75 -9z m982 -9 c-27 -28 -40 -32 -40 -10 0 15 26 34 49 35 10 0 7 -8 -9 -25z
m-666 -22 c110 -56 300 -89 385 -66 26 7 48 4 90 -10 38 -14 86 -20 151 -21
l95 -2 56 -54 c47 -46 89 -104 89 -124 0 -6 -837 -546 -847 -546 -4 0 -6 32
-5 72 7 147 -24 234 -157 438 -78 118 -141 239 -141 269 0 6 19 15 43 22 23 6
67 19 97 30 58 20 93 18 144 -8z m736 -2 c0 -12 -20 -25 -27 -18 -7 7 6 27 18
27 5 0 9 -4 9 -9z m1065 -93 c8 -50 -3 -80 -44 -128 l-30 -35 -1 27 c0 14 11
59 25 100 14 40 25 74 25 76 0 1 4 2 9 2 6 0 13 -19 16 -42z m-195 -203 c-15
-17 -112 -65 -134 -65 -9 0 -16 -5 -16 -11 0 -12 75 -8 155 7 l30 5 -23 -20
c-13 -12 -42 -26 -63 -32 -62 -19 -47 -33 27 -26 57 6 64 4 54 -8 -6 -8 -20
-17 -31 -20 -32 -10 -10 -26 27 -19 41 7 47 -11 9 -28 -30 -13 -33 -28 -6 -28
26 0 37 -18 16 -26 -13 -6 -16 -15 -11 -48 7 -51 -9 -85 -20 -40 -28 117 -111
196 -269 255 -51 19 -115 62 -115 77 0 4 60 7 133 8 108 0 142 4 187 21 59 22
70 22 50 -2z m-315 -130 c29 -13 34 -19 26 -29 -14 -17 13 -26 77 -26 56 0 46
-15 -15 -25 -42 -7 -45 -9 -23 -16 14 -4 46 -7 73 -8 26 -1 47 -5 47 -11 0 -5
-21 -16 -47 -24 -62 -18 -36 -31 48 -23 74 6 75 -10 3 -36 -68 -24 -118 -17
-160 24 -33 32 -66 98 -79 157 -8 37 -3 38 50 17z m285 -230 c0 -2 -17 -13
-37 -24 -35 -18 -36 -20 -13 -21 25 0 59 -16 50 -22 -3 -2 -16 -9 -30 -15
l-25 -12 27 0 c42 -1 42 -19 0 -30 -73 -20 -158 23 -203 103 -10 17 -8 18 38
12 26 -3 71 -2 98 3 60 10 95 13 95 6z m-1940 -479 c0 -2 -24 -17 -52 -34 -66
-37 -143 -118 -169 -178 -33 -72 -49 -171 -49 -299 -1 -141 -13 -137 -30 10
-9 73 -9 120 -2 175 6 41 9 76 8 78 -2 2 -14 -25 -26 -60 -20 -56 -23 -89 -29
-308 -6 -219 -9 -250 -27 -291 -26 -56 -83 -122 -99 -115 -7 2 -33 -15 -58
-38 -41 -40 -137 -86 -137 -67 0 5 10 30 22 57 21 45 23 70 29 309 6 224 9
270 28 333 22 76 57 151 86 187 15 19 15 16 10 -40 l-6 -60 41 84 c41 82 142
203 157 188 3 -4 -3 -17 -14 -30 -25 -27 -58 -91 -67 -132 -5 -23 2 -16 34 32
39 58 134 153 154 153 4 0 1 -10 -8 -22 -38 -53 -36 -60 5 -25 72 58 199 118
199 93z m2610 -50 c0 -20 -49 -76 -66 -76 -12 0 -12 4 1 29 26 52 65 79 65 47z
m5 -124 c-20 -19 -39 -31 -42 -28 -3 3 12 29 33 58 36 48 39 51 42 28 3 -18
-6 -33 -33 -58z m55 -53 c0 -23 -22 -49 -40 -49 -26 0 -25 8 3 35 25 26 37 30
37 14z m20 -77 c0 -5 -9 -17 -20 -27 -25 -23 -17 -35 25 -35 45 0 54 -18 16
-33 -17 -6 -31 -15 -31 -19 0 -12 46 -28 78 -28 19 0 23 -3 15 -11 -6 -6 -35
-9 -67 -7 -31 1 -56 0 -56 -4 0 -4 16 -19 35 -34 19 -14 35 -31 35 -36 0 -13
-68 -1 -97 18 -12 8 -25 14 -27 14 -11 0 8 -36 32 -62 24 -26 24 -28 6 -28
-11 0 -30 7 -42 16 -36 25 -25 -1 14 -36 l37 -32 -18 -59 c-10 -32 -22 -59
-26 -59 -4 0 -11 21 -15 47 l-7 47 -23 -29 c-20 -25 -25 -27 -39 -15 -25 21
-45 66 -45 103 0 27 11 46 54 93 69 76 88 115 84 167 -3 45 -9 41 75 56 4 0 7
-3 7 -7z m-1290 -20 c0 -33 -259 -211 -291 -200 -19 6 152 147 216 178 64 31
75 35 75 22z m51 -113 c-13 -10 -68 -44 -122 -75 -54 -30 -101 -59 -104 -64
-3 -6 -13 -10 -21 -10 -12 0 -11 6 6 30 29 40 69 67 159 106 88 39 118 44 82
13z m59 -75 c-18 -21 -140 -91 -173 -99 -31 -8 -35 5 -9 27 28 26 155 85 186
87 5 1 3 -6 -4 -15z m-705 -34 c-19 -21 -45 -27 -45 -10 0 10 52 41 59 34 2
-2 -4 -13 -14 -24z m1456 10 c-25 -21 -61 -27 -61 -10 0 12 37 29 65 29 19 0
19 -1 -4 -19z m-661 -30 c-75 -59 -186 -98 -148 -53 16 20 126 71 153 72 18 1
18 -1 -5 -19z m-690 1 c0 -12 -92 -71 -102 -65 -21 13 -3 33 45 52 28 11 53
20 55 21 1 0 2 -3 2 -8z m802 -14 c-19 -23 -90 -58 -97 -48 -3 6 16 21 42 35
54 28 71 32 55 13z m552 -14 c-21 -15 -74 -18 -74 -3 0 12 60 29 79 22 11 -4
10 -8 -5 -19z m20 -42 c4 -5 -14 -17 -39 -27 -25 -9 -45 -21 -45 -25 0 -8 37
-14 67 -10 16 2 26 -16 12 -25 -6 -4 -32 -12 -58 -19 l-46 -12 53 -7 c85 -13
52 -43 -48 -45 l-45 -1 30 -20 c17 -11 45 -23 63 -26 18 -3 35 -10 38 -15 10
-17 -21 -19 -76 -5 -30 8 -57 12 -60 9 -6 -6 69 -71 93 -79 9 -3 17 -10 17
-15 0 -17 -38 -9 -94 21 -42 22 -54 25 -47 12 15 -28 55 -67 89 -87 34 -21 40
-36 19 -54 -8 -6 -22 -29 -32 -51 -10 -22 -22 -40 -27 -40 -13 0 -15 42 -3 87
6 26 3 24 -44 -21 l-51 -50 -30 29 c-38 37 -70 102 -70 144 0 42 68 116 99
108 16 -4 20 3 25 39 12 87 71 172 131 187 34 8 74 7 79 -2z m-1314 -10 c0
-14 -120 -92 -131 -85 -5 3 -9 13 -9 23 0 12 19 26 63 43 71 30 77 31 77 19z
m74 -79 c-42 -38 -161 -102 -189 -102 -32 0 -14 32 28 48 23 9 74 33 112 53
90 47 100 47 49 1z m51 -59 c-10 -9 -55 -47 -100 -83 -45 -36 -95 -75 -111
-88 l-29 -23 30 6 c17 3 63 21 104 40 40 19 76 35 79 35 13 0 -50 -57 -130
-117 -49 -36 -88 -68 -88 -70 0 -7 55 10 109 33 29 13 55 24 57 24 21 0 -30
-49 -151 -145 -19 -15 -17 -16 25 -11 25 2 55 8 68 12 33 10 27 -8 -20 -56
l-43 -42 63 5 c34 3 62 1 62 -3 0 -5 -19 -25 -42 -44 l-42 -36 47 0 c26 0 47
-3 47 -7 0 -4 -12 -20 -27 -35 l-27 -28 49 0 49 0 -35 -36 -34 -36 53 7 c28 4
52 3 52 -2 0 -4 -19 -20 -43 -35 -45 -30 -35 -35 36 -19 20 5 37 6 37 2 0 -9
-38 -44 -65 -60 -17 -10 -11 -11 35 -7 30 2 63 7 73 11 35 14 16 -15 -26 -40
-95 -55 -158 -20 -170 96 -9 79 -39 144 -122 264 -81 116 -91 148 -75 235 20
114 31 127 155 189 61 31 121 64 134 73 30 21 40 16 16 -9z m105 -890 c0 -5
-16 -19 -36 -31 -44 -28 -36 -40 30 -44 l50 -3 -37 -25 c-20 -14 -37 -29 -37
-34 0 -5 27 -6 61 -2 58 6 61 5 56 -15 -4 -16 -3 -18 8 -9 11 9 19 3 38 -27
14 -21 36 -49 51 -62 54 -50 12 -58 -54 -10 -47 34 -45 37 -23 -35 6 -18 2
-19 -58 -14 -110 9 -156 49 -164 142 -2 22 -7 67 -11 99 l-7 57 34 1 c19 1 45
5 59 9 34 11 40 11 40 3z"/>
<path d="M2630 4001 l-25 -7 23 -8 c12 -4 22 -13 22 -21 0 -17 58 -31 73 -16
7 7 6 15 -3 26 -11 13 -9 15 11 15 19 0 21 2 9 10 -17 11 -73 11 -110 1z"/>
<path d="M3890 3833 c-25 -14 -62 -39 -82 -55 -40 -32 -51 -21 -22 21 l16 23
-33 -17 c-19 -10 -47 -27 -62 -37 -31 -22 -47 -18 -27 7 7 9 11 18 8 20 -5 6
-128 -71 -128 -80 0 -5 51 0 113 11 11 2 56 -3 100 -11 104 -19 184 -19 235
-1 45 16 120 62 140 85 18 22 15 33 -7 21 -28 -14 -41 -12 -35 5 10 24 -5 18
-63 -25 -55 -42 -62 -42 -38 0 8 14 14 29 15 33 0 12 -41 -12 -92 -55 -55 -45
-61 -33 -18 35 16 26 29 47 27 47 -1 0 -22 -12 -47 -27z"/>
<path d="M3502 3715 c-54 -52 -55 -54 -24 -44 18 6 37 21 43 33 7 11 21 31 32
44 40 44 4 21 -51 -33z"/>
<path d="M3300 3692 c-70 -44 -73 -47 -46 -50 24 -3 38 6 80 47 28 28 49 51
46 51 -3 0 -39 -22 -80 -48z"/>
<path d="M3391 3689 c-49 -38 -59 -49 -42 -49 21 0 121 84 111 93 -3 3 -34
-17 -69 -44z"/>
<path d="M1591 3608 c-20 -13 -29 -24 -21 -26 6 -2 24 7 38 22 32 32 28 33
-17 4z"/>
<path d="M1529 3600 c-17 -14 -20 -19 -9 -20 8 0 21 9 28 20 15 25 11 25 -19
0z"/>
<path d="M1653 3600 c-33 -20 -44 -40 -20 -39 10 0 65 59 55 59 -2 0 -18 -9
-35 -20z"/>
<path d="M1706 3574 c-33 -22 -36 -28 -23 -36 13 -7 25 0 52 27 42 41 26 46
-29 9z"/>
<path d="M1778 3554 c-21 -13 -38 -29 -38 -34 0 -21 32 -9 66 25 40 40 26 45
-28 9z"/>
<path d="M3063 2605 c-8 -22 4 -30 20 -16 8 6 22 9 31 5 9 -3 16 -2 16 4 0 23
-58 29 -67 7z"/>
<path d="M2905 2575 c41 -19 66 -19 59 0 -4 10 -19 15 -48 14 l-41 -1 30 -13z"/>
<path d="M2964 2512 c9 -14 58 -22 53 -8 -2 6 -16 12 -31 14 -16 2 -26 -1 -22
-6z"/>
<path d="M2574 2301 c-31 -19 -52 -41 -39 -41 13 0 62 29 74 44 18 22 3 20
-35 -3z"/>
<path d="M2649 2271 c-64 -43 -96 -71 -81 -71 23 0 86 37 116 69 37 39 23 40
-35 2z"/>
<path d="M1336 2253 c-7 -18 7 -33 57 -59 l27 -15 -32 45 c-37 50 -43 53 -52
29z"/>
<path d="M2656 2199 c-103 -82 -109 -92 -34 -60 40 17 143 121 119 121 -5 0
-44 -27 -85 -61z"/>
<path d="M1745 2201 c-32 -16 -36 -20 -17 -20 22 -1 82 24 82 34 0 10 -26 4
-65 -14z"/>
<path d="M1315 2180 c-9 -14 48 -76 77 -83 18 -5 12 3 -62 86 -4 5 -11 3 -15
-3z"/>
<path d="M1840 2169 c-14 -6 -61 -21 -105 -34 -77 -23 -79 -29 -5 -25 30 2 97
30 140 59 19 13 3 13 -30 0z"/>
<path d="M1310 2076 c0 -20 9 -30 40 -46 22 -11 40 -19 40 -17 0 2 -18 23 -40
46 -38 40 -40 41 -40 17z"/>
<path d="M1320 1963 c0 -14 15 -30 38 -42 35 -19 36 -8 2 22 -31 28 -40 32
-40 20z"/>
<path d="M1370 1830 c0 -6 7 -13 15 -17 24 -9 27 1 5 15 -13 8 -20 8 -20 2z"/>
<path d="M1410 1732 c0 -12 19 -26 26 -19 2 2 -2 10 -11 17 -9 8 -15 8 -15 2z"/>
<path d="M1554 461 c4 -6 25 -20 47 -31 l39 -20 0 25 c0 19 -5 25 -22 25 -13
0 -34 3 -47 7 -17 4 -22 3 -17 -6z"/>
<path d="M1550 396 c0 -6 46 -31 77 -40 18 -6 20 -4 16 14 -4 14 -14 20 -33
20 -16 0 -35 3 -44 6 -9 3 -16 4 -16 0z"/>
<path d="M831 1905 c-8 -31 -16 -135 -20 -270 -4 -121 -11 -226 -15 -234 -6
-9 -5 -12 5 -9 8 2 25 24 39 49 23 40 25 54 24 154 -1 61 -5 166 -10 235 l-9
125 -14 -50z"/>
<path d="M731 1755 c-8 -18 -17 -103 -22 -215 -4 -102 -13 -198 -18 -213 -14
-37 -14 -42 3 -28 51 42 74 200 58 386 -8 94 -9 98 -21 70z"/>
<path d="M3800 1734 c0 -17 18 -36 30 -32 7 2 4 10 -9 22 -12 11 -21 15 -21
10z"/>
<path d="M3770 1696 c0 -8 5 -18 10 -21 6 -3 10 1 10 9 0 8 -4 18 -10 21 -5 3
-10 -1 -10 -9z"/>
<path d="M3324 1367 c18 -61 22 -65 43 -44 16 16 15 19 -20 55 l-37 37 14 -48z"/>
<path d="M3269 1327 c5 -18 13 -43 20 -56 12 -21 13 -22 26 -5 11 16 9 23 -18
56 -17 21 -31 38 -33 38 -1 0 1 -15 5 -33z"/>
<path d="M2455 470 c-17 -7 -15 -9 12 -9 17 -1 35 4 38 9 7 12 -22 12 -50 0z"/>
<path d="M2470 421 l-25 -7 25 -7 c36 -10 40 -9 40 8 0 16 -2 17 -40 6z"/>
</g>
</svg>
