<?xml version="1.0" standalone="no"?>
<!DOCTYPE svg PUBLIC "-//W3C//DTD SVG 20010904//EN"
 "http://www.w3.org/TR/2001/REC-SVG-20010904/DTD/svg10.dtd">
<svg version="1.0" xmlns="http://www.w3.org/2000/svg"
 width="524.000000pt" height="476.000000pt" viewBox="0 0 524.000000 476.000000"
 preserveAspectRatio="xMidYMid meet">
<metadata>
Created by potrace 1.16, written by Peter Selinger 2001-2019
</metadata>
<g transform="translate(0.000000,476.000000) scale(0.100000,-0.100000)"
fill="#f1c88e" stroke="none">
<path d="M3666 4534 c-33 -8 -119 -41 -191 -74 -87 -39 -145 -60 -170 -60
-136 0 -208 -78 -254 -278 -28 -118 -59 -188 -102 -230 -36 -35 -110 -62 -171
-62 -27 0 -38 -4 -38 -15 0 -38 170 -85 309 -85 160 0 289 52 400 160 75 73
135 178 147 256 5 36 10 44 23 39 49 -21 85 -26 166 -24 125 2 181 -8 213 -40
15 -14 56 -43 90 -64 50 -30 62 -42 62 -63 0 -28 24 -79 51 -109 17 -19 17
-24 4 -61 -12 -35 -12 -50 0 -103 14 -58 14 -62 -4 -80 -23 -23 -41 -81 -41
-134 0 -57 -14 -77 -56 -77 -47 0 -94 -21 -142 -64 -38 -35 -44 -37 -119 -39
-61 -3 -89 -9 -130 -30 -28 -15 -54 -31 -58 -37 -3 -5 -27 -10 -53 -10 -26 -1
-72 -9 -102 -20 -51 -17 -56 -17 -80 -2 -34 23 -56 37 -115 72 -57 34 -130 40
-179 15 -15 -8 -45 -15 -65 -15 -46 0 -107 -28 -154 -70 l-38 -33 -57 45
c-114 90 -194 113 -249 72 -66 -49 -136 -220 -150 -368 -4 -44 -11 -67 -21
-71 -12 -4 -13 1 -8 27 41 191 26 302 -42 326 -52 18 -171 -1 -241 -38 -56
-30 -161 -129 -161 -152 0 -4 -17 -8 -37 -8 -83 0 -216 -46 -308 -105 -30 -19
-61 -32 -69 -29 -8 3 -43 -2 -78 -11 -82 -21 -186 -22 -226 -1 -72 37 -83 8
-18 -52 84 -77 210 -121 311 -108 27 4 82 7 122 6 58 -1 88 5 161 33 l90 33
17 -28 c9 -16 27 -36 41 -44 13 -9 24 -19 24 -23 0 -4 -17 -17 -37 -29 -21
-11 -62 -44 -91 -71 -29 -28 -55 -51 -59 -51 -4 0 -36 12 -71 26 -48 19 -74
24 -101 19 -67 -11 -95 -6 -178 36 -74 37 -89 41 -132 36 -30 -4 -63 0 -87 8
-53 19 -175 19 -221 0 -19 -8 -54 -15 -77 -15 -48 -1 -110 -21 -136 -45 -10
-9 -57 -25 -105 -35 -123 -27 -194 -68 -295 -170 -139 -139 -200 -282 -203
-475 -2 -112 9 -185 28 -185 8 0 17 12 20 27 10 47 46 146 72 197 24 47 131
166 150 166 13 0 -5 -308 -22 -375 -20 -78 -56 -130 -110 -163 -25 -15 -45
-32 -45 -38 -1 -34 146 -18 223 24 56 30 136 113 173 180 72 129 146 224 264
342 86 85 134 141 151 176 20 43 28 51 53 52 15 0 46 13 68 27 37 25 42 26 92
14 52 -11 155 -9 187 5 11 5 19 -1 27 -18 12 -28 58 -41 117 -34 19 2 35 2 35
0 0 -1 -14 -17 -30 -35 -50 -53 -80 -123 -80 -188 0 -56 15 -109 31 -109 4 0
22 21 40 48 63 94 129 131 129 72 0 -28 2 -30 40 -30 29 0 42 -5 50 -20 9 -17
6 -25 -15 -46 -29 -29 -93 -59 -147 -69 -61 -11 -46 -40 42 -86 65 -33 221
-39 303 -11 51 17 63 18 95 6 20 -7 53 -13 73 -14 30 0 38 -5 51 -33 8 -17 18
-48 22 -67 12 -62 36 -104 71 -127 30 -20 38 -35 64 -120 18 -57 40 -108 53
-121 l23 -23 -28 -21 c-15 -11 -48 -50 -74 -86 -26 -37 -66 -90 -90 -119 l-44
-52 -32 19 c-73 43 -183 64 -337 64 -128 1 -157 -3 -243 -27 -357 -99 -598
-313 -672 -596 -28 -109 -17 -117 60 -38 117 119 283 179 520 191 44 2 103 1
132 -2 50 -4 52 -6 41 -26 -6 -11 -36 -47 -67 -80 -106 -110 -267 -184 -424
-194 -61 -3 -87 -9 -87 -18 0 -17 52 -47 130 -75 57 -20 84 -23 220 -23 187
-1 270 17 426 94 154 76 310 215 414 368 11 16 40 28 113 46 115 29 201 73
273 139 92 84 139 214 115 317 -6 25 -13 80 -16 122 -5 98 -24 135 -110 218
-106 103 -115 113 -115 137 0 21 7 17 68 -32 77 -62 212 -136 291 -159 70 -20
179 -21 208 -1 20 14 23 12 61 -53 45 -75 83 -116 124 -131 25 -9 27 -13 18
-36 -6 -15 -10 -46 -10 -70 0 -26 -11 -69 -25 -101 -30 -67 -55 -160 -55 -200
1 -16 9 -47 20 -69 11 -22 19 -45 20 -51 0 -6 18 -38 39 -72 39 -59 106 -112
144 -112 22 0 22 0 -16 57 -42 63 -65 139 -49 162 63 88 94 164 111 276 5 33
17 87 25 120 20 76 21 267 1 304 -19 38 -44 58 -127 102 l-73 38 40 1 c22 1
64 11 94 23 l53 22 34 -31 c44 -42 127 -82 185 -90 l47 -6 6 -67 c3 -36 7
-118 9 -181 4 -154 16 -193 81 -253 74 -70 139 -99 217 -95 70 3 85 19 37 39
-43 17 -95 64 -125 112 -23 37 -24 46 -22 170 4 201 1 254 -21 361 -28 135
-49 170 -125 209 l-30 15 27 11 c15 6 37 20 49 32 21 21 22 21 53 4 17 -10 48
-33 68 -51 58 -51 94 -66 152 -62 l51 3 42 -64 c23 -36 47 -67 52 -70 5 -4 13
-20 17 -36 14 -59 54 -123 101 -162 71 -59 109 -76 189 -81 57 -4 80 0 118 17
58 25 56 44 -7 53 -26 3 -70 17 -99 30 -44 21 -55 31 -67 64 -7 21 -33 80 -57
131 -24 51 -44 102 -44 113 0 13 -34 56 -90 112 -49 50 -92 99 -95 109 -9 28
-71 77 -112 88 -21 6 -69 14 -106 18 l-68 6 30 15 c31 14 89 73 109 108 10 18
13 18 77 -5 52 -18 80 -22 124 -18 49 4 59 2 69 -14 7 -10 30 -32 52 -48 21
-15 58 -52 80 -80 82 -103 220 -139 328 -85 72 36 69 54 -10 54 -35 1 -72 6
-84 13 -25 14 -71 66 -108 122 -62 94 -76 112 -121 155 -27 25 -65 61 -84 81
-20 20 -46 42 -58 48 -26 13 -166 15 -211 2 -17 -5 -32 -8 -32 -5 0 2 16 26
35 53 65 90 165 339 165 411 0 10 12 42 27 71 22 42 27 66 28 123 0 56 5 77
21 101 64 90 89 180 70 243 -4 11 5 54 19 95 29 87 31 111 10 151 -10 18 -15
57 -15 110 0 120 -27 187 -93 230 -15 10 -35 37 -46 60 -25 57 -94 145 -138
179 -22 16 -49 27 -68 27 -22 0 -49 14 -91 46 -77 60 -126 84 -177 89 -23 2
-69 11 -102 19 -71 18 -73 18 -149 0z m172 -90 c16 -11 22 -25 21 -52 0 -29
-2 -33 -8 -17 -10 25 -49 60 -57 52 -3 -3 -1 -14 5 -25 6 -12 11 -36 11 -54
l-1 -33 -15 35 c-17 40 -53 82 -64 75 -4 -3 -2 -23 6 -45 8 -24 11 -48 5 -62
-8 -22 -8 -22 -14 4 -8 30 -62 88 -83 88 -10 0 -11 -6 -5 -22 4 -13 11 -36 15
-53 l7 -30 -20 32 c-22 35 -56 57 -71 48 -7 -4 -7 -13 0 -25 16 -31 12 -45 -8
-27 -27 25 -70 38 -78 25 -4 -7 -2 -14 4 -16 7 -2 12 -7 12 -11 0 -5 -18 -3
-40 2 -22 6 -40 14 -40 17 0 7 144 70 210 91 70 23 178 25 208 3z m-619 -177
c-34 -9 -39 -37 -6 -38 17 0 15 -3 -12 -13 -38 -14 -53 -36 -25 -36 16 0 15
-2 -4 -16 -28 -20 -28 -44 1 -45 21 -1 21 -1 -3 -8 -14 -4 -26 -15 -28 -24 -3
-14 4 -17 37 -17 29 0 41 4 42 15 2 25 4 28 38 93 41 76 75 102 128 101 21 -1
29 -3 18 -6 -11 -2 -30 -6 -42 -9 -32 -6 -29 -19 7 -34 42 -18 46 -29 7 -21
-35 8 -67 4 -67 -8 0 -4 15 -12 33 -19 18 -7 46 -26 63 -43 l29 -31 -35 20
c-41 23 -106 37 -114 23 -3 -5 11 -18 31 -28 21 -10 46 -34 58 -53 l20 -35
-28 22 c-31 24 -95 48 -104 39 -3 -3 13 -26 36 -51 53 -57 53 -74 -1 -35 -58
43 -89 40 -50 -4 10 -12 23 -33 30 -48 l11 -27 -36 25 c-50 33 -69 32 -43 -3
11 -16 23 -44 26 -63 l6 -35 -24 45 c-14 25 -33 47 -43 49 -14 2 -16 -1 -10
-15 14 -35 19 -118 6 -110 -6 4 -11 16 -11 27 0 22 -28 69 -40 69 -5 0 -6 -24
-3 -53 4 -44 2 -55 -11 -60 -12 -5 -16 0 -16 17 0 13 -7 29 -15 36 -13 11 -15
8 -15 -18 0 -38 -15 -49 -30 -22 -9 18 -6 29 21 71 21 33 43 94 64 172 40 150
46 165 80 205 21 25 29 29 40 19 10 -10 8 -13 -16 -20z m871 -915 c0 -4 14
-16 32 -26 31 -19 31 -19 25 3 -3 13 -1 19 5 15 6 -4 8 -23 4 -46 -6 -36 -5
-38 13 -28 11 5 22 14 25 19 3 5 32 1 63 -8 41 -12 62 -24 70 -42 28 -55 7
-134 -57 -209 -25 -29 -31 -32 -40 -20 -14 22 -12 30 6 23 14 -5 16 0 12 32
-4 36 -4 37 10 17 21 -33 32 -27 32 18 0 31 3 38 15 34 19 -8 20 16 1 60 -15
36 -63 76 -92 76 -16 0 -15 -3 4 -23 31 -33 27 -38 -18 -20 -46 18 -61 12 -37
-15 26 -28 21 -32 -19 -16 -42 18 -54 12 -31 -14 26 -29 20 -35 -12 -13 -16
12 -34 21 -40 21 -10 0 -91 77 -91 87 0 6 64 -29 83 -45 30 -26 21 9 -13 50
-38 46 -22 60 26 23 47 -36 61 -28 30 18 -14 20 -21 37 -16 37 6 0 10 -4 10
-8z m-1464 -144 c-9 -24 -23 -74 -32 -113 -8 -38 -22 -81 -31 -94 l-15 -24
-25 27 c-22 25 -23 30 -12 64 21 66 68 149 95 171 15 12 29 19 32 17 2 -3 -3
-24 -12 -48z m1339 11 c16 -16 18 -22 7 -39 -6 -10 -9 -26 -6 -35 4 -10 0 -15
-15 -15 -29 0 -26 -14 4 -28 35 -16 48 -15 42 3 -5 11 0 13 25 8 27 -5 30 -4
25 11 -6 15 -4 15 21 2 37 -19 68 -54 87 -98 31 -75 12 -139 -58 -192 -40 -30
-57 -33 -56 -8 0 10 3 12 6 4 7 -18 23 -4 23 21 0 16 3 18 12 9 19 -19 27 -14
34 22 4 23 10 33 19 29 9 -3 16 7 21 32 8 44 -18 118 -49 140 -26 18 -41 19
-34 3 23 -62 22 -64 -18 -30 -20 18 -39 31 -42 28 -3 -3 2 -22 12 -41 21 -45
16 -53 -15 -20 -30 32 -56 35 -40 4 18 -33 7 -28 -30 14 -28 33 -31 38 -12 28
35 -19 40 -4 9 27 -24 23 -30 25 -47 14 -25 -15 -38 -8 -76 37 -24 29 -25 32
-7 23 40 -22 46 -5 11 28 -28 25 -18 25 32 0 49 -25 54 -25 47 0 -4 17 -2 18
14 9 25 -13 27 15 2 31 -15 9 -14 10 7 4 14 -3 34 -15 45 -25z m-245 -65 c31
-13 40 -21 40 -41 0 -32 -22 -53 -54 -53 -14 0 -26 -4 -26 -9 0 -8 81 -61 94
-61 12 0 5 28 -9 40 -24 20 -10 23 24 5 35 -18 42 -4 14 27 -24 27 -3 22 48
-11 65 -42 97 -80 119 -144 24 -67 26 -127 5 -167 -14 -27 -85 -93 -93 -86 -2
2 1 19 7 37 5 19 10 26 10 17 1 -10 5 -18 10 -18 13 0 21 26 22 68 1 37 1 37
11 10 13 -38 25 -35 32 10 10 61 -29 156 -88 211 -36 33 -40 23 -16 -35 l21
-49 -40 39 c-22 22 -43 37 -46 34 -3 -3 4 -30 15 -59 l21 -54 -31 38 c-40 47
-68 52 -45 7 23 -44 18 -48 -10 -9 -14 19 -40 47 -58 63 -30 27 -30 27 -4 11
16 -9 31 -14 34 -12 8 9 -17 46 -42 63 -24 16 -65 12 -65 -6 0 -18 -34 4 -75
47 -46 48 -47 50 -4 27 44 -22 48 -9 9 31 l-34 35 41 -20 c51 -24 67 -25 59
-4 -6 17 4 16 48 -2 16 -6 18 -4 14 14 -7 26 -9 26 42 6z m-352 -94 c22 -11
44 -20 48 -20 3 0 4 9 1 20 -3 13 0 20 9 20 20 0 68 -25 84 -45 19 -23 -9 -46
-93 -76 -41 -14 -65 -29 -63 -36 9 -24 -61 11 -89 45 -28 34 -24 44 7 15 25
-23 34 -9 14 23 -24 35 -14 40 36 21 23 -9 44 -15 47 -12 2 3 -8 19 -24 35
-34 35 -32 36 23 10z m-271 -92 c21 -12 46 -28 56 -36 22 -20 35 -7 18 19 -17
29 -8 33 27 15 43 -22 47 -34 17 -48 -18 -8 -25 -17 -22 -30 4 -14 -1 -18 -23
-18 -16 0 -31 -4 -35 -9 -6 -10 123 -77 131 -68 3 2 -7 19 -21 36 -31 37 -22
39 46 10 59 -26 71 -20 36 15 -34 33 -27 33 44 -5 73 -39 185 -155 222 -229
46 -93 32 -152 -54 -222 -60 -49 -154 -96 -145 -73 3 9 6 33 7 53 l1 37 9 -32
c14 -48 27 -40 35 18 l7 52 15 -29 c20 -39 22 -41 32 -24 6 8 10 44 11 80 l1
65 13 -35 c7 -19 14 -45 14 -57 1 -33 17 -28 30 8 18 53 13 102 -19 165 -29
59 -124 164 -136 151 -4 -4 7 -33 25 -66 17 -32 31 -63 31 -68 0 -5 -27 17
-60 50 -33 32 -65 55 -70 52 -5 -3 9 -38 30 -78 49 -89 51 -115 5 -54 -35 46
-92 93 -101 84 -3 -3 9 -27 25 -55 17 -27 31 -53 31 -57 0 -4 -41 36 -90 88
-67 70 -107 104 -152 126 -34 17 -67 31 -74 31 -7 0 -18 9 -24 20 -6 11 -27
31 -48 45 -44 30 -36 32 19 4 22 -11 45 -19 50 -17 17 6 -35 72 -61 78 -22 5
-23 7 -7 13 26 10 39 9 32 -2 -3 -5 21 -22 52 -37 32 -16 61 -30 66 -32 17 -9
5 29 -19 57 -31 37 -27 38 23 9z m520 -9 c112 -54 212 -243 183 -348 -10 -38
-46 -79 -88 -101 -27 -13 -42 -6 -24 12 7 7 13 28 13 47 1 22 3 28 6 14 2 -12
10 -27 18 -33 11 -9 15 -3 23 32 6 24 10 33 11 21 1 -27 17 -38 25 -17 25 66
-13 182 -83 248 -45 44 -64 43 -34 -1 49 -69 47 -78 -8 -30 -78 68 -97 64 -42
-9 36 -48 27 -50 -23 -5 -26 22 -50 38 -55 35 -5 -3 5 -26 22 -52 l31 -47 -44
46 c-46 50 -105 97 -153 122 -44 24 -21 20 26 -4 49 -25 61 -18 29 16 -29 31
-20 32 31 3 47 -26 61 -17 29 17 -30 32 -22 31 41 -1 28 -14 54 -23 57 -20 7
8 -38 56 -63 66 -18 8 -18 9 4 9 14 1 44 -8 68 -20z m-709 -102 c15 -14 21
-29 18 -43 -5 -19 -1 -22 44 -26 63 -6 135 -54 235 -155 146 -146 186 -293
101 -365 -29 -25 -134 -74 -173 -81 l-33 -6 1 62 c1 55 2 58 9 24 15 -79 32
-62 40 41 l6 77 17 -54 c9 -30 17 -63 17 -73 0 -10 5 -18 10 -18 18 0 30 48
30 118 1 63 2 65 15 42 8 -14 17 -44 21 -67 3 -24 10 -43 14 -43 14 0 32 101
26 143 -10 62 -51 127 -110 175 -51 40 -76 52 -76 34 0 -5 9 -17 21 -28 20
-18 59 -84 59 -100 0 -4 -22 14 -48 38 -51 47 -86 71 -94 62 -3 -2 11 -35 30
-72 38 -71 38 -71 -42 -5 -36 30 -66 42 -66 27 0 -3 9 -18 20 -34 19 -26 43
-80 36 -80 -2 0 -15 17 -29 38 -35 51 -135 153 -187 191 -49 36 -46 40 9 11
49 -24 59 -15 24 22 -29 30 -70 37 -79 14 -9 -22 -61 0 -81 35 -10 16 -20 29
-23 29 -3 0 -16 10 -30 21 -20 17 -15 16 24 -5 56 -30 56 -30 56 -14 0 7 -17
29 -37 50 -20 21 -32 38 -25 38 7 0 12 -4 12 -10 0 -5 6 -10 13 -10 7 0 30 -9
51 -21 45 -24 55 -19 32 15 l-16 25 33 -11 c17 -6 42 -18 55 -26 28 -18 41 -8
20 15 -8 10 -18 24 -22 30 -11 20 44 -3 72 -30z m-319 -88 c56 -28 62 -34 57
-55 -5 -20 -3 -24 16 -24 49 0 124 -49 213 -138 103 -103 151 -175 166 -253
18 -84 2 -125 -65 -172 -49 -33 -123 -67 -147 -67 -5 0 -9 7 -9 15 0 8 6 12
14 9 13 -5 24 17 50 96 2 8 5 -7 5 -35 l1 -49 20 20 c11 11 24 40 29 64 9 48
18 40 24 -20 l3 -35 18 40 c40 87 12 202 -72 295 -46 52 -62 49 -34 -7 10 -21
22 -51 26 -68 l7 -30 -24 35 c-26 36 -78 80 -97 80 -6 0 1 -22 15 -50 14 -27
25 -52 25 -55 0 -3 -18 13 -40 35 -22 22 -44 40 -50 40 -13 0 -13 -27 0 -35
11 -7 42 -76 37 -81 -2 -2 -19 18 -39 45 -52 69 -179 162 -255 185 -41 13 -25
-12 35 -54 82 -59 165 -142 195 -198 47 -87 57 -193 21 -239 -13 -16 -13 -15
-4 10 16 46 11 128 -11 177 -21 46 -56 90 -71 90 -5 0 -6 -10 -2 -22 4 -13 10
-39 15 -58 6 -29 5 -32 -4 -16 -23 37 -69 86 -77 81 -4 -3 -2 -26 6 -52 20
-68 18 -72 -17 -25 -17 23 -35 42 -40 42 -5 0 -6 -24 -3 -57 l7 -58 -32 43
c-49 67 -59 55 -35 -43 3 -11 -9 1 -26 27 -18 26 -36 45 -41 43 -4 -3 -6 -36
-2 -73 l6 -67 -29 54 c-41 77 -53 76 -48 -1 2 -35 1 -56 -2 -48 -12 29 -57 90
-67 90 -5 0 -7 -23 -3 -57 4 -43 3 -52 -4 -34 -31 72 -88 112 -69 49 15 -54
10 -63 -13 -28 -35 51 -46 49 -42 -7 3 -44 3 -45 -6 -17 -5 17 -17 37 -25 44
-13 10 -15 9 -15 -11 -1 -16 -9 -5 -27 36 -14 33 -25 69 -25 80 2 31 24 66 36
56 19 -14 64 -22 71 -11 3 5 -8 18 -24 28 -42 25 -28 35 21 15 46 -18 59 -11
32 19 -18 20 -18 21 -1 15 65 -24 81 -19 50 15 -19 21 -8 23 27 3 32 -18 40
-18 40 0 0 8 -9 19 -21 25 -11 7 -19 14 -16 16 2 2 22 -6 45 -18 51 -29 64
-17 26 23 l-29 32 48 -27 c26 -14 50 -26 52 -26 12 0 3 26 -17 48 l-23 24 30
-13 c17 -7 34 -16 40 -21 14 -12 25 -10 25 7 0 7 -8 19 -17 24 -26 15 -10 13
31 -4 31 -13 36 -13 36 -1 0 18 -60 66 -83 66 -18 0 -169 -77 -178 -91 -3 -5
-23 -13 -45 -16 -47 -8 -101 -40 -166 -101 l-48 -45 -38 16 c-54 24 -128 40
-157 35 -30 -6 -30 -2 -7 37 16 26 23 29 58 27 56 -4 78 21 33 37 -17 6 -36 8
-43 4 -6 -4 -5 1 3 11 10 12 16 14 21 5 9 -14 97 12 92 27 -4 15 -55 24 -69
12 -23 -19 -14 -2 13 23 16 15 24 19 22 9 -2 -9 4 -15 15 -14 57 3 67 5 67 18
0 16 -45 30 -63 20 -7 -4 -3 3 8 15 16 19 21 20 23 8 3 -13 14 -15 50 -12 62
4 60 3 38 20 -18 14 -16 15 28 15 39 0 47 3 42 15 -4 12 3 15 31 15 30 0 34 2
23 14 -6 8 -21 17 -33 19 -12 2 6 5 41 6 74 1 115 -14 170 -63 44 -40 52 -43
52 -21 0 16 -74 96 -105 113 -43 23 -4 22 54 -1 70 -28 86 -21 39 18 l-33 27
30 -7 c17 -3 43 -13 59 -21 41 -20 52 -6 20 27 -32 33 -31 34 26 14 64 -23 81
-19 47 10 -39 34 -13 32 62 -6z m-1597 -275 c56 -9 58 -33 2 -26 -24 2 -44 1
-44 -2 0 -4 14 -21 30 -38 41 -41 38 -49 -11 -25 -31 15 -43 17 -52 8 -9 -10
-8 -15 7 -23 22 -12 59 -48 54 -53 -1 -1 -27 2 -55 8 -29 6 -55 8 -59 5 -3 -4
12 -22 33 -42 l38 -35 -40 9 c-49 12 -85 13 -85 3 0 -5 18 -19 40 -32 21 -14
37 -28 34 -33 -3 -4 -29 -8 -57 -8 l-52 -1 28 -22 c31 -26 27 -37 -12 -37 -14
0 -33 -5 -41 -10 -13 -9 -12 -12 4 -25 18 -14 18 -15 -6 -47 -13 -18 -48 -76
-78 -128 -84 -149 -126 -212 -171 -255 -27 -26 -39 -33 -34 -20 28 69 44 123
45 145 0 34 11 71 19 66 3 -2 22 8 40 23 41 34 34 55 -15 49 -24 -3 -34 0 -34
10 0 7 4 11 10 7 12 -7 110 42 110 55 0 6 -17 10 -37 10 l-38 0 43 20 c50 23
47 39 -6 41 l-37 1 53 17 c58 18 68 38 21 48 l-31 6 32 13 c18 8 43 14 56 14
12 0 25 4 29 10 6 10 -44 40 -72 41 -32 1 39 28 77 29 19 0 42 5 50 10 13 9
13 11 0 20 -8 5 -27 10 -42 10 -58 0 -34 19 34 27 40 4 72 13 71 18 -1 6 -19
15 -40 21 -45 14 -31 22 41 26 65 4 69 23 9 41 l-48 15 68 1 c52 1 67 4 67 16
0 8 -6 15 -14 15 -8 0 -18 5 -22 11 -4 8 3 9 22 5 16 -3 46 -8 66 -12z m-386
-52 c-17 -26 -54 -68 -80 -92 -27 -25 -58 -58 -69 -75 -10 -16 -17 -22 -14
-13 11 33 -12 29 -35 -6 -15 -23 -29 -34 -39 -31 -16 5 -48 -49 -50 -83 0 -12
-3 -11 -10 6 -22 55 153 254 286 325 45 24 46 21 11 -31z m3494 -11 c0 -11 3
-28 6 -38 3 -10 -2 -5 -11 10 -19 34 -35 27 -36 -16 l-1 -32 -15 34 c-11 27
-17 31 -24 20 -5 -8 -9 -25 -9 -39 -1 -25 -1 -25 -10 -2 -15 35 -30 26 -31
-20 -1 -42 -1 -42 -12 -15 -16 39 -27 33 -28 -15 -1 -41 -1 -42 -11 -15 -13
36 -32 30 -36 -11 -3 -34 -16 -42 -26 -17 -7 20 -26 19 -26 -1 0 -9 -6 -14
-12 -11 -7 2 -43 -11 -80 -30 -38 -18 -68 -32 -68 -30 0 9 176 142 236 178
112 68 194 89 194 50z m-220 -276 c31 -16 35 -27 19 -60 -7 -15 -8 -12 -3 13
3 19 1 32 -5 32 -12 0 -51 -40 -52 -54 -1 -6 -4 3 -8 19 -8 38 -20 36 -42 -4
-18 -33 -35 -26 -24 9 11 35 -20 23 -43 -17 l-22 -38 0 33 c0 43 -14 41 -34
-5 -14 -32 -16 -34 -13 -10 5 33 -18 38 -28 6 -6 -17 -9 -19 -16 -8 -8 11 -13
10 -28 -9 -13 -15 -21 -18 -25 -10 -3 9 -11 6 -25 -10 -16 -19 -28 -23 -63
-20 -43 3 -42 3 77 55 221 95 277 108 335 78z m-367 -191 c11 -11 -12 -44 -27
-38 -18 7 -34 -15 -46 -62 -9 -37 -9 -37 -4 14 6 64 -9 69 -37 10 l-20 -43 6
39 c8 48 -12 46 -37 -5 l-17 -34 6 40 6 40 -23 -20 c-12 -11 -29 -33 -37 -50
l-14 -30 6 39 c8 48 -11 46 -38 -5 -17 -30 -18 -31 -13 -7 3 15 2 29 -3 32 -9
6 -35 -20 -44 -44 -4 -10 -6 -7 -6 8 -1 26 5 25 -100 11 -51 -7 -108 -8 -149
-3 l-67 8 120 7 c108 5 134 10 255 52 109 37 149 46 206 47 39 0 74 -3 77 -6z
m-744 -175 c58 -14 130 -22 237 -24 98 -3 160 -9 173 -17 19 -12 19 -12 -5
-41 -13 -16 -24 -36 -24 -45 0 -9 -5 -24 -11 -32 -7 -11 -9 -5 -7 24 4 52 -16
57 -43 12 -11 -20 -22 -36 -24 -36 -1 0 0 24 2 53 l4 52 -23 -25 c-13 -14 -31
-37 -41 -50 l-18 -25 6 48 c4 26 2 47 -3 47 -12 0 -39 -31 -52 -60 -9 -21 -10
-18 -6 23 2 26 0 49 -4 52 -8 5 -54 -42 -64 -65 -3 -8 -4 4 -1 28 7 53 -11 56
-51 10 l-27 -33 7 36 c8 45 1 52 -34 34 -26 -13 -28 -13 -23 3 3 13 -8 23 -44
40 -26 12 -39 19 -28 16 11 -3 58 -14 104 -25z m-254 -125 c11 -21 55 -69 98
-108 84 -76 120 -125 115 -153 -3 -16 -8 -17 -48 -6 -25 6 -35 12 -22 12 12 1
22 5 22 11 0 14 -44 23 -72 15 -22 -6 -22 -6 -4 9 11 9 23 16 28 16 4 0 8 7 8
16 0 13 -8 15 -41 12 l-41 -4 27 22 c21 17 24 22 12 27 -8 3 -26 3 -39 1 -21
-5 -22 -4 -5 9 26 22 21 30 -19 25 l-37 -4 27 21 c28 23 26 35 -8 36 -12 0
-15 3 -8 6 23 9 12 23 -19 23 -25 0 -30 3 -25 17 4 9 1 20 -6 25 -9 5 -5 8 12
8 19 0 30 -9 45 -36z m810 -26 c50 -26 103 -56 119 -66 35 -25 66 -70 66 -98
0 -18 -7 -23 -40 -26 -47 -4 -50 3 -12 31 22 17 25 22 12 30 -17 12 -55 5 -87
-15 -31 -19 -29 -11 8 31 l31 35 -26 0 c-15 0 -39 -8 -54 -17 l-27 -17 28 30
c15 17 27 33 27 37 0 12 -33 8 -62 -7 -30 -16 -38 -7 -13 14 35 29 6 38 -49
15 -16 -7 -17 -6 -7 13 6 11 11 23 11 26 0 11 -36 6 -49 -6 -11 -11 -12 -10
-6 2 13 25 28 41 34 38 3 -2 47 -24 96 -50z m-646 -289 c22 -8 30 -16 27 -26
-4 -8 5 -28 18 -44 49 -57 44 -152 -12 -240 -30 -46 -97 -107 -142 -128 l-25
-12 25 18 c148 105 211 252 144 332 -24 29 -97 61 -110 48 -3 -3 12 -23 35
-45 51 -48 54 -70 5 -37 -38 26 -124 36 -124 15 0 -5 7 -10 16 -10 16 0 89
-69 81 -76 -2 -2 -18 3 -35 12 -42 20 -102 30 -102 16 0 -6 10 -16 23 -23 22
-11 56 -48 57 -61 0 -4 -16 4 -36 17 -20 14 -51 25 -67 25 l-31 0 36 -37 c48
-51 60 -85 17 -49 -31 26 -75 43 -86 33 -3 -4 6 -20 21 -37 14 -17 26 -39 26
-48 0 -13 -3 -11 -16 6 -17 24 -72 57 -82 48 -3 -4 5 -25 18 -48 l23 -41 -37
28 c-41 31 -55 28 -38 -10 19 -42 14 -42 -14 -1 l-26 38 40 37 c22 20 67 74
100 121 33 47 68 93 79 102 27 25 87 48 124 48 26 0 31 3 26 20 -6 23 -2 24
42 9z m-579 -284 c35 -11 68 -31 92 -55 57 -57 46 -69 -14 -15 -58 52 -70 47
-38 -15 l21 -41 -42 41 c-53 52 -79 67 -79 46 0 -8 5 -18 10 -21 11 -7 50 -79
50 -92 0 -4 -11 9 -25 29 -29 43 -118 114 -123 99 -2 -6 7 -25 21 -43 13 -18
32 -53 41 -78 l17 -45 -30 35 c-17 19 -30 38 -31 42 0 10 -112 100 -117 94 -3
-2 12 -39 32 -81 20 -42 35 -78 33 -80 -2 -2 -23 21 -47 51 -39 50 -116 113
-125 103 -3 -2 13 -40 35 -84 21 -44 39 -83 39 -87 0 -4 -19 13 -42 38 -38 42
-118 104 -132 104 -13 0 -5 -21 24 -67 40 -63 38 -74 -7 -32 -91 86 -138 101
-83 26 40 -55 38 -66 -5 -28 -42 37 -95 65 -95 51 0 -5 9 -24 20 -42 29 -48
25 -50 -30 -16 -28 17 -53 28 -57 25 -3 -4 6 -30 22 -59 l28 -51 -34 26 c-36
27 -89 51 -96 43 -3 -2 7 -22 21 -43 14 -20 26 -42 26 -48 0 -6 69 -10 193
-10 145 0 216 -5 290 -19 54 -10 96 -20 93 -23 -2 -2 -42 3 -88 12 -257 49
-562 18 -736 -75 -30 -16 -49 -24 -44 -17 5 7 33 43 63 81 129 166 324 289
529 332 91 19 346 12 420 -11z"/>
</g>
</svg>
