<?xml version="1.0" standalone="no"?>
<!DOCTYPE svg PUBLIC "-//W3C//DTD SVG 20010904//EN"
 "http://www.w3.org/TR/2001/REC-SVG-20010904/DTD/svg10.dtd">
<svg version="1.0" xmlns="http://www.w3.org/2000/svg"
 width="529.000000pt" height="471.000000pt" viewBox="0 0 529.000000 471.000000"
 preserveAspectRatio="xMidYMid meet">
<metadata>
Created by potrace 1.16, written by Peter Selinger 2001-2019
</metadata>
<g transform="translate(0.000000,471.000000) scale(0.100000,-0.100000)"
fill="#f1c88e" stroke="none">
<path d="M2441 4585 c-164 -37 -270 -130 -306 -270 -8 -32 -15 -79 -15 -102 0
-28 -4 -43 -12 -43 -19 1 -95 36 -128 60 -37 27 -44 15 -43 -71 1 -79 25 -140
73 -186 19 -18 32 -34 29 -36 -2 -1 -22 -15 -44 -29 -75 -49 -166 -151 -267
-302 -119 -179 -122 -183 -214 -252 -40 -30 -88 -72 -109 -95 -95 -105 -170
-261 -197 -406 -9 -50 -21 -80 -47 -113 -19 -25 -47 -73 -64 -108 -51 -110
-66 -189 -82 -445 -17 -273 -30 -343 -85 -445 -42 -77 -162 -239 -267 -360
-80 -92 -90 -108 -97 -155 -10 -62 -81 -188 -188 -329 -32 -43 -58 -82 -58
-88 0 -5 20 -15 44 -21 30 -7 43 -16 42 -27 -1 -12 18 -23 66 -39 246 -83 527
-37 633 102 22 28 29 52 37 122 5 49 21 120 34 158 36 99 54 165 54 199 0 38
30 84 78 123 35 29 40 38 47 90 17 148 29 163 185 248 50 28 118 71 150 97 54
43 62 46 89 37 27 -9 31 -18 46 -82 9 -40 19 -118 22 -175 5 -85 9 -102 22
-102 15 1 90 25 134 45 14 6 17 3 15 -16 -3 -22 0 -24 37 -21 22 2 66 14 98
27 l58 23 19 -37 c20 -40 59 -77 158 -154 75 -57 102 -98 102 -153 0 -69 -74
-160 -227 -280 -65 -51 -92 -81 -129 -142 -25 -42 -71 -110 -102 -150 -65 -85
-62 -94 28 -100 55 -4 59 -6 49 -24 -18 -33 -4 -45 64 -57 268 -47 454 53 512
274 8 31 25 69 38 85 15 17 27 48 31 77 8 61 48 140 125 246 34 46 61 90 61
98 0 8 -16 29 -34 47 -77 74 -57 129 86 243 114 90 222 169 232 169 3 0 6 -7
6 -16 0 -27 76 -179 118 -236 51 -69 93 -105 162 -137 72 -34 187 -35 270 -2
30 11 56 21 58 21 7 0 0 -192 -9 -230 -6 -25 -26 -75 -45 -113 -19 -37 -34
-78 -34 -90 0 -40 -38 -173 -66 -233 -26 -54 -26 -58 -9 -70 24 -18 97 -28
145 -20 39 6 40 6 29 -21 -6 -16 -6 -30 0 -36 5 -5 54 -7 113 -5 124 5 213 34
307 97 101 69 122 142 81 289 -11 39 -20 88 -20 108 0 22 -16 73 -40 124 -57
123 -67 180 -47 269 19 81 17 91 -22 114 -39 23 -99 91 -107 122 -4 15 4 63
20 118 41 147 43 269 9 406 -5 22 1 19 57 -25 35 -27 111 -91 169 -142 132
-115 190 -146 289 -151 62 -3 80 0 126 23 123 60 183 180 173 345 -3 53 -13
108 -27 144 -48 127 -165 265 -316 373 -34 24 -74 62 -89 84 -54 78 -153 138
-270 165 -127 29 -144 35 -164 60 -17 23 -21 24 -34 10 -8 -8 -18 -20 -20 -27
-9 -20 -57 39 -57 68 0 14 5 35 11 46 30 55 -48 42 -100 -17 -40 -45 -54 -95
-49 -171 3 -52 10 -72 36 -109 18 -25 32 -52 32 -60 0 -7 21 -32 48 -54 103
-88 231 -134 408 -146 150 -11 196 -35 280 -149 82 -109 110 -282 55 -328 -32
-25 -43 -17 -192 128 -259 251 -449 356 -616 341 -35 -4 -72 -11 -83 -17 -16
-9 -51 1 -188 56 -209 83 -347 153 -407 206 -26 23 -72 80 -102 127 -31 47
-95 127 -143 176 -120 124 -134 156 -82 193 44 32 109 44 227 43 200 -1 281
25 320 105 11 23 35 58 52 78 18 20 36 49 39 64 4 15 15 43 26 62 10 19 18 53
18 75 0 44 14 61 90 116 150 108 277 162 393 165 42 1 78 6 79 10 3 15 -81 73
-125 86 -23 7 -88 13 -147 12 -145 -1 -281 -42 -464 -139 l-88 -46 -54 22
c-49 21 -59 22 -102 11 -51 -14 -68 -10 -180 38 -44 19 -52 27 -58 55 -12 64
-83 102 -213 112 l-74 6 37 19 c63 33 188 43 344 30 75 -7 147 -14 159 -16 87
-18 306 -27 382 -16 145 20 241 71 258 138 7 31 4 33 -47 20 -73 -17 -255 -14
-339 5 -40 10 -153 45 -250 78 -254 87 -357 110 -526 115 -100 3 -158 0 -204
-11z m434 -104 c103 -26 463 -140 443 -141 -4 0 -87 16 -185 36 -149 31 -200
37 -313 38 l-134 1 52 15 c71 20 66 34 -10 26 -97 -10 -180 -41 -234 -89 l-48
-42 27 48 c18 30 23 47 15 47 -25 0 -105 -63 -137 -109 -29 -42 -32 -43 -25
-16 4 17 13 42 20 57 20 40 0 43 -32 6 -45 -54 -67 -115 -60 -165 4 -28 2 -42
-4 -38 -6 3 -10 32 -10 64 0 44 7 72 31 119 86 172 292 221 604 143z m-94
-380 c37 -18 50 -31 70 -72 13 -28 35 -59 50 -70 34 -24 39 -24 39 0 0 18 5
17 70 -12 47 -21 70 -38 70 -49 0 -23 21 -68 32 -68 9 0 13 8 22 52 4 18 16
29 37 37 45 16 82 -4 163 -88 38 -39 75 -71 83 -71 16 0 16 5 3 31 -14 25 1
24 33 -1 l25 -20 -34 -34 c-36 -36 -43 -56 -19 -56 18 0 18 -5 5 -31 -8 -14
-21 -19 -50 -19 -43 0 -69 9 -229 78 -130 55 -216 67 -250 33 -33 -33 -28 -83
11 -116 30 -25 33 -26 45 -10 11 15 25 17 105 13 103 -6 288 -59 288 -82 0
-23 -44 -54 -86 -61 -57 -9 -159 12 -220 47 -63 35 -68 35 -49 -2 9 -16 13
-30 10 -30 -11 0 -110 67 -124 83 -22 27 -34 20 -29 -17 l4 -34 -43 30 c-23
17 -49 46 -58 64 -9 19 -20 34 -25 34 -14 0 -11 -59 5 -105 8 -21 13 -41 11
-43 -6 -6 -88 93 -104 126 -9 17 -20 32 -25 32 -10 0 -4 -99 8 -135 15 -46
-45 42 -77 111 -18 41 -36 73 -40 74 -23 1 -12 -133 17 -215 11 -28 -42 42
-67 89 -11 22 -26 61 -34 87 -18 61 -31 69 -40 24 -15 -84 23 -215 90 -308 62
-88 213 -227 245 -227 6 0 -4 31 -25 71 -19 39 -33 73 -30 76 2 3 43 -47 90
-110 60 -82 111 -138 177 -194 51 -43 110 -96 131 -118 34 -35 84 -123 102
-177 8 -26 26 -22 26 5 0 23 5 21 123 -37 67 -34 169 -79 227 -100 332 -122
486 -259 525 -468 6 -31 4 -36 -17 -41 -40 -11 -77 -8 -139 13 -34 12 -66 19
-73 17 -16 -6 66 -82 127 -117 l52 -30 -49 0 c-64 0 -156 25 -229 61 -32 17
-63 29 -69 27 -34 -12 119 -131 210 -164 63 -23 74 -34 26 -28 -97 14 -190 55
-271 120 -23 19 -44 34 -47 34 -33 0 65 -119 141 -171 23 -16 69 -43 100 -59
70 -35 44 -41 -48 -10 -90 31 -135 63 -234 168 -184 195 -253 259 -342 319
-90 60 -158 91 -171 78 -4 -4 9 -19 28 -35 20 -16 60 -56 89 -90 l53 -61 -68
44 c-103 66 -184 110 -191 103 -3 -3 31 -46 76 -96 46 -49 80 -90 77 -90 -4 0
-28 17 -54 38 -27 20 -103 73 -170 117 -66 43 -120 81 -118 82 2 2 36 -8 76
-23 39 -14 74 -24 76 -21 27 27 -149 136 -316 195 -47 17 -93 33 -102 37 -38
15 -17 -25 40 -75 l57 -52 -37 7 c-43 7 -43 7 -23 -59 20 -66 19 -145 -1 -175
-17 -23 -82 -57 -92 -47 -2 3 3 8 12 12 24 9 19 29 -11 41 -27 11 -27 11 15
12 23 1 42 5 42 10 0 5 -25 21 -55 35 -30 14 -55 27 -55 29 0 2 34 2 75 -1 87
-5 96 6 33 37 -24 12 -68 39 -98 61 l-55 40 48 0 c26 0 47 4 47 9 0 5 -31 30
-70 57 -38 26 -70 49 -70 50 0 1 17 -2 38 -7 82 -20 92 -21 92 -11 0 25 -174
152 -209 152 -6 0 -11 -17 -11 -40 0 -27 -13 -65 -43 -122 -24 -46 -47 -95
-50 -110 -13 -49 12 -125 69 -211 56 -84 59 -92 67 -165 5 -38 2 -45 -27 -67
-17 -13 -57 -36 -89 -50 -31 -15 -59 -30 -62 -35 -8 -13 40 -23 77 -16 26 5
29 4 18 -8 -6 -8 -27 -20 -46 -26 -19 -7 -33 -17 -31 -23 5 -16 54 -27 91 -21
l31 6 -37 -36 c-36 -34 -48 -56 -30 -56 4 0 30 13 58 30 115 65 145 152 91
257 -25 48 -3 49 28 1 55 -82 42 -165 -35 -227 -43 -34 -120 -76 -160 -86 -23
-5 -25 -3 -26 34 -2 42 -31 101 -50 101 -6 0 -14 -12 -17 -28 -3 -15 -23 -44
-44 -65 l-38 -39 -11 80 c-7 43 -15 88 -18 100 -7 20 -4 22 33 22 59 0 58 15
-3 43 -64 29 -70 39 -128 204 -39 112 -40 120 -28 163 33 120 43 183 44 304
l1 128 45 41 c69 61 121 81 198 74 70 -7 189 -38 258 -67 102 -44 34 35 -117
135 -110 73 -190 155 -214 220 -27 69 -39 57 -32 -32 5 -55 4 -74 -4 -63 -24
36 -68 129 -80 170 -16 59 -26 69 -35 36 -8 -32 0 -221 11 -251 3 -11 -5 -2
-19 20 -39 59 -56 128 -56 222 0 46 -4 83 -9 83 -4 0 -20 -27 -35 -61 -33 -72
-45 -184 -27 -254 7 -26 10 -49 7 -52 -2 -2 -21 29 -41 71 -36 72 -37 78 -33
158 3 46 9 91 13 101 5 12 3 17 -7 17 -17 0 -62 -87 -78 -153 -12 -46 -9 -189
5 -237 7 -24 6 -23 -13 4 -35 50 -56 147 -49 226 7 81 -5 91 -33 28 -34 -79
-42 -246 -15 -341 4 -12 -5 -4 -18 18 -35 56 -50 121 -43 177 9 62 -7 62 -31
1 -13 -35 -18 -75 -18 -145 0 -87 -1 -94 -12 -65 -6 17 -12 42 -12 55 -1 12
-5 22 -10 22 -16 0 -23 -40 -23 -121 0 -84 20 -166 57 -239 40 -78 149 -191
261 -268 11 -7 -14 4 -54 25 -98 51 -171 110 -240 194 -50 61 -57 67 -60 47
-4 -31 39 -156 74 -215 15 -27 50 -72 78 -102 l51 -55 -60 33 c-33 18 -86 53
-118 78 -33 24 -61 42 -64 40 -13 -14 87 -164 170 -255 l42 -46 -40 24 c-70
42 -150 97 -164 114 -13 15 -41 22 -41 10 0 -21 71 -133 117 -184 30 -33 52
-60 48 -60 -13 0 -92 51 -110 70 -10 11 -22 20 -27 20 -26 0 12 -87 65 -146
l32 -37 -43 24 c-24 13 -61 39 -83 58 -22 18 -42 31 -45 28 -10 -10 15 -71 51
-126 20 -30 34 -56 31 -58 -5 -5 -95 37 -102 48 -3 5 -12 9 -20 9 -12 0 -12
-5 1 -36 8 -20 31 -59 51 -86 32 -46 33 -49 12 -43 -35 11 -96 43 -103 55 -9
14 -25 12 -25 -3 0 -15 36 -88 64 -129 l18 -28 -48 27 c-27 14 -57 33 -66 41
-16 13 -18 13 -24 -1 -6 -16 10 -46 60 -111 29 -38 29 -38 5 -31 -13 4 -46 19
-72 32 -27 13 -51 22 -54 20 -7 -8 33 -80 64 -117 l27 -33 -25 8 c-13 4 -48
18 -78 31 -30 13 -56 22 -59 20 -8 -9 38 -74 74 -105 34 -30 34 -31 10 -31
-13 0 -49 10 -80 21 -31 12 -59 19 -63 15 -11 -11 31 -59 83 -94 l49 -34 -45
6 c-25 4 -65 9 -90 13 -42 6 -44 5 -30 -12 8 -9 39 -31 69 -48 l55 -31 -39 -9
c-22 -5 -57 -6 -77 -4 -57 7 -48 -17 15 -43 l52 -21 -68 5 c-37 2 -69 0 -72
-4 -9 -15 45 -52 100 -69 l57 -18 -87 -31 c-48 -18 -93 -32 -101 -32 -8 0 -14
-6 -14 -14 0 -17 71 -28 170 -29 l65 0 -40 -14 c-43 -15 -198 -20 -253 -8
l-33 7 40 43 c41 44 59 85 46 105 -4 6 -17 -1 -35 -19 -27 -27 -104 -61 -138
-61 -8 0 -1 15 20 39 18 21 52 75 76 120 24 45 46 81 48 81 3 0 18 -10 34 -22
39 -29 46 -19 21 31 -12 22 -21 58 -21 79 0 33 9 49 60 108 237 274 301 366
345 497 31 95 44 188 45 332 1 140 22 304 50 378 23 60 40 74 40 32 0 -14 4
-25 10 -25 11 0 16 20 25 95 10 81 54 249 85 326 68 164 165 274 401 454 121
92 159 129 146 142 -3 2 -26 -7 -53 -21 -27 -14 -50 -23 -53 -21 -9 10 155
218 224 284 92 87 148 116 210 106 68 -10 63 11 -10 47 -71 34 -145 106 -163
157 -10 29 -10 30 13 21 13 -5 83 -13 155 -19 143 -11 218 -35 261 -85 35 -41
56 -34 30 10 -27 45 -27 46 10 68 83 49 207 56 290 17z m1237 -1155 c41 -21
112 -38 131 -31 13 5 12 9 -9 21 -17 10 -18 13 -5 9 11 -4 66 -19 122 -35 107
-29 172 -61 212 -104 20 -21 21 -26 8 -26 -29 0 -19 -19 22 -39 95 -49 251
-193 313 -291 32 -49 68 -157 68 -199 -1 -19 -5 -13 -20 26 -56 157 -225 357
-365 432 -22 11 -48 21 -59 21 -18 0 -18 -1 -2 -18 16 -18 14 -19 -56 -15
-130 8 -230 38 -311 95 -25 18 -26 21 -11 32 15 11 11 16 -29 40 -57 33 -96
82 -104 132 l-6 38 37 -37 c20 -20 49 -43 64 -51z m64 -464 c77 -38 172 -105
273 -196 68 -61 75 -71 74 -104 l0 -37 -14 38 c-16 44 -52 97 -66 97 -5 0 -9
-10 -9 -22 -1 -19 -5 -15 -22 17 -24 48 -67 95 -85 95 -16 0 -16 -5 -3 -33 8
-17 7 -16 -7 3 -58 83 -170 150 -132 78 11 -20 7 -19 -24 9 -34 29 -87 50
-104 40 -5 -3 -24 9 -43 25 l-35 30 66 -5 c45 -3 86 -14 131 -35z m-82 -1301
l45 -6 -48 -19 c-26 -11 -46 -24 -44 -30 2 -6 35 -13 73 -16 l69 -5 -30 -21
c-27 -19 -53 -30 -109 -48 -18 -6 -18 -8 -3 -23 12 -12 36 -16 97 -17 l82 -1
-33 -27 c-17 -15 -56 -37 -85 -50 -80 -34 -72 -52 19 -45 39 4 83 9 96 13 52
15 9 -15 -54 -38 -36 -12 -65 -28 -65 -34 0 -15 42 -26 73 -20 12 3 38 7 57
10 33 5 34 5 15 -10 -11 -9 -39 -25 -63 -35 -24 -10 -40 -23 -37 -29 8 -13 96
-13 129 0 47 17 27 -1 -26 -25 -44 -20 -151 -45 -195 -45 -8 0 -10 16 -6 55 7
63 -2 68 -44 29 -34 -32 -67 -49 -111 -59 -32 -7 -33 -6 -23 13 17 31 51 184
44 195 -4 6 4 7 21 3 14 -3 37 -9 51 -12 15 -4 25 -2 25 5 0 6 -4 11 -10 11
-5 0 -20 16 -34 36 l-24 36 25 54 c14 31 30 82 36 115 9 47 15 58 27 53 8 -4
35 -10 60 -13z m-1499 -161 c10 0 43 -10 75 -22 l58 -22 -33 -7 c-18 -4 -65
-10 -105 -14 -121 -11 -127 -31 -19 -60 97 -25 105 -31 58 -44 -22 -5 -64 -13
-92 -17 -35 -4 -53 -11 -53 -20 0 -14 13 -19 90 -33 l45 -8 -30 -12 c-16 -7
-54 -15 -83 -18 -32 -4 -51 -10 -49 -17 6 -19 59 -39 105 -40 l43 -1 -30 -27
c-37 -33 -88 -48 -162 -48 l-56 0 23 48 c23 46 32 112 16 112 -5 0 -21 -13
-37 -30 -23 -24 -101 -70 -120 -70 -2 0 18 35 46 78 28 42 56 76 63 75 6 0 26
-4 44 -8 37 -9 42 3 12 30 -11 10 -20 24 -20 31 0 7 28 35 63 62 34 28 73 62
86 76 17 18 28 23 35 16 5 -5 18 -10 27 -10z"/>
<path d="M2645 4073 c-11 -3 -35 -16 -52 -30 -37 -27 -45 -58 -14 -50 13 3 21
-1 24 -13 8 -29 51 -51 126 -62 70 -10 121 -6 121 11 0 18 -81 111 -108 124
-35 18 -72 25 -97 20z"/>
<path d="M2090 4036 c0 -16 34 -31 116 -50 34 -7 70 -18 80 -24 17 -10 17 -12
-10 -22 -52 -19 -14 -35 102 -41 59 -3 109 -4 111 -2 9 6 -55 66 -105 99 -56
36 -134 54 -236 54 -43 0 -58 -4 -58 -14z"/>
<path d="M2310 3686 c-7 -25 -11 -79 -9 -123 5 -93 37 -168 100 -232 54 -56
213 -173 217 -160 5 13 -29 61 -112 163 -88 107 -145 221 -159 319 -6 42 -14
77 -18 77 -3 0 -12 -20 -19 -44z"/>
<path d="M2226 3603 c-12 -12 -6 -164 8 -197 21 -50 71 -101 160 -165 104 -73
104 -73 111 -61 3 5 -35 52 -84 105 -94 100 -155 201 -167 277 -7 39 -16 53
-28 41z"/>
<path d="M2176 3132 c-7 -13 12 -47 45 -79 57 -54 192 -153 201 -147 17 11
-80 154 -106 154 -6 0 -39 18 -73 40 -34 21 -64 36 -67 32z"/>
<path d="M2090 3082 c0 -50 95 -149 205 -212 22 -13 62 -41 88 -63 104 -85 52
6 -71 125 -76 74 -196 168 -213 168 -5 0 -9 -8 -9 -18z"/>
<path d="M1900 2520 c0 -46 55 -112 124 -149 45 -23 52 -22 59 16 14 69 16 65
-53 82 -36 9 -80 27 -98 39 -17 13 -32 18 -32 12z"/>
<path d="M1866 2423 c-12 -12 49 -105 100 -153 60 -57 54 -61 -48 -34 -33 8
-63 12 -67 9 -11 -12 87 -93 144 -120 30 -14 55 -28 55 -32 0 -9 -100 7 -136
22 -19 8 -36 10 -38 6 -14 -22 118 -110 166 -111 9 0 20 -5 24 -11 5 -9 -17
-10 -80 -7 -47 2 -86 1 -86 -2 0 -16 41 -42 87 -56 56 -18 119 -11 175 17 80
41 77 99 -11 225 -33 48 -63 101 -66 118 -6 28 -12 33 -65 48 -32 10 -78 33
-103 52 -25 19 -48 32 -51 29z"/>
<path d="M3195 2320 c-5 -8 107 -121 170 -172 45 -36 100 -68 119 -68 21 0
-66 112 -120 155 -75 59 -159 101 -169 85z"/>
<path d="M4000 2902 c0 -16 25 -32 87 -57 43 -18 53 -26 40 -30 -45 -18 8 -43
103 -50 39 -3 102 -7 140 -10 46 -3 70 -1 70 5 0 14 -98 60 -127 60 -13 0 -23
5 -23 10 0 6 5 10 10 10 6 0 10 4 10 10 0 14 -68 30 -130 30 -52 1 -106 9
-157 25 -13 4 -23 3 -23 -3z"/>
</g>
</svg>
