<?xml version="1.0" standalone="no"?>
<!DOCTYPE svg PUBLIC "-//W3C//DTD SVG 20010904//EN"
 "http://www.w3.org/TR/2001/REC-SVG-20010904/DTD/svg10.dtd">
<svg version="1.0" xmlns="http://www.w3.org/2000/svg"
 width="447.000000pt" height="558.000000pt" viewBox="0 0 447.000000 558.000000"
 preserveAspectRatio="xMidYMid meet">

<g transform="translate(0.000000,558.000000) scale(0.100000,-0.100000)"
fill="#f1c88e" stroke="none">
<path d="M639 5024 c-23 -28 -18 -156 10 -239 30 -88 73 -176 118 -238 19 -27
32 -51 29 -55 -9 -8 -147 136 -211 221 -59 79 -92 100 -120 77 -9 -8 -15 -30
-15 -56 0 -110 126 -313 260 -419 27 -22 50 -43 50 -47 0 -12 -123 52 -266
137 -145 86 -173 94 -194 55 -32 -60 122 -232 305 -339 54 -32 64 -41 45 -41
-30 0 -246 52 -309 74 -66 24 -109 21 -122 -8 -33 -71 126 -182 338 -236 42
-11 84 -20 95 -20 45 0 9 -19 -97 -49 -132 -38 -179 -64 -183 -103 -5 -42 37
-58 150 -58 51 0 122 5 158 10 35 5 66 8 68 6 1 -2 -23 -18 -55 -36 -132 -74
-192 -135 -178 -180 14 -45 118 -38 289 18 64 20 116 36 116 34 0 -2 -27 -33
-60 -69 -33 -36 -72 -90 -86 -119 -25 -51 -25 -55 -10 -79 10 -16 26 -25 42
-25 25 0 110 40 173 82 19 12 32 18 30 12 -2 -5 -19 -37 -37 -71 -48 -93 -41
-153 18 -153 32 0 60 19 133 89 31 30 57 51 57 46 0 -6 -7 -32 -15 -59 -23
-75 -20 -122 9 -141 38 -25 76 -2 155 95 l20 25 1 -67 c0 -54 4 -72 20 -88 28
-28 44 -25 90 16 l40 36 0 -44 c0 -24 -7 -68 -15 -98 -36 -130 -39 -161 -21
-245 10 -44 24 -120 31 -169 15 -93 26 -116 56 -116 22 0 49 37 49 66 0 13 12
37 28 55 26 31 27 38 27 133 0 56 -6 126 -14 156 -17 73 -4 121 50 189 l42 52
21 -20 c12 -12 32 -21 45 -21 33 0 70 43 77 89 l7 41 29 -25 c16 -14 40 -25
53 -25 27 0 64 42 72 82 6 33 14 35 36 10 23 -25 21 -69 -3 -117 -11 -22 -20
-50 -20 -63 0 -12 -7 -37 -17 -55 -14 -27 -16 -68 -17 -272 0 -276 12 -358 86
-557 35 -93 42 -124 41 -178 -1 -36 -3 -126 -5 -200 -3 -127 -1 -143 31 -267
l35 -132 -18 -63 c-10 -35 -26 -85 -35 -113 -22 -69 -18 -197 8 -256 10 -24
33 -57 50 -72 24 -22 29 -34 25 -56 -4 -18 4 -52 21 -95 22 -55 29 -93 35
-199 18 -283 90 -383 196 -272 79 82 86 203 23 416 -36 123 -29 177 56 425
117 340 149 491 143 669 l-3 83 47 41 c29 26 51 56 58 79 6 20 20 53 30 72 17
32 26 68 50 190 4 25 13 58 19 74 13 33 17 312 6 391 -11 79 -44 203 -76 286
l-29 76 20 44 c11 24 20 53 20 64 0 11 12 -7 25 -40 29 -70 58 -99 95 -92 46
10 116 -90 106 -152 -3 -24 1 -50 14 -80 11 -24 20 -58 20 -75 0 -18 7 -41 15
-52 11 -14 13 -36 9 -90 -7 -81 5 -117 38 -112 14 2 37 33 77 108 54 101 56
108 56 182 0 73 -2 81 -54 181 -51 99 -53 107 -41 136 8 20 11 52 7 88 -3 31
-2 52 2 47 4 -5 26 -32 49 -60 67 -83 132 -94 147 -25 5 25 -11 109 -32 168
-3 10 30 -17 74 -59 70 -68 85 -78 116 -78 67 0 73 59 17 164 -17 31 -30 58
-30 61 0 2 27 -13 61 -35 106 -68 172 -77 185 -24 9 37 -22 98 -96 183 -33 39
-57 71 -52 71 5 0 26 -7 46 -15 68 -29 221 -65 273 -65 41 0 55 4 67 21 8 12
12 29 9 38 -15 41 -92 104 -191 156 -29 15 -51 29 -50 31 2 2 33 -1 68 -6 36
-5 111 -10 167 -10 92 0 104 2 129 23 56 49 -6 96 -199 148 -48 13 -87 26 -87
30 0 3 33 12 73 19 145 25 283 89 355 163 27 28 33 41 30 68 -3 31 -6 34 -38
37 -19 2 -79 -11 -133 -27 -54 -17 -135 -38 -180 -47 -45 -8 -88 -17 -94 -19
-7 -3 -13 -1 -13 3 0 5 21 18 48 31 197 96 393 328 313 371 -27 14 -47 5 -209
-91 -117 -70 -211 -119 -229 -119 -2 0 32 34 76 76 153 144 262 357 221 433
-22 42 -58 24 -128 -64 -67 -84 -201 -225 -214 -225 -4 0 7 21 26 48 71 99
134 252 150 364 8 54 -8 126 -30 135 -33 13 -61 -6 -79 -54 -59 -158 -177
-331 -298 -436 -89 -77 -168 -133 -197 -140 -14 -4 -46 -25 -72 -49 -25 -24
-88 -65 -139 -93 -115 -62 -133 -87 -123 -165 4 -30 8 -87 8 -127 1 -58 -3
-77 -20 -100 -26 -34 -69 -60 -108 -65 -28 -3 -29 -2 -62 102 -35 113 -78 176
-131 199 -31 13 -70 89 -79 156 l-6 40 26 -54 c15 -30 28 -52 30 -50 3 2 -1
27 -9 54 -17 67 -29 215 -16 195 6 -8 13 -32 16 -52 11 -65 27 -32 20 41 -14
138 -75 271 -159 349 -53 49 -102 66 -175 60 -31 -3 -68 -1 -84 4 -39 14 -116
-7 -172 -46 -81 -58 -90 -78 -161 -323 -8 -29 -26 -66 -40 -83 -31 -37 -17
-39 25 -4 39 33 39 21 0 -40 -16 -27 -28 -50 -26 -53 3 -2 19 8 36 22 17 15
31 24 31 21 0 -19 -35 -85 -57 -108 -32 -34 -23 -36 25 -6 39 24 39 24 -6 -53
-21 -37 -43 -61 -63 -69 -61 -26 -95 -96 -108 -223 -5 -43 -11 -80 -14 -84 -3
-3 -30 0 -59 7 -98 24 -139 98 -119 215 16 93 14 139 -9 168 -11 14 -59 47
-106 74 -48 26 -111 69 -141 96 -30 26 -62 47 -73 47 -25 0 -182 124 -261 206
-83 87 -141 173 -191 283 -21 47 -44 97 -51 111 -15 31 -58 38 -78 14z m65
-94 c78 -202 258 -416 464 -547 43 -28 52 -38 52 -63 0 -17 -3 -30 -6 -30 -23
0 -207 143 -288 223 -54 55 -89 86 -78 70 57 -78 234 -232 351 -304 30 -18 50
-34 44 -36 -20 -7 -220 98 -281 148 -78 64 -168 183 -222 291 -47 96 -86 242
-76 283 8 33 17 25 40 -35z m3196 6 c0 -148 -123 -383 -274 -523 -54 -50 -97
-77 -184 -119 -63 -30 -116 -53 -119 -51 -2 3 41 34 95 70 111 74 229 179 289
259 48 63 77 108 70 108 -3 0 -19 -21 -36 -47 -46 -72 -195 -214 -295 -282
-50 -34 -93 -61 -98 -61 -9 0 2 64 13 68 4 2 52 36 106 76 109 81 219 192 283
286 42 62 130 237 130 259 0 6 5 11 10 11 6 0 10 -24 10 -54z m-1730 -164
c-55 -27 -85 -51 -117 -90 -45 -55 -52 -59 -29 -14 30 56 109 118 171 133 54
13 51 9 -25 -29z m255 19 c53 -24 118 -90 146 -149 26 -54 28 -126 13 -327 -9
-103 -11 -114 -18 -81 -5 21 -5 82 0 135 16 191 5 256 -58 324 l-39 42 30 -43
c40 -59 55 -131 47 -231 -17 -227 -17 -236 -2 -285 17 -57 3 -50 -18 9 l-15
40 0 -35 c-1 -26 -4 -31 -11 -20 -15 23 -12 130 6 212 19 87 21 201 4 243 -14
36 -58 95 -70 95 -5 0 5 -22 22 -50 21 -34 32 -66 35 -102 l4 -53 -24 58 c-34
79 -52 104 -97 135 -42 29 -50 42 -24 42 14 0 15 2 3 17 -13 15 -12 16 9 11
12 -4 22 -3 22 1 0 5 -10 13 -22 19 -42 20 12 14 57 -7z m-175 -35 c0 -2 -24
-19 -52 -36 -29 -18 -77 -55 -107 -83 -47 -46 -52 -48 -35 -19 26 45 82 98
129 121 38 19 65 26 65 17z m-1677 -98 c89 -112 180 -199 288 -274 43 -31 77
-59 74 -63 -2 -5 2 -17 10 -27 8 -10 15 -23 15 -27 0 -21 -159 94 -254 183
-33 30 -51 43 -40 29 53 -70 207 -187 340 -259 52 -28 94 -53 94 -56 0 -17
-170 52 -253 103 -82 50 -207 171 -262 254 -56 83 -113 229 -90 229 2 0 37
-42 78 -92z m3486 14 c-53 -163 -225 -350 -408 -441 -78 -39 -179 -76 -187
-69 -2 3 29 22 69 43 114 59 227 139 303 212 39 38 52 52 30 32 -112 -97 -263
-202 -251 -173 4 10 10 28 12 40 3 11 23 31 46 45 115 70 265 215 358 344 29
41 34 44 37 26 2 -12 -2 -38 -9 -59z m-1799 27 c-14 -12 -54 -40 -90 -63 -71
-46 -98 -83 -110 -153 l-8 -48 -1 48 c-2 81 45 140 159 202 75 40 85 43 50 14z
m114 -42 c36 -38 86 -136 86 -167 0 -11 -6 -33 -14 -48 -7 -15 -14 -39 -14
-54 1 -35 -44 -111 -81 -137 -38 -27 -100 -28 -134 -1 -33 26 -69 84 -72 118
-2 15 -10 44 -19 64 -20 47 -20 97 0 126 8 12 48 40 89 63 40 22 79 46 85 54
19 23 40 18 74 -18z m-1888 -298 c132 -77 263 -141 347 -168 32 -11 37 -16 31
-34 -4 -12 -8 -23 -9 -25 -2 -2 -38 10 -81 27 -43 17 -80 29 -81 27 -4 -4 140
-66 153 -66 6 0 37 -14 154 -69 48 -22 -91 -3 -181 25 -171 53 -350 172 -436
289 -38 51 -51 75 -39 75 1 0 66 -37 142 -81z m3705 18 c-72 -105 -222 -215
-386 -282 -54 -22 -193 -55 -230 -55 -25 1 -19 6 41 34 40 19 89 39 110 46 53
17 204 87 204 95 0 3 -17 -3 -37 -14 -21 -10 -71 -30 -110 -45 -59 -21 -73
-23 -73 -11 0 8 -4 15 -10 15 -30 0 -1 19 68 44 100 37 200 88 337 170 61 36
111 62 113 56 2 -5 -10 -29 -27 -53z m-2918 -59 c20 -18 77 -55 128 -83 118
-64 126 -76 111 -166 -22 -130 -10 -193 47 -250 29 -30 50 -40 99 -50 41 -9
62 -18 62 -27 0 -12 -10 -13 -45 -9 -115 16 -198 101 -212 217 -3 30 -10 47
-16 43 -7 -4 -8 7 -4 33 4 21 11 40 17 42 21 7 9 30 -30 57 -22 15 -37 31 -35
36 3 4 0 11 -6 15 -8 4 -9 3 -5 -4 21 -34 -69 22 -110 69 -25 29 -55 109 -40
109 2 0 19 -15 39 -32z m2053 -23 c-9 -37 -51 -80 -121 -124 -88 -56 -94 -51
-9 8 38 27 78 59 89 72 14 16 9 15 -15 -6 -20 -17 -61 -48 -92 -69 -32 -21
-55 -42 -53 -46 3 -4 -4 -15 -15 -25 -24 -21 -27 -47 -5 -39 11 5 15 -1 15
-17 -1 -56 -28 -159 -53 -201 -27 -47 -106 -108 -139 -108 -10 0 -18 -5 -18
-10 0 -7 -6 -7 -20 0 -31 16 -24 28 23 41 63 16 100 43 127 91 28 49 32 129
11 216 -12 50 -12 56 6 80 11 15 58 48 104 73 46 26 102 62 124 82 42 36 53
31 41 -18z m-2270 10 c78 -29 220 -108 204 -113 -6 -2 -29 3 -51 12 -59 24
-61 19 -4 -11 47 -25 49 -27 25 -33 -43 -12 -150 42 -227 113 -69 64 -55 73
53 32z m2544 11 c0 -41 -212 -172 -257 -160 -34 9 -28 20 22 40 57 21 53 29
-5 9 -23 -8 -47 -15 -53 -15 -47 0 229 137 281 139 6 1 12 -5 12 -13z m-1306
-114 c22 3 48 8 57 12 12 5 18 -3 28 -34 7 -23 28 -58 47 -79 34 -38 34 -39
12 -45 -13 -3 -44 -6 -69 -6 -40 0 -92 -21 -79 -33 13 -11 183 15 251 39 95
33 134 28 178 -21 30 -34 47 -83 137 -385 42 -141 47 -153 111 -252 60 -93
125 -226 153 -313 12 -38 49 -127 82 -197 76 -163 78 -194 17 -326 -23 -50
-45 -90 -48 -87 -7 4 3 116 15 170 6 29 6 29 -9 10 -8 -11 -19 -17 -23 -12 -9
9 -26 139 -19 146 3 2 18 -5 35 -17 42 -32 45 -11 4 37 -25 29 -31 41 -20 41
23 0 20 9 -11 33 l-27 21 25 6 24 6 -31 17 c-17 8 -36 23 -43 31 -12 14 -9 15
20 11 l34 -6 -42 23 c-42 22 -55 38 -30 38 6 0 -6 11 -28 25 l-40 24 35 1 35
1 -52 27 c-59 29 -66 42 -25 42 23 1 18 6 -33 33 l-60 32 45 5 45 5 -55 30
-55 29 40 6 40 5 -60 30 -60 29 45 6 45 6 -54 24 -54 24 34 9 34 9 -47 24
c-54 27 -61 44 -21 44 34 0 20 14 -29 30 -42 13 -53 36 -13 26 36 -9 31 6 -10
28 -62 34 -65 47 -9 41 l49 -6 -47 25 c-60 33 -68 46 -23 39 19 -3 35 -3 35
-1 0 3 -24 20 -52 39 l-53 33 35 6 35 5 -40 28 c-38 26 -39 31 -3 28 59 -6
-10 46 -86 65 -27 6 -28 6 -16 -16 11 -20 10 -22 -4 -17 -14 5 -13 1 4 -33 24
-47 26 -110 4 -156 -30 -63 -123 -99 -201 -78 -30 8 -29 24 0 24 40 0 39 12
-3 31 -45 20 -51 34 -17 45 20 6 18 9 -20 25 -24 10 -43 22 -43 28 0 5 12 19
28 30 l27 20 -37 1 c-34 0 -38 3 -38 25 0 23 -2 24 -20 13 -15 -10 -22 -10
-32 0 -22 22 -26 12 -11 -30 16 -47 12 -114 -9 -149 -19 -31 -81 -59 -130 -59
-70 0 -76 15 -12 29 57 13 60 30 4 31 -14 1 -38 7 -55 14 l-30 13 45 7 c40 7
42 9 20 16 -40 11 -90 40 -90 50 0 6 15 10 33 10 29 1 30 2 12 12 -11 6 -30
20 -43 32 -21 19 -22 21 -5 27 14 5 9 10 -25 28 -43 22 -44 22 -37 2 3 -11 -1
-42 -10 -68 -12 -34 -15 -64 -11 -104 6 -48 3 -62 -19 -101 -35 -63 -70 -170
-84 -259 -25 -150 -40 -184 -134 -307 l-40 -53 -23 22 c-32 30 -30 39 6 39 36
0 37 6 5 50 -24 33 -25 53 -2 44 7 -2 31 -1 52 4 l40 8 -30 16 c-34 18 -81 65
-73 73 3 3 21 -2 41 -10 20 -8 47 -15 59 -15 19 0 15 6 -27 44 -53 46 -57 68
-8 43 15 -8 39 -18 52 -22 23 -7 22 -4 -12 36 -33 38 -45 59 -33 59 2 0 22 -7
45 -15 22 -8 41 -12 41 -8 0 3 -13 21 -30 40 -36 40 -38 57 -7 49 12 -3 33 -9
47 -13 22 -6 21 -3 -14 41 -43 51 -43 62 -2 46 46 -17 48 -11 11 25 -19 20
-35 40 -35 45 0 13 1 13 45 -6 20 -8 40 -13 42 -10 3 3 -8 21 -26 41 -45 52
-41 69 9 40 41 -23 43 -17 11 22 -42 51 -41 66 5 57 40 -7 40 -1 1 44 l-20 22
33 0 34 0 -37 38 c-45 46 -47 58 -7 37 43 -22 54 -18 32 13 -10 15 -25 38 -32
51 -11 22 -10 23 6 19 11 -3 28 -9 38 -14 19 -7 19 -6 -2 23 -30 42 -29 55 4
43 14 -6 35 -10 46 -10 19 0 19 2 -7 26 -31 28 -28 42 5 24 25 -13 39 -5 22
12 -18 18 -15 26 17 33 21 4 52 -3 108 -25 89 -37 213 -50 213 -24 0 8 -3 14
-7 14 -83 5 -113 9 -133 20 l-24 13 35 18 c33 16 52 47 73 112 5 15 9 16 27 7
12 -7 40 -10 63 -8z m-1192 -64 c48 -10 93 -27 100 -35 12 -15 6 -16 -57 -10
-60 5 -64 4 -25 -4 25 -5 55 -12 68 -15 13 -3 20 -9 16 -16 -11 -17 -150 -3
-214 21 -30 11 -68 33 -84 48 -27 25 -28 27 -10 34 25 10 98 2 206 -23z m2577
16 c8 -7 -24 -36 -63 -56 -58 -30 -132 -48 -198 -48 -66 0 -86 16 -31 25 84
15 98 24 28 19 -64 -5 -68 -4 -51 10 19 15 169 53 236 59 33 3 70 -1 79 -9z
m-2309 -25 l25 -21 -50 5 -50 5 40 -13 c22 -8 50 -14 63 -14 26 -1 30 -21 4
-21 -31 0 -136 30 -160 46 -34 22 -18 34 46 34 43 0 63 -6 82 -21z m1970 8 c0
-22 -120 -67 -179 -67 -34 0 -18 13 32 27 39 10 40 11 12 12 l-30 2 24 19 c29
24 141 29 141 7z m-2956 -41 c142 -42 270 -65 429 -78 182 -15 180 -30 -5 -38
l-133 -5 85 -9 c77 -7 99 -16 100 -38 0 -16 -154 -7 -253 13 -134 27 -235 70
-297 126 -51 46 -64 69 -32 60 9 -2 57 -17 106 -31z m3926 25 c0 -19 -86 -85
-154 -117 -100 -48 -213 -74 -343 -81 -111 -6 -112 -6 -106 16 4 16 13 21 42
22 20 0 74 6 121 13 l85 13 -135 -5 c-95 -3 -148 -1 -180 9 l-45 13 115 8
c157 11 323 40 460 81 127 38 140 41 140 28z m-2937 -67 c46 -8 48 -21 5 -27
-32 -4 -32 -4 5 -5 60 -3 42 -22 -20 -22 -95 0 -167 28 -132 51 16 10 88 11
142 3z m1955 0 c60 -16 -19 -53 -115 -53 -67 -1 -90 18 -25 21 36 1 36 1 5 5
-38 5 -44 20 -10 26 36 7 120 7 145 1z m-2104 -61 c4 -5 -19 -13 -51 -20 l-58
-11 58 5 c49 5 56 3 51 -10 -3 -9 -12 -18 -20 -21 -32 -12 -191 -27 -229 -21
-48 7 -95 25 -95 35 0 11 51 30 106 39 63 11 228 13 238 4z m2406 -15 c112
-35 5 -75 -153 -58 -99 10 -137 22 -137 41 0 7 22 9 63 6 l62 -6 -63 12 c-36
7 -60 16 -55 21 12 12 230 0 283 -16z m-2225 -7 c-6 -5 -23 -11 -40 -14 -24
-3 -21 -4 13 -6 23 0 42 -5 42 -10 0 -12 -51 -21 -114 -21 -87 0 -96 25 -16
48 46 13 127 15 115 3z m1899 -12 c15 -7 25 -17 23 -23 -4 -13 -98 -20 -144
-11 -47 9 -42 28 6 23 22 -2 37 0 35 4 -3 5 -18 8 -35 8 -16 0 -29 5 -29 11 0
15 105 5 144 -12z m-1857 -36 c-3 -10 -5 -2 -5 17 0 19 2 27 5 18 2 -10 2 -26
0 -35z m-197 -32 c0 -4 -17 -16 -37 -24 -37 -16 -32 -16 30 -1 27 6 28 5 17
-13 -23 -35 -196 -93 -282 -93 -63 0 -63 20 -2 56 91 53 274 104 274 75z m160
0 c0 -5 -12 -12 -26 -15 -15 -4 -24 -10 -21 -13 3 -3 20 -1 36 5 46 16 47 -4
1 -22 -54 -22 -116 -31 -124 -18 -8 13 40 47 84 60 46 13 50 14 50 3z m1844
-25 c43 -23 48 -40 14 -44 -30 -4 -128 30 -125 43 1 6 7 8 12 6 6 -2 19 -5 30
-8 14 -3 12 1 -7 12 -16 8 -28 18 -28 21 0 10 65 -8 104 -30z m208 4 c101 -34
181 -77 175 -94 -8 -23 -137 -10 -226 23 -46 17 -90 36 -97 42 -24 20 -15 31
19 25 l32 -5 -27 11 c-16 7 -28 15 -28 20 0 16 65 7 152 -22z m-2468 1 c3 -5
-29 -18 -72 -30 -70 -19 -61 -21 20 -4 l32 6 -36 -35 c-38 -39 -91 -54 -271
-78 -150 -20 -281 -9 -237 20 34 22 185 65 335 96 168 34 220 40 229 25z
m2786 -21 c246 -49 394 -99 359 -121 -32 -20 -218 -7 -394 28 -65 12 -87 22
-118 49 -44 40 -36 42 75 14 44 -12 84 -20 90 -18 5 2 -43 16 -106 32 -111 27
-148 46 -88 46 15 0 97 -14 182 -30z m-2270 -45 l35 -40 -37 34 c-21 19 -38
39 -38 45 0 5 1 7 3 5 1 -2 18 -22 37 -44z m-99 5 c-28 -24 -15 -27 17 -4 26
18 41 12 24 -9 -16 -19 -111 -62 -119 -54 -13 14 17 57 49 71 46 20 57 19 29
-4z m1659 1 c-5 -11 -15 -23 -21 -27 -6 -3 -3 5 6 20 20 30 30 35 15 7z m103
8 c61 -31 92 -87 41 -75 -35 9 -116 61 -108 69 4 4 23 -3 43 -15 l36 -21 -24
26 c-26 29 -23 34 12 16z m-1886 -52 c1 -12 -4 -31 -12 -43 -14 -21 -205 -124
-230 -124 -51 0 23 88 132 158 69 44 108 47 110 9z m2198 -82 c58 -54 67 -82
25 -77 -13 1 -64 24 -114 50 -67 35 -95 56 -110 82 l-20 35 47 -28 c58 -34 62
-27 6 10 -35 23 -38 28 -23 34 27 10 122 -43 189 -106z m-331 32 c19 -33 21
-57 5 -57 -19 0 -99 70 -99 86 0 21 10 17 44 -13 l30 -28 -22 29 c-12 16 -22
33 -22 38 0 15 46 -25 64 -55z m-1687 35 c-26 -29 -20 -38 8 -12 14 13 28 20
32 16 4 -4 -16 -30 -45 -58 -36 -34 -57 -47 -64 -40 -18 18 40 112 70 112 13
0 13 -3 -1 -18z m-426 -36 c-6 -7 -38 -25 -71 -40 -33 -15 -60 -29 -60 -31 0
-6 41 10 89 35 56 28 63 25 38 -14 -38 -59 -274 -155 -423 -172 -59 -7 -67 1
-31 33 64 60 373 200 446 202 19 1 21 -2 12 -13z m2669 -43 c165 -69 300 -148
300 -175 0 -28 -206 22 -363 88 -71 29 -93 44 -111 73 -13 20 -22 37 -21 39 1
2 33 -11 70 -28 90 -41 94 -33 5 10 -39 19 -70 38 -70 42 0 17 88 -6 190 -49z
m-2174 32 c-16 -40 -16 -48 0 -22 21 31 51 39 35 9 -15 -28 -68 -82 -80 -82
-17 0 -13 29 11 71 21 37 47 55 34 24z m1533 -38 c37 -76 7 -77 -53 -4 -35 44
-26 64 10 22 l25 -30 -16 34 c-13 25 -14 32 -3 29 7 -2 24 -25 37 -51z m-1719
36 c0 -4 -19 -28 -42 -53 l-43 -45 47 44 c26 25 50 42 53 39 14 -14 -20 -62
-85 -118 -107 -92 -150 -105 -117 -36 22 48 145 176 168 176 11 0 19 -3 19 -7z
m1934 -24 c75 -65 152 -189 118 -189 -36 0 -194 146 -207 190 -6 22 -2 20 37
-17 59 -57 74 -55 18 2 -39 39 -41 45 -22 45 12 0 37 -14 56 -31z m-1678 -16
l-6 -28 21 28 c27 35 41 35 28 0 -15 -40 -59 -94 -70 -88 -14 9 -11 52 6 85
19 38 29 38 21 3z m1339 -3 c19 -37 28 -39 14 -4 -12 34 -3 44 16 18 16 -21
20 -104 5 -104 -12 0 -55 66 -65 98 -9 33 12 27 30 -8z m-1250 -47 c-5 -32 -9
-42 -15 -32 -9 13 -7 34 7 84 10 34 16 -3 8 -52z m-295 -27 c-40 -60 -31 -59
15 0 34 46 35 46 35 19 0 -46 -126 -195 -165 -195 -49 0 38 168 109 211 17 10
32 16 34 14 2 -2 -10 -24 -28 -49z m965 -56 c38 -18 57 -21 113 -17 37 3 77 8
90 12 13 4 22 3 22 -3 0 -5 -10 -13 -22 -17 -19 -6 -20 -8 -6 -12 18 -5 31
-30 22 -44 -3 -5 -16 -6 -30 -3 -34 9 -30 -9 6 -23 41 -15 42 -53 3 -54 l-28
-1 33 -14 c21 -9 38 -27 48 -49 20 -50 18 -54 -23 -49 l-38 5 40 -22 c51 -27
75 -48 75 -65 0 -10 -6 -11 -26 -3 -15 5 -28 8 -30 6 -2 -2 19 -25 46 -52 53
-52 60 -65 34 -65 -12 0 -6 -11 20 -40 50 -55 49 -57 -24 -32 -8 3 13 -24 48
-59 34 -36 62 -68 62 -71 0 -4 -20 1 -45 12 -25 11 -45 16 -45 12 0 -5 16 -24
36 -43 40 -37 94 -107 94 -120 0 -5 -22 7 -49 26 -26 19 -51 35 -54 35 -3 0
10 -23 29 -51 19 -28 34 -55 34 -60 0 -5 -30 11 -67 35 -38 24 -160 89 -273
145 -113 55 -216 110 -230 122 l-25 20 38 -6 c20 -3 37 -4 37 -1 0 2 -17 15
-37 27 -42 26 -31 35 23 20 21 -6 40 -9 42 -7 2 3 -20 20 -50 40 -53 36 -50
44 10 27 45 -13 40 -1 -13 32 -62 39 -65 49 -14 41 51 -9 47 5 -11 31 -53 24
-51 36 5 30 25 -3 45 -3 45 -1 0 3 -28 20 -62 38 l-63 33 60 5 60 6 -63 30
c-34 16 -60 33 -56 37 4 4 27 7 50 7 65 0 62 18 -5 31 -58 12 -74 29 -28 29
12 0 29 4 37 9 10 7 2 13 -33 22 -66 16 -68 29 -5 30 48 0 50 1 28 12 -14 6
-26 11 -27 12 -2 1 19 24 45 51 l47 49 27 -36 c14 -20 47 -46 73 -59z m841 63
c35 -38 94 -145 94 -170 0 -20 -32 -15 -60 10 -25 22 -130 145 -130 152 0 2 3
11 7 20 5 15 12 11 40 -21 27 -31 30 -32 15 -9 -33 53 -34 55 -17 55 9 0 32
-17 51 -37z m-2055 -44 c-56 -99 -323 -297 -347 -258 -18 30 179 237 264 275
29 13 56 24 59 24 4 0 -13 -21 -37 -47 l-45 -47 52 43 c29 24 55 47 59 52 3 5
10 9 15 9 5 0 -4 -23 -20 -51z m2352 -38 c18 -13 10 -2 -17 23 -27 26 -47 49
-44 51 3 3 26 -4 52 -15 86 -39 300 -264 268 -284 -23 -14 -179 85 -278 176
-36 33 -94 117 -94 135 0 3 18 -10 41 -29 22 -18 55 -44 72 -57z m-1998 23
c-21 -50 -13 -54 10 -4 21 46 35 52 35 13 0 -45 -95 -203 -122 -203 -32 0 24
201 64 232 29 22 33 10 13 -38z m1602 -15 c38 -77 51 -179 22 -179 -11 0 -60
73 -93 139 -20 38 -26 61 -21 80 7 25 8 24 30 -22 32 -67 41 -72 16 -9 -26 66
-26 68 2 50 12 -8 32 -34 44 -59z m-1481 9 c-6 -33 -6 -33 5 -5 17 42 32 33
27 -15 -6 -50 -77 -200 -92 -195 -28 9 -8 179 26 222 27 35 41 32 34 -7z
m1369 -40 c4 -16 5 -31 2 -34 -7 -8 -57 71 -57 91 0 17 2 17 24 -5 14 -12 28
-36 31 -52z m-1780 -35 c-10 -16 -34 -48 -54 -72 -20 -25 -31 -42 -25 -38 7 4
36 36 65 72 29 36 54 63 56 61 3 -2 -1 -22 -7 -44 -8 -32 -37 -69 -130 -164
-89 -91 -122 -120 -131 -111 -35 35 168 310 240 322 2 1 -5 -11 -14 -26z
m2168 -58 c22 -23 20 -19 -7 19 -43 58 -45 70 -9 53 61 -28 243 -293 214 -312
-13 -7 -92 59 -155 130 -97 109 -103 119 -110 160 l-6 40 22 -30 c13 -16 36
-43 51 -60z m-2003 30 c0 -3 -9 -24 -21 -46 -29 -58 -18 -59 14 -1 l27 47 0
-40 c0 -32 -13 -61 -66 -145 -69 -111 -109 -160 -131 -160 -46 0 50 243 126
316 31 31 51 42 51 29z m1863 -38 c61 -61 127 -206 127 -279 0 -45 -16 -37
-71 32 -62 77 -129 198 -134 240 -3 22 -3 40 -1 40 2 0 18 -24 35 -52 37 -64
41 -56 6 12 -14 28 -21 50 -15 50 6 0 30 -19 53 -43z m-117 -109 c21 -42 54
-154 54 -183 -1 -5 -7 -1 -15 9 -8 11 -15 26 -15 33 0 8 -20 58 -45 112 -25
54 -45 102 -45 106 0 18 44 -33 66 -77z m-1630 40 l-6 -33 16 35 16 35 13 -30
c11 -26 9 -39 -12 -100 -40 -113 -96 -196 -122 -180 -34 20 18 225 71 283 28
29 31 28 24 -10z m933 -499 c245 -120 347 -190 403 -278 40 -63 35 -68 -20
-22 -58 49 -71 52 -43 9 26 -39 91 -164 91 -175 0 -4 -16 9 -37 28 -26 25 -34
29 -29 14 15 -40 36 -130 36 -150 0 -16 -7 -12 -36 23 -20 23 -39 42 -44 42
-4 0 3 -30 16 -67 13 -38 23 -84 23 -103 l0 -35 -19 42 c-30 67 -92 153 -175
241 -43 45 -74 82 -71 82 16 0 70 -34 121 -75 65 -53 72 -40 15 29 -22 26 -40
51 -40 55 0 4 -16 26 -36 49 -19 23 -34 42 -31 42 15 0 88 -37 126 -63 l45
-31 -22 32 c-48 66 -109 106 -326 207 -92 44 -131 68 -172 110 -58 58 -74 94
-23 51 34 -29 73 -51 116 -66 26 -9 25 -8 -7 17 -48 37 -130 121 -130 132 0 6
24 -6 53 -25 28 -19 126 -71 216 -115z m-829 100 c-14 -48 -12 -108 5 -165 18
-60 21 -208 3 -202 -6 2 -17 22 -25 43 -19 55 -34 67 -22 19 11 -51 11 -145
-1 -164 -5 -8 -11 -12 -13 -10 -10 13 -31 204 -30 270 1 41 2 90 2 109 1 18 6
40 12 48 7 7 9 16 5 20 -3 3 3 13 15 21 11 8 18 20 15 27 -3 9 4 15 17 17 29
5 28 7 17 -33z m679 -194 c118 -79 150 -104 133 -105 -28 0 -196 111 -231 154
-25 29 1 17 98 -49z m27 -107 c80 -57 111 -84 102 -93 -9 -10 -143 81 -203
138 -71 68 -91 114 -22 51 23 -22 78 -65 123 -96z m-13 -91 c32 -27 55 -52 53
-55 -12 -11 -178 125 -198 163 -12 21 31 -11 145 -108z m-100 -9 c34 -23 99
-78 143 -122 80 -79 82 -83 93 -147 14 -83 14 -228 0 -305 -6 -32 -25 -106
-44 -164 -48 -150 -58 -248 -53 -495 5 -212 -3 -351 -23 -415 -20 -62 -31 -59
-25 5 5 60 5 60 -8 21 -7 -22 -18 -42 -26 -44 -13 -5 -11 11 6 65 3 11 -2 8
-16 -10 -30 -38 -45 -23 -19 19 12 19 19 38 15 41 -3 3 -8 -2 -12 -11 -3 -9
-13 -16 -21 -16 -15 0 -15 12 2 53 5 12 2 17 -9 17 -12 0 -16 10 -16 35 0 33
12 46 24 26 3 -5 14 -11 25 -14 18 -4 18 -3 -2 30 l-20 36 21 -12 c33 -18 35
-13 12 25 -25 40 -20 56 10 29 26 -23 26 -9 0 30 -24 36 -25 49 -5 41 18 -7
18 2 0 34 -20 35 -18 41 10 34 30 -7 31 0 5 33 -27 34 -25 46 5 41 l25 -5 -20
32 c-25 40 -25 45 1 45 19 0 18 3 -10 37 -39 47 -41 66 -6 53 14 -5 25 -8 25
-7 0 2 -11 18 -25 37 -32 44 -32 51 5 43 l30 -6 -35 53 c-20 29 -34 55 -31 57
2 3 19 -3 37 -13 l33 -17 -17 24 c-24 33 -60 110 -54 116 3 2 19 -3 37 -12 18
-9 34 -14 37 -12 2 3 -14 29 -36 58 -23 30 -41 57 -41 61 0 4 19 -1 42 -12 24
-10 44 -17 46 -15 2 2 -17 29 -42 60 -25 30 -46 60 -46 66 0 5 18 0 40 -11 68
-34 81 -25 30 23 -25 23 -55 53 -65 66 l-20 23 40 -17 c69 -30 84 -29 45 2
-58 47 -130 115 -130 124 0 4 28 -5 63 -21 89 -43 97 -37 26 18 -34 26 -73 62
-87 80 l-25 33 69 -35 c38 -19 80 -37 94 -41 24 -6 24 -5 -5 17 -48 36 -145
130 -145 140 0 5 15 1 33 -10 17 -11 50 -27 72 -36 l40 -16 -51 48 c-51 46
-124 133 -124 146 0 11 11 6 73 -36z m368 -176 c112 -72 189 -202 197 -332 5
-94 -13 -118 -21 -28 -8 93 -69 207 -163 307 -42 45 -72 81 -67 81 5 0 29 -13
54 -28z m21 -191 c56 -50 108 -145 108 -197 0 -22 -7 -66 -15 -99 -8 -33 -14
-106 -15 -161 0 -168 -41 -356 -135 -620 -54 -151 -85 -272 -85 -331 0 -23 16
-92 36 -155 38 -120 54 -218 36 -218 -5 0 -13 7 -16 16 -4 9 -9 14 -13 11 -3
-4 2 -18 11 -33 20 -29 14 -43 -9 -24 -19 16 -19 1 0 -27 25 -35 -4 -42 -32
-7 -12 16 -23 25 -23 19 0 -5 9 -21 20 -35 21 -26 26 -50 11 -50 -4 0 -21 18
-36 40 -37 54 -43 51 -10 -6 27 -46 27 -74 0 -74 -21 0 -61 84 -74 155 -6 33
-12 127 -14 208 -2 137 -1 148 16 143 19 -5 23 15 7 45 -8 14 -7 19 1 19 7 0
9 9 5 25 -4 15 -2 25 5 25 7 0 8 11 4 30 -5 24 -3 30 10 30 12 0 14 4 5 19
-16 30 -12 43 10 36 26 -8 26 8 -1 51 -23 37 -16 43 19 18 34 -24 36 -12 8 45
-35 67 -33 77 9 51 19 -12 35 -18 35 -15 0 4 -14 35 -30 67 -17 33 -29 63 -26
65 3 3 23 -4 46 -16 22 -11 40 -17 40 -12 0 5 -20 36 -45 70 -49 66 -44 74 24
36 23 -14 45 -25 47 -25 11 0 -22 48 -64 92 -37 39 -41 48 -25 48 11 0 39 -14
62 -31 24 -17 45 -28 48 -25 6 6 -56 93 -86 120 -55 50 7 32 68 -20 54 -45 45
-20 -19 56 -33 40 -58 75 -56 78 3 2 35 -12 72 -32 36 -20 69 -35 71 -32 3 3
-21 32 -52 66 -32 33 -55 63 -52 66 3 4 31 -8 62 -25 30 -17 55 -27 55 -23 0
5 -30 44 -67 88 l-67 78 68 -37 c38 -21 70 -36 73 -34 2 3 -21 41 -51 86 -31
44 -51 81 -45 81 5 0 28 -9 49 -20 22 -11 40 -18 40 -15 0 4 -18 33 -40 65
-61 90 -62 96 -2 66 28 -14 54 -26 57 -26 10 0 -15 39 -61 96 -25 31 -44 57
-42 59 4 4 39 -17 87 -52 l24 -17 -18 34 c-10 19 -33 56 -52 83 -42 57 -31 60
29 8z"/>
<path d="M2140 4555 c-10 -12 -6 -13 25 -8 28 4 43 1 66 -16 29 -22 29 -22 29
-1 0 36 -94 56 -120 25z"/>
<path d="M2333 4560 c-13 -5 -23 -14 -23 -20 0 -7 8 -9 23 -3 12 4 39 8 60 8
39 0 48 9 21 19 -21 8 -55 7 -81 -4z"/>
<path d="M2152 4523 c-13 -3 -22 -9 -20 -15 5 -15 48 -30 48 -18 0 6 9 10 20
10 11 0 20 -4 20 -10 0 -5 7 -10 15 -10 27 0 16 21 -20 36 -19 7 -36 13 -37
13 -2 -1 -13 -4 -26 -6z"/>
<path d="M2351 4517 c-29 -14 -39 -37 -17 -37 9 0 16 5 16 10 0 12 37 13 42 1
2 -5 13 -5 27 1 14 5 21 12 15 17 -17 16 -59 20 -83 8z"/>
<path d="M2252 4435 c-15 -33 -15 -42 1 -48 9 -3 13 7 13 34 1 22 0 39 -1 39
-1 0 -7 -11 -13 -25z"/>
<path d="M2243 4343 c-30 -12 -9 -23 43 -23 49 0 55 2 44 15 -12 14 -61 19
-87 8z"/>
<path d="M2246 4296 c7 -17 59 -22 69 -7 3 5 -8 9 -23 9 -16 -1 -34 2 -40 6
-8 5 -10 1 -6 -8z"/>
<path d="M1275 4258 c4 -9 27 -30 53 -48 51 -36 49 -32 -16 25 -23 21 -40 31
-37 23z"/>
<path d="M1414 4151 c7 -11 46 -35 46 -28 0 3 -12 12 -26 22 -15 9 -23 12 -20
6z"/>
<path d="M2610 3981 c0 -5 14 -11 31 -15 47 -9 56 -7 35 9 -22 16 -66 20 -66
6z"/>
<path d="M2611 3931 c-15 -10 -5 -14 62 -26 46 -8 48 2 2 21 -40 16 -45 17
-64 5z"/>
<path d="M1935 3904 c19 -17 31 -22 33 -14 5 15 -7 26 -38 34 -25 7 -25 7 5
-20z"/>
<path d="M3248 4113 c7 -3 16 -2 19 1 4 3 -2 6 -13 5 -11 0 -14 -3 -6 -6z"/>
<path d="M633 3983 c9 -2 23 -2 30 0 6 3 -1 5 -18 5 -16 0 -22 -2 -12 -5z"/>
<path d="M818 3813 c7 -3 16 -2 19 1 4 3 -2 6 -13 5 -11 0 -14 -3 -6 -6z"/>
<path d="M768 3803 c6 -2 18 -2 25 0 6 3 1 5 -13 5 -14 0 -19 -2 -12 -5z"/>
<path d="M1230 3745 c-19 -14 -31 -25 -28 -25 9 0 78 41 78 46 0 10 -19 2 -50
-21z"/>
<path d="M2310 3434 c0 -11 5 -14 16 -10 9 3 21 6 27 6 16 0 -14 20 -30 20 -7
0 -13 -7 -13 -16z"/>
<path d="M2310 3372 c0 -42 31 -203 50 -256 31 -91 41 -103 84 -98 20 2 36 7
36 11 0 3 -20 17 -45 30 -51 27 -49 38 10 43 l40 3 -52 30 c-29 17 -53 33 -53
38 0 4 18 7 40 7 22 0 40 4 40 9 0 5 -23 18 -50 30 -49 21 -59 41 -20 41 35 0
30 17 -12 40 -38 21 -40 24 -23 37 11 7 23 13 29 13 17 0 -7 17 -41 28 -29 10
-33 9 -33 -6z"/>
<path d="M2420 2980 c0 -16 7 -20 35 -20 44 0 45 14 4 29 -41 14 -39 14 -39
-9z"/>
<path d="M1019 3483 c-13 -16 -12 -17 4 -4 9 7 17 15 17 17 0 8 -8 3 -21 -13z"/>
<path d="M2495 2718 c22 -25 54 -53 70 -61 42 -22 125 -46 125 -36 0 23 -140
113 -210 134 -23 7 -21 4 15 -37z"/>
</g>
</svg>
